G04 #@! TF.GenerationSoftware,KiCad,Pcbnew,5.1.8-db9833491~87~ubuntu18.04.1*
G04 #@! TF.CreationDate,2020-11-08T12:01:12+01:00*
G04 #@! TF.ProjectId,DAC ADC PWM IO,44414320-4144-4432-9050-574d20494f2e,rev?*
G04 #@! TF.SameCoordinates,Original*
G04 #@! TF.FileFunction,Soldermask,Bot*
G04 #@! TF.FilePolarity,Negative*
%FSLAX46Y46*%
G04 Gerber Fmt 4.6, Leading zero omitted, Abs format (unit mm)*
G04 Created by KiCad (PCBNEW 5.1.8-db9833491~87~ubuntu18.04.1) date 2020-11-08 12:01:12*
%MOMM*%
%LPD*%
G01*
G04 APERTURE LIST*
%ADD10C,2.700000*%
%ADD11R,2.600000X2.600000*%
%ADD12C,2.600000*%
%ADD13R,1.700000X1.700000*%
%ADD14O,1.700000X1.700000*%
G04 APERTURE END LIST*
D10*
G04 #@! TO.C,Hole1*
X173700000Y-117800000D03*
G04 #@! TD*
G04 #@! TO.C,Hole4*
X173700000Y-68800000D03*
G04 #@! TD*
G04 #@! TO.C,Hole2*
X115700000Y-117800000D03*
G04 #@! TD*
G04 #@! TO.C,Hole3*
X115700000Y-68800000D03*
G04 #@! TD*
D11*
G04 #@! TO.C,J2*
X110700000Y-143200000D03*
D12*
X115700000Y-143200000D03*
X120700000Y-143200000D03*
X125700000Y-143200000D03*
X130700000Y-143200000D03*
X135700000Y-143200000D03*
X140700000Y-143200000D03*
X145700000Y-143200000D03*
X150700000Y-143200000D03*
G04 #@! TD*
D11*
G04 #@! TO.C,J3*
X181200000Y-58800000D03*
D12*
X176200000Y-58800000D03*
X171200000Y-58800000D03*
G04 #@! TD*
D11*
G04 #@! TO.C,J4*
X187500000Y-116700000D03*
D12*
X187500000Y-111700000D03*
X187500000Y-106700000D03*
X187500000Y-101700000D03*
G04 #@! TD*
G04 #@! TO.C,J5*
X104300000Y-100000000D03*
X104300000Y-95000000D03*
X104300000Y-90000000D03*
X104300000Y-85000000D03*
X104300000Y-80000000D03*
D11*
X104300000Y-75000000D03*
G04 #@! TD*
D12*
G04 #@! TO.C,J6*
X104300000Y-67400000D03*
D11*
X104300000Y-62400000D03*
G04 #@! TD*
G04 #@! TO.C,J7*
X165200000Y-143200000D03*
D12*
X170200000Y-143200000D03*
X175200000Y-143200000D03*
X180200000Y-143200000D03*
X185200000Y-143200000D03*
X190200000Y-143200000D03*
G04 #@! TD*
D11*
G04 #@! TO.C,J8*
X140300000Y-58800000D03*
D12*
X135300000Y-58800000D03*
G04 #@! TD*
D13*
G04 #@! TO.C,J1*
X103000000Y-108800000D03*
D14*
X105540000Y-108800000D03*
X103000000Y-111340000D03*
X105540000Y-111340000D03*
X103000000Y-113880000D03*
X105540000Y-113880000D03*
X103000000Y-116420000D03*
X105540000Y-116420000D03*
X103000000Y-118960000D03*
X105540000Y-118960000D03*
G04 #@! TD*
D13*
G04 #@! TO.C,J10*
X161900000Y-110700000D03*
G04 #@! TD*
D11*
G04 #@! TO.C,J9*
X162900000Y-58800000D03*
D12*
X157900000Y-58800000D03*
X152900000Y-58800000D03*
X147900000Y-58800000D03*
G04 #@! TD*
M02*
