M48
; DRILL file {KiCad 5.1.8-db9833491~87~ubuntu18.04.1} date Sun Nov  8 12:01:10 2020
; FORMAT={-:-/ absolute / inch / decimal}
; #@! TF.CreationDate,2020-11-08T12:01:10+01:00
; #@! TF.GenerationSoftware,Kicad,Pcbnew,5.1.8-db9833491~87~ubuntu18.04.1
FMAT,2
INCH
T1C0.0157
T2C0.0394
T3C0.0512
T4C0.1063
%
G90
G05
T1
X3.937Y-2.1654
X3.937Y-2.2638
X3.937Y-4.1339
X3.937Y-5.315
X3.937Y-5.4134
X3.937Y-5.5118
X3.937Y-5.6102
X3.937Y-5.7087
X3.937Y-5.8071
X3.976Y-4.8823
X4.0354Y-2.1654
X4.0354Y-2.2638
X4.0354Y-4.1339
X4.0354Y-5.5118
X4.0354Y-5.6102
X4.0354Y-5.7087
X4.0354Y-5.8071
X4.1339Y-2.1654
X4.1339Y-2.2638
X4.1339Y-4.1339
X4.1339Y-5.315
X4.1339Y-5.4134
X4.1339Y-5.6102
X4.1339Y-5.7087
X4.1339Y-5.8071
X4.2323Y-2.1654
X4.2323Y-2.2638
X4.2323Y-4.1339
X4.2323Y-5.315
X4.2323Y-5.4134
X4.2516Y-4.8823
X4.3307Y-2.1654
X4.3307Y-2.2638
X4.3307Y-2.3622
X4.3307Y-2.4606
X4.4291Y-2.1654
X4.4291Y-2.2638
X4.4291Y-2.3622
X4.4291Y-2.4606
X4.4291Y-2.5591
X4.4291Y-3.0512
X4.4291Y-3.2283
X4.4291Y-3.4252
X4.4291Y-3.6417
X4.4291Y-3.8189
X4.4291Y-4.0157
X4.4291Y-4.2126
X4.4291Y-4.626
X4.4291Y-4.7087
X4.4291Y-5.315
X4.5272Y-4.8823
X4.5276Y-2.1654
X4.5276Y-2.2638
X4.5276Y-2.3622
X4.5276Y-2.4606
X4.5276Y-2.5591
X4.5276Y-2.8543
X4.5276Y-5.315
X4.5276Y-5.4134
X4.626Y-2.1654
X4.626Y-2.2638
X4.626Y-2.3622
X4.626Y-2.4606
X4.626Y-2.5591
X4.626Y-2.8543
X4.7244Y-2.1654
X4.7244Y-2.2638
X4.7244Y-2.3622
X4.7244Y-2.4606
X4.7244Y-2.5591
X4.7244Y-2.6575
X4.7244Y-2.7559
X4.7244Y-2.8543
X4.7244Y-3.0512
X4.7244Y-3.248
X4.7244Y-3.4449
X4.7244Y-3.6417
X4.7244Y-3.8386
X4.7244Y-4.0354
X4.7244Y-4.2323
X4.7244Y-4.4291
X4.7244Y-4.6024
X4.7244Y-4.7087
X4.7244Y-5.2165
X4.7244Y-5.315
X4.8028Y-4.8823
X4.8228Y-2.1654
X4.8228Y-2.2638
X4.8228Y-2.3622
X4.8228Y-2.4606
X4.8228Y-2.5591
X4.8228Y-2.6575
X4.8228Y-2.7559
X4.8228Y-2.8543
X4.8228Y-3.0512
X4.8228Y-4.4291
X4.8228Y-4.6024
X4.8228Y-4.7087
X4.8228Y-5.4134
X4.8937Y-2.9606
X4.8937Y-3.1575
X4.8937Y-3.3543
X4.8937Y-3.5512
X4.8937Y-3.748
X4.8937Y-3.9449
X4.8937Y-4.1417
X4.8937Y-4.3386
X4.9213Y-2.1654
X4.9213Y-2.2638
X4.9213Y-2.3622
X4.9213Y-2.4606
X4.9213Y-2.5591
X4.9213Y-2.6575
X4.9213Y-2.7559
X4.9213Y-2.8543
X4.9213Y-3.0512
X4.9213Y-3.4449
X4.9213Y-3.6417
X4.9213Y-3.8386
X4.9213Y-4.0354
X4.9213Y-4.2323
X4.9213Y-4.4291
X4.9213Y-4.6024
X4.9213Y-4.7087
X5.0197Y-2.1654
X5.0197Y-2.2638
X5.0197Y-2.3622
X5.0197Y-2.4606
X5.0197Y-2.5591
X5.0197Y-2.6575
X5.0197Y-2.7559
X5.0197Y-2.8543
X5.0197Y-3.0512
X5.0197Y-3.4449
X5.0197Y-3.6417
X5.0197Y-3.8386
X5.0197Y-4.0354
X5.0197Y-4.2323
X5.0197Y-4.4291
X5.0197Y-4.6024
X5.0197Y-4.7087
X5.0197Y-5.2165
X5.0197Y-5.315
X5.0197Y-5.4134
X5.0783Y-4.8823
X5.1181Y-2.1654
X5.1181Y-2.2638
X5.1181Y-2.3622
X5.1181Y-2.4606
X5.1181Y-2.5591
X5.1181Y-2.6575
X5.1181Y-2.7559
X5.1181Y-2.8543
X5.1181Y-3.0512
X5.1181Y-4.6024
X5.1181Y-4.7087
X5.1496Y-3.1024
X5.2165Y-2.5591
X5.2165Y-2.6575
X5.2165Y-2.7559
X5.2165Y-2.8543
X5.2165Y-3.0079
X5.2165Y-3.4449
X5.2165Y-3.6417
X5.2165Y-3.7402
X5.2165Y-3.8386
X5.2165Y-3.937
X5.2165Y-4.0354
X5.2165Y-4.1339
X5.2165Y-4.2323
X5.2165Y-4.3307
X5.2165Y-4.4291
X5.2165Y-4.5276
X5.2165Y-4.5984
X5.2165Y-4.7087
X5.2165Y-5.315
X5.2165Y-5.4134
X5.2859Y-4.7111
X5.315Y-2.5591
X5.315Y-2.6575
X5.315Y-2.7559
X5.315Y-2.8543
X5.315Y-4.5276
X5.315Y-5.315
X5.3307Y-2.9606
X5.3539Y-4.8823
X5.3543Y-3.1181
X5.3583Y-3.8189
X5.3583Y-4.5197
X5.4134Y-2.5591
X5.4134Y-2.6575
X5.4134Y-4.0354
X5.4134Y-4.1339
X5.4134Y-4.2323
X5.4134Y-4.3307
X5.4134Y-4.4291
X5.4134Y-4.5276
X5.4291Y-3.3543
X5.4331Y-4.7087
X5.4528Y-3.5512
X5.4724Y-3.748
X5.4803Y-3.3228
X5.5Y-3.9213
X5.5Y-4.5197
X5.5118Y-2.5591
X5.5118Y-2.6575
X5.5118Y-5.315
X5.5118Y-5.4134
X5.5773Y-4.7111
X5.6102Y-2.5591
X5.6102Y-2.6575
X5.6102Y-4.0354
X5.6102Y-4.1339
X5.6102Y-4.2323
X5.6102Y-4.3307
X5.6102Y-4.4291
X5.6102Y-5.315
X5.6295Y-4.8823
X5.6417Y-3.9449
X5.6417Y-4.5197
X5.6535Y-3.1024
X5.6535Y-3.3228
X5.6535Y-3.5433
X5.6693Y-3.748
X5.7087Y-2.5591
X5.7087Y-2.6575
X5.7087Y-4.0354
X5.7087Y-4.1339
X5.7087Y-4.2323
X5.7087Y-4.3307
X5.7087Y-4.4291
X5.7087Y-4.5276
X5.719Y-4.7111
X5.748Y-3.4094
X5.748Y-3.5433
X5.7677Y-3.1496
X5.7835Y-3.9528
X5.7835Y-4.5197
X5.8071Y-5.315
X5.815Y-3.1811
X5.8425Y-3.3228
X5.8543Y-3.2126
X5.8607Y-4.7111
X5.8937Y-3.2441
X5.9051Y-4.8823
X5.9055Y-2.5591
X5.9055Y-2.6575
X5.9055Y-2.7559
X5.9055Y-3.3228
X5.9055Y-3.937
X5.9055Y-4.0354
X5.9213Y-3.4094
X5.9213Y-3.5433
X5.9252Y-4.1654
X5.9252Y-4.5197
X5.9331Y-3.2835
X5.9331Y-3.2835
X5.9843Y-3.4724
X5.9882Y-4.0
X6.0Y-4.7087
X6.0039Y-2.5591
X6.0039Y-2.6575
X6.0039Y-2.7559
X6.0039Y-3.937
X6.0315Y-4.2126
X6.0669Y-4.1181
X6.0669Y-4.5197
X6.0945Y-3.1417
X6.0945Y-3.2205
X6.1024Y-2.5591
X6.1024Y-2.6575
X6.1024Y-2.7559
X6.1024Y-4.3307
X6.1024Y-4.4291
X6.1024Y-5.315
X6.1024Y-5.4134
X6.1024Y-5.7087
X6.1024Y-5.8071
X6.1417Y-4.7111
X6.1457Y-3.0354
X6.1732Y-3.1417
X6.1732Y-3.2205
X6.1807Y-4.8823
X6.1969Y-2.7559
X6.2008Y-2.5591
X6.2008Y-2.6575
X6.2008Y-5.6102
X6.2008Y-5.7087
X6.2008Y-5.8071
X6.2008Y-5.8071
X6.2165Y-4.2992
X6.2165Y-4.5197
X6.248Y-3.6929
X6.248Y-4.2598
X6.2913Y-4.7111
X6.2992Y-2.5591
X6.2992Y-2.6575
X6.2992Y-3.937
X6.2992Y-5.5118
X6.2992Y-5.6102
X6.2992Y-5.7087
X6.2992Y-5.8071
X6.3071Y-4.1339
X6.3071Y-4.1969
X6.3661Y-4.5197
X6.374Y-3.878
X6.374Y-3.937
X6.3976Y-2.5591
X6.3976Y-2.6575
X6.3976Y-2.7205
X6.3976Y-3.5433
X6.3976Y-4.9213
X6.4252Y-5.2362
X6.4252Y-5.3346
X6.4252Y-5.4331
X6.4409Y-4.7111
X6.4528Y-3.3346
X6.4961Y-2.5591
X6.4961Y-2.6575
X6.4961Y-2.7559
X6.4961Y-3.311
X6.4961Y-3.4646
X6.5039Y-5.189
X6.5079Y-4.4488
X6.5079Y-4.5197
X6.5315Y-3.248
X6.5748Y-3.3858
X6.5748Y-3.4646
X6.5787Y-2.7638
X6.5787Y-3.3071
X6.5945Y-2.1654
X6.5945Y-2.2638
X6.5945Y-2.3622
X6.5945Y-4.9213
X6.6024Y-4.5079
X6.622Y-5.2362
X6.622Y-5.3346
X6.622Y-5.4331
X6.6378Y-3.5827
X6.6535Y-3.3858
X6.6535Y-3.4646
X6.6929Y-2.5591
X6.6929Y-2.9134
X6.7008Y-4.563
X6.7008Y-5.189
X6.7126Y-3.0197
X6.7126Y-3.2126
X6.7126Y-3.4921
X6.7244Y-3.7677
X6.7323Y-4.2835
X6.7913Y-2.5591
X6.7913Y-4.8228
X6.7913Y-4.9213
X6.811Y-2.9134
X6.811Y-3.3858
X6.811Y-3.4646
X6.811Y-3.5827
X6.811Y-3.9764
X6.8189Y-5.2362
X6.8189Y-5.3346
X6.8189Y-5.4331
X6.8898Y-2.5591
X6.8898Y-4.2835
X6.8937Y-3.4803
X6.8976Y-5.189
X6.9291Y-3.5827
X6.9409Y-3.5039
X6.9567Y-3.7402
X6.9685Y-3.9764
X6.9882Y-2.5591
X6.9882Y-4.8228
X6.9882Y-4.9213
X6.9961Y-4.4764
X7.0157Y-5.2362
X7.0157Y-5.3346
X7.0157Y-5.4331
X7.0866Y-3.9764
X7.0866Y-4.2835
X7.0945Y-4.4567
X7.0945Y-5.189
X7.1024Y-2.7638
X7.1417Y-4.4882
X7.1811Y-4.5354
X7.185Y-4.9213
X7.2126Y-5.2362
X7.2126Y-5.3346
X7.2126Y-5.4331
X7.2835Y-2.1654
X7.2835Y-2.2638
X7.2835Y-2.3622
X7.2835Y-4.8228
X7.2913Y-5.189
X7.3071Y-2.7638
X7.3228Y-2.9528
X7.3228Y-3.0709
X7.3228Y-3.3071
X7.3228Y-3.4252
X7.3228Y-3.622
X7.3228Y-3.7008
X7.3228Y-3.8189
X7.3819Y-2.1654
X7.3819Y-2.2638
X7.3819Y-2.3622
X7.3819Y-2.4606
X7.3819Y-4.8228
X7.4055Y-3.2638
X7.4094Y-5.2362
X7.4094Y-5.3346
X7.4094Y-5.4331
X7.4409Y-2.9528
X7.4409Y-3.0709
X7.4803Y-2.1654
X7.4803Y-2.2638
X7.4803Y-2.3622
X7.4803Y-3.3465
X7.4803Y-3.4449
X7.4803Y-3.5433
X7.4803Y-3.6417
X7.4803Y-3.7402
X7.4803Y-4.8228
X7.4882Y-5.189
X7.5591Y-2.5748
X7.5787Y-2.1654
X7.5787Y-2.2638
X7.5787Y-2.3622
X7.5787Y-4.8228
X7.5787Y-4.9213
X7.5787Y-5.0197
T2
X4.0551Y-4.2835
X4.0551Y-4.3835
X4.0551Y-4.4835
X4.0551Y-4.5835
X4.0551Y-4.6835
X4.1551Y-4.2835
X4.1551Y-4.3835
X4.1551Y-4.4835
X4.1551Y-4.5835
X4.1551Y-4.6835
X6.374Y-4.3583
T3
X6.7402Y-2.315
X6.937Y-2.315
X7.1339Y-2.315
X4.3583Y-5.6378
X4.5551Y-5.6378
X4.752Y-5.6378
X4.9488Y-5.6378
X5.1457Y-5.6378
X5.3425Y-5.6378
X5.5394Y-5.6378
X5.7362Y-5.6378
X5.9331Y-5.6378
X4.1063Y-2.9528
X4.1063Y-3.1496
X4.1063Y-3.3465
X4.1063Y-3.5433
X4.1063Y-3.7402
X4.1063Y-3.937
X5.8228Y-2.315
X6.0197Y-2.315
X6.2165Y-2.315
X6.4134Y-2.315
X5.3268Y-2.315
X5.5236Y-2.315
X7.3819Y-4.0039
X7.3819Y-4.2008
X7.3819Y-4.3976
X7.3819Y-4.5945
X6.5039Y-5.6378
X6.7008Y-5.6378
X6.8976Y-5.6378
X7.0945Y-5.6378
X7.2913Y-5.6378
X7.4882Y-5.6378
X4.1063Y-2.4567
X4.1063Y-2.6535
T4
X4.5551Y-2.7087
X4.5551Y-4.6378
X6.8386Y-2.7087
X6.8386Y-4.6378
T0
M30
