%TF.GenerationSoftware,KiCad,Pcbnew,5.1.8-db9833491~87~ubuntu18.04.1*%
%TF.CreationDate,2020-11-06T20:34:02+01:00*%
%TF.ProjectId,DAC ADC PWM IO,44414320-4144-4432-9050-574d20494f2e,rev?*%
%TF.SameCoordinates,Original*%
%TF.FileFunction,Paste,Top*%
%TF.FilePolarity,Positive*%
%FSLAX46Y46*%
G04 Gerber Fmt 4.6, Leading zero omitted, Abs format (unit mm)*
G04 Created by KiCad (PCBNEW 5.1.8-db9833491~87~ubuntu18.04.1) date 2020-11-06 20:34:02*
%MOMM*%
%LPD*%
G01*
G04 APERTURE LIST*
%ADD10R,1.600000X2.180000*%
%ADD11R,3.800000X2.000000*%
%ADD12R,1.500000X2.000000*%
%ADD13R,1.200000X0.900000*%
%ADD14R,4.500000X2.000000*%
%ADD15R,0.900000X0.600000*%
%ADD16R,0.600000X0.900000*%
%ADD17R,0.600000X1.050000*%
%ADD18R,0.900000X0.800000*%
%ADD19R,0.800000X0.900000*%
G04 APERTURE END LIST*
D10*
%TO.C,SW1*%
X179400000Y-86410000D03*
X179400000Y-95590000D03*
%TD*%
%TO.C,C6*%
G36*
G01*
X159550000Y-82749999D02*
X159550000Y-84050001D01*
G75*
G02*
X159300001Y-84300000I-249999J0D01*
G01*
X158649999Y-84300000D01*
G75*
G02*
X158400000Y-84050001I0J249999D01*
G01*
X158400000Y-82749999D01*
G75*
G02*
X158649999Y-82500000I249999J0D01*
G01*
X159300001Y-82500000D01*
G75*
G02*
X159550000Y-82749999I0J-249999D01*
G01*
G37*
G36*
G01*
X162500000Y-82749999D02*
X162500000Y-84050001D01*
G75*
G02*
X162250001Y-84300000I-249999J0D01*
G01*
X161599999Y-84300000D01*
G75*
G02*
X161350000Y-84050001I0J249999D01*
G01*
X161350000Y-82749999D01*
G75*
G02*
X161599999Y-82500000I249999J0D01*
G01*
X162250001Y-82500000D01*
G75*
G02*
X162500000Y-82749999I0J-249999D01*
G01*
G37*
%TD*%
%TO.C,C7*%
G36*
G01*
X162500000Y-79249999D02*
X162500000Y-80550001D01*
G75*
G02*
X162250001Y-80800000I-249999J0D01*
G01*
X161599999Y-80800000D01*
G75*
G02*
X161350000Y-80550001I0J249999D01*
G01*
X161350000Y-79249999D01*
G75*
G02*
X161599999Y-79000000I249999J0D01*
G01*
X162250001Y-79000000D01*
G75*
G02*
X162500000Y-79249999I0J-249999D01*
G01*
G37*
G36*
G01*
X159550000Y-79249999D02*
X159550000Y-80550001D01*
G75*
G02*
X159300001Y-80800000I-249999J0D01*
G01*
X158649999Y-80800000D01*
G75*
G02*
X158400000Y-80550001I0J249999D01*
G01*
X158400000Y-79249999D01*
G75*
G02*
X158649999Y-79000000I249999J0D01*
G01*
X159300001Y-79000000D01*
G75*
G02*
X159550000Y-79249999I0J-249999D01*
G01*
G37*
%TD*%
%TO.C,C8*%
G36*
G01*
X159550000Y-75749999D02*
X159550000Y-77050001D01*
G75*
G02*
X159300001Y-77300000I-249999J0D01*
G01*
X158649999Y-77300000D01*
G75*
G02*
X158400000Y-77050001I0J249999D01*
G01*
X158400000Y-75749999D01*
G75*
G02*
X158649999Y-75500000I249999J0D01*
G01*
X159300001Y-75500000D01*
G75*
G02*
X159550000Y-75749999I0J-249999D01*
G01*
G37*
G36*
G01*
X162500000Y-75749999D02*
X162500000Y-77050001D01*
G75*
G02*
X162250001Y-77300000I-249999J0D01*
G01*
X161599999Y-77300000D01*
G75*
G02*
X161350000Y-77050001I0J249999D01*
G01*
X161350000Y-75749999D01*
G75*
G02*
X161599999Y-75500000I249999J0D01*
G01*
X162250001Y-75500000D01*
G75*
G02*
X162500000Y-75749999I0J-249999D01*
G01*
G37*
%TD*%
%TO.C,C9*%
G36*
G01*
X163550000Y-71100000D02*
X163550000Y-72200000D01*
G75*
G02*
X163300000Y-72450000I-250000J0D01*
G01*
X161200000Y-72450000D01*
G75*
G02*
X160950000Y-72200000I0J250000D01*
G01*
X160950000Y-71100000D01*
G75*
G02*
X161200000Y-70850000I250000J0D01*
G01*
X163300000Y-70850000D01*
G75*
G02*
X163550000Y-71100000I0J-250000D01*
G01*
G37*
G36*
G01*
X159950000Y-71100000D02*
X159950000Y-72200000D01*
G75*
G02*
X159700000Y-72450000I-250000J0D01*
G01*
X157600000Y-72450000D01*
G75*
G02*
X157350000Y-72200000I0J250000D01*
G01*
X157350000Y-71100000D01*
G75*
G02*
X157600000Y-70850000I250000J0D01*
G01*
X159700000Y-70850000D01*
G75*
G02*
X159950000Y-71100000I0J-250000D01*
G01*
G37*
%TD*%
%TO.C,C11*%
G36*
G01*
X140700000Y-90200000D02*
X141800000Y-90200000D01*
G75*
G02*
X142050000Y-90450000I0J-250000D01*
G01*
X142050000Y-92150000D01*
G75*
G02*
X141800000Y-92400000I-250000J0D01*
G01*
X140700000Y-92400000D01*
G75*
G02*
X140450000Y-92150000I0J250000D01*
G01*
X140450000Y-90450000D01*
G75*
G02*
X140700000Y-90200000I250000J0D01*
G01*
G37*
G36*
G01*
X140700000Y-93200000D02*
X141800000Y-93200000D01*
G75*
G02*
X142050000Y-93450000I0J-250000D01*
G01*
X142050000Y-95150000D01*
G75*
G02*
X141800000Y-95400000I-250000J0D01*
G01*
X140700000Y-95400000D01*
G75*
G02*
X140450000Y-95150000I0J250000D01*
G01*
X140450000Y-93450000D01*
G75*
G02*
X140700000Y-93200000I250000J0D01*
G01*
G37*
%TD*%
%TO.C,C14*%
G36*
G01*
X167099999Y-92250000D02*
X168400001Y-92250000D01*
G75*
G02*
X168650000Y-92499999I0J-249999D01*
G01*
X168650000Y-93150001D01*
G75*
G02*
X168400001Y-93400000I-249999J0D01*
G01*
X167099999Y-93400000D01*
G75*
G02*
X166850000Y-93150001I0J249999D01*
G01*
X166850000Y-92499999D01*
G75*
G02*
X167099999Y-92250000I249999J0D01*
G01*
G37*
G36*
G01*
X167099999Y-95200000D02*
X168400001Y-95200000D01*
G75*
G02*
X168650000Y-95449999I0J-249999D01*
G01*
X168650000Y-96100001D01*
G75*
G02*
X168400001Y-96350000I-249999J0D01*
G01*
X167099999Y-96350000D01*
G75*
G02*
X166850000Y-96100001I0J249999D01*
G01*
X166850000Y-95449999D01*
G75*
G02*
X167099999Y-95200000I249999J0D01*
G01*
G37*
%TD*%
%TO.C,U1*%
G36*
G01*
X161550000Y-96725000D02*
X161550000Y-96875000D01*
G75*
G02*
X161475000Y-96950000I-75000J0D01*
G01*
X160150000Y-96950000D01*
G75*
G02*
X160075000Y-96875000I0J75000D01*
G01*
X160075000Y-96725000D01*
G75*
G02*
X160150000Y-96650000I75000J0D01*
G01*
X161475000Y-96650000D01*
G75*
G02*
X161550000Y-96725000I0J-75000D01*
G01*
G37*
G36*
G01*
X161550000Y-96225000D02*
X161550000Y-96375000D01*
G75*
G02*
X161475000Y-96450000I-75000J0D01*
G01*
X160150000Y-96450000D01*
G75*
G02*
X160075000Y-96375000I0J75000D01*
G01*
X160075000Y-96225000D01*
G75*
G02*
X160150000Y-96150000I75000J0D01*
G01*
X161475000Y-96150000D01*
G75*
G02*
X161550000Y-96225000I0J-75000D01*
G01*
G37*
G36*
G01*
X161550000Y-95725000D02*
X161550000Y-95875000D01*
G75*
G02*
X161475000Y-95950000I-75000J0D01*
G01*
X160150000Y-95950000D01*
G75*
G02*
X160075000Y-95875000I0J75000D01*
G01*
X160075000Y-95725000D01*
G75*
G02*
X160150000Y-95650000I75000J0D01*
G01*
X161475000Y-95650000D01*
G75*
G02*
X161550000Y-95725000I0J-75000D01*
G01*
G37*
G36*
G01*
X161550000Y-95225000D02*
X161550000Y-95375000D01*
G75*
G02*
X161475000Y-95450000I-75000J0D01*
G01*
X160150000Y-95450000D01*
G75*
G02*
X160075000Y-95375000I0J75000D01*
G01*
X160075000Y-95225000D01*
G75*
G02*
X160150000Y-95150000I75000J0D01*
G01*
X161475000Y-95150000D01*
G75*
G02*
X161550000Y-95225000I0J-75000D01*
G01*
G37*
G36*
G01*
X161550000Y-94725000D02*
X161550000Y-94875000D01*
G75*
G02*
X161475000Y-94950000I-75000J0D01*
G01*
X160150000Y-94950000D01*
G75*
G02*
X160075000Y-94875000I0J75000D01*
G01*
X160075000Y-94725000D01*
G75*
G02*
X160150000Y-94650000I75000J0D01*
G01*
X161475000Y-94650000D01*
G75*
G02*
X161550000Y-94725000I0J-75000D01*
G01*
G37*
G36*
G01*
X161550000Y-94225000D02*
X161550000Y-94375000D01*
G75*
G02*
X161475000Y-94450000I-75000J0D01*
G01*
X160150000Y-94450000D01*
G75*
G02*
X160075000Y-94375000I0J75000D01*
G01*
X160075000Y-94225000D01*
G75*
G02*
X160150000Y-94150000I75000J0D01*
G01*
X161475000Y-94150000D01*
G75*
G02*
X161550000Y-94225000I0J-75000D01*
G01*
G37*
G36*
G01*
X161550000Y-93725000D02*
X161550000Y-93875000D01*
G75*
G02*
X161475000Y-93950000I-75000J0D01*
G01*
X160150000Y-93950000D01*
G75*
G02*
X160075000Y-93875000I0J75000D01*
G01*
X160075000Y-93725000D01*
G75*
G02*
X160150000Y-93650000I75000J0D01*
G01*
X161475000Y-93650000D01*
G75*
G02*
X161550000Y-93725000I0J-75000D01*
G01*
G37*
G36*
G01*
X161550000Y-93225000D02*
X161550000Y-93375000D01*
G75*
G02*
X161475000Y-93450000I-75000J0D01*
G01*
X160150000Y-93450000D01*
G75*
G02*
X160075000Y-93375000I0J75000D01*
G01*
X160075000Y-93225000D01*
G75*
G02*
X160150000Y-93150000I75000J0D01*
G01*
X161475000Y-93150000D01*
G75*
G02*
X161550000Y-93225000I0J-75000D01*
G01*
G37*
G36*
G01*
X161550000Y-92725000D02*
X161550000Y-92875000D01*
G75*
G02*
X161475000Y-92950000I-75000J0D01*
G01*
X160150000Y-92950000D01*
G75*
G02*
X160075000Y-92875000I0J75000D01*
G01*
X160075000Y-92725000D01*
G75*
G02*
X160150000Y-92650000I75000J0D01*
G01*
X161475000Y-92650000D01*
G75*
G02*
X161550000Y-92725000I0J-75000D01*
G01*
G37*
G36*
G01*
X161550000Y-92225000D02*
X161550000Y-92375000D01*
G75*
G02*
X161475000Y-92450000I-75000J0D01*
G01*
X160150000Y-92450000D01*
G75*
G02*
X160075000Y-92375000I0J75000D01*
G01*
X160075000Y-92225000D01*
G75*
G02*
X160150000Y-92150000I75000J0D01*
G01*
X161475000Y-92150000D01*
G75*
G02*
X161550000Y-92225000I0J-75000D01*
G01*
G37*
G36*
G01*
X161550000Y-91725000D02*
X161550000Y-91875000D01*
G75*
G02*
X161475000Y-91950000I-75000J0D01*
G01*
X160150000Y-91950000D01*
G75*
G02*
X160075000Y-91875000I0J75000D01*
G01*
X160075000Y-91725000D01*
G75*
G02*
X160150000Y-91650000I75000J0D01*
G01*
X161475000Y-91650000D01*
G75*
G02*
X161550000Y-91725000I0J-75000D01*
G01*
G37*
G36*
G01*
X161550000Y-91225000D02*
X161550000Y-91375000D01*
G75*
G02*
X161475000Y-91450000I-75000J0D01*
G01*
X160150000Y-91450000D01*
G75*
G02*
X160075000Y-91375000I0J75000D01*
G01*
X160075000Y-91225000D01*
G75*
G02*
X160150000Y-91150000I75000J0D01*
G01*
X161475000Y-91150000D01*
G75*
G02*
X161550000Y-91225000I0J-75000D01*
G01*
G37*
G36*
G01*
X159550000Y-89225000D02*
X159550000Y-90550000D01*
G75*
G02*
X159475000Y-90625000I-75000J0D01*
G01*
X159325000Y-90625000D01*
G75*
G02*
X159250000Y-90550000I0J75000D01*
G01*
X159250000Y-89225000D01*
G75*
G02*
X159325000Y-89150000I75000J0D01*
G01*
X159475000Y-89150000D01*
G75*
G02*
X159550000Y-89225000I0J-75000D01*
G01*
G37*
G36*
G01*
X159050000Y-89225000D02*
X159050000Y-90550000D01*
G75*
G02*
X158975000Y-90625000I-75000J0D01*
G01*
X158825000Y-90625000D01*
G75*
G02*
X158750000Y-90550000I0J75000D01*
G01*
X158750000Y-89225000D01*
G75*
G02*
X158825000Y-89150000I75000J0D01*
G01*
X158975000Y-89150000D01*
G75*
G02*
X159050000Y-89225000I0J-75000D01*
G01*
G37*
G36*
G01*
X158550000Y-89225000D02*
X158550000Y-90550000D01*
G75*
G02*
X158475000Y-90625000I-75000J0D01*
G01*
X158325000Y-90625000D01*
G75*
G02*
X158250000Y-90550000I0J75000D01*
G01*
X158250000Y-89225000D01*
G75*
G02*
X158325000Y-89150000I75000J0D01*
G01*
X158475000Y-89150000D01*
G75*
G02*
X158550000Y-89225000I0J-75000D01*
G01*
G37*
G36*
G01*
X158050000Y-89225000D02*
X158050000Y-90550000D01*
G75*
G02*
X157975000Y-90625000I-75000J0D01*
G01*
X157825000Y-90625000D01*
G75*
G02*
X157750000Y-90550000I0J75000D01*
G01*
X157750000Y-89225000D01*
G75*
G02*
X157825000Y-89150000I75000J0D01*
G01*
X157975000Y-89150000D01*
G75*
G02*
X158050000Y-89225000I0J-75000D01*
G01*
G37*
G36*
G01*
X157550000Y-89225000D02*
X157550000Y-90550000D01*
G75*
G02*
X157475000Y-90625000I-75000J0D01*
G01*
X157325000Y-90625000D01*
G75*
G02*
X157250000Y-90550000I0J75000D01*
G01*
X157250000Y-89225000D01*
G75*
G02*
X157325000Y-89150000I75000J0D01*
G01*
X157475000Y-89150000D01*
G75*
G02*
X157550000Y-89225000I0J-75000D01*
G01*
G37*
G36*
G01*
X157050000Y-89225000D02*
X157050000Y-90550000D01*
G75*
G02*
X156975000Y-90625000I-75000J0D01*
G01*
X156825000Y-90625000D01*
G75*
G02*
X156750000Y-90550000I0J75000D01*
G01*
X156750000Y-89225000D01*
G75*
G02*
X156825000Y-89150000I75000J0D01*
G01*
X156975000Y-89150000D01*
G75*
G02*
X157050000Y-89225000I0J-75000D01*
G01*
G37*
G36*
G01*
X156550000Y-89225000D02*
X156550000Y-90550000D01*
G75*
G02*
X156475000Y-90625000I-75000J0D01*
G01*
X156325000Y-90625000D01*
G75*
G02*
X156250000Y-90550000I0J75000D01*
G01*
X156250000Y-89225000D01*
G75*
G02*
X156325000Y-89150000I75000J0D01*
G01*
X156475000Y-89150000D01*
G75*
G02*
X156550000Y-89225000I0J-75000D01*
G01*
G37*
G36*
G01*
X156050000Y-89225000D02*
X156050000Y-90550000D01*
G75*
G02*
X155975000Y-90625000I-75000J0D01*
G01*
X155825000Y-90625000D01*
G75*
G02*
X155750000Y-90550000I0J75000D01*
G01*
X155750000Y-89225000D01*
G75*
G02*
X155825000Y-89150000I75000J0D01*
G01*
X155975000Y-89150000D01*
G75*
G02*
X156050000Y-89225000I0J-75000D01*
G01*
G37*
G36*
G01*
X155550000Y-89225000D02*
X155550000Y-90550000D01*
G75*
G02*
X155475000Y-90625000I-75000J0D01*
G01*
X155325000Y-90625000D01*
G75*
G02*
X155250000Y-90550000I0J75000D01*
G01*
X155250000Y-89225000D01*
G75*
G02*
X155325000Y-89150000I75000J0D01*
G01*
X155475000Y-89150000D01*
G75*
G02*
X155550000Y-89225000I0J-75000D01*
G01*
G37*
G36*
G01*
X155050000Y-89225000D02*
X155050000Y-90550000D01*
G75*
G02*
X154975000Y-90625000I-75000J0D01*
G01*
X154825000Y-90625000D01*
G75*
G02*
X154750000Y-90550000I0J75000D01*
G01*
X154750000Y-89225000D01*
G75*
G02*
X154825000Y-89150000I75000J0D01*
G01*
X154975000Y-89150000D01*
G75*
G02*
X155050000Y-89225000I0J-75000D01*
G01*
G37*
G36*
G01*
X154550000Y-89225000D02*
X154550000Y-90550000D01*
G75*
G02*
X154475000Y-90625000I-75000J0D01*
G01*
X154325000Y-90625000D01*
G75*
G02*
X154250000Y-90550000I0J75000D01*
G01*
X154250000Y-89225000D01*
G75*
G02*
X154325000Y-89150000I75000J0D01*
G01*
X154475000Y-89150000D01*
G75*
G02*
X154550000Y-89225000I0J-75000D01*
G01*
G37*
G36*
G01*
X154050000Y-89225000D02*
X154050000Y-90550000D01*
G75*
G02*
X153975000Y-90625000I-75000J0D01*
G01*
X153825000Y-90625000D01*
G75*
G02*
X153750000Y-90550000I0J75000D01*
G01*
X153750000Y-89225000D01*
G75*
G02*
X153825000Y-89150000I75000J0D01*
G01*
X153975000Y-89150000D01*
G75*
G02*
X154050000Y-89225000I0J-75000D01*
G01*
G37*
G36*
G01*
X153225000Y-91225000D02*
X153225000Y-91375000D01*
G75*
G02*
X153150000Y-91450000I-75000J0D01*
G01*
X151825000Y-91450000D01*
G75*
G02*
X151750000Y-91375000I0J75000D01*
G01*
X151750000Y-91225000D01*
G75*
G02*
X151825000Y-91150000I75000J0D01*
G01*
X153150000Y-91150000D01*
G75*
G02*
X153225000Y-91225000I0J-75000D01*
G01*
G37*
G36*
G01*
X153225000Y-91725000D02*
X153225000Y-91875000D01*
G75*
G02*
X153150000Y-91950000I-75000J0D01*
G01*
X151825000Y-91950000D01*
G75*
G02*
X151750000Y-91875000I0J75000D01*
G01*
X151750000Y-91725000D01*
G75*
G02*
X151825000Y-91650000I75000J0D01*
G01*
X153150000Y-91650000D01*
G75*
G02*
X153225000Y-91725000I0J-75000D01*
G01*
G37*
G36*
G01*
X153225000Y-92225000D02*
X153225000Y-92375000D01*
G75*
G02*
X153150000Y-92450000I-75000J0D01*
G01*
X151825000Y-92450000D01*
G75*
G02*
X151750000Y-92375000I0J75000D01*
G01*
X151750000Y-92225000D01*
G75*
G02*
X151825000Y-92150000I75000J0D01*
G01*
X153150000Y-92150000D01*
G75*
G02*
X153225000Y-92225000I0J-75000D01*
G01*
G37*
G36*
G01*
X153225000Y-92725000D02*
X153225000Y-92875000D01*
G75*
G02*
X153150000Y-92950000I-75000J0D01*
G01*
X151825000Y-92950000D01*
G75*
G02*
X151750000Y-92875000I0J75000D01*
G01*
X151750000Y-92725000D01*
G75*
G02*
X151825000Y-92650000I75000J0D01*
G01*
X153150000Y-92650000D01*
G75*
G02*
X153225000Y-92725000I0J-75000D01*
G01*
G37*
G36*
G01*
X153225000Y-93225000D02*
X153225000Y-93375000D01*
G75*
G02*
X153150000Y-93450000I-75000J0D01*
G01*
X151825000Y-93450000D01*
G75*
G02*
X151750000Y-93375000I0J75000D01*
G01*
X151750000Y-93225000D01*
G75*
G02*
X151825000Y-93150000I75000J0D01*
G01*
X153150000Y-93150000D01*
G75*
G02*
X153225000Y-93225000I0J-75000D01*
G01*
G37*
G36*
G01*
X153225000Y-93725000D02*
X153225000Y-93875000D01*
G75*
G02*
X153150000Y-93950000I-75000J0D01*
G01*
X151825000Y-93950000D01*
G75*
G02*
X151750000Y-93875000I0J75000D01*
G01*
X151750000Y-93725000D01*
G75*
G02*
X151825000Y-93650000I75000J0D01*
G01*
X153150000Y-93650000D01*
G75*
G02*
X153225000Y-93725000I0J-75000D01*
G01*
G37*
G36*
G01*
X153225000Y-94225000D02*
X153225000Y-94375000D01*
G75*
G02*
X153150000Y-94450000I-75000J0D01*
G01*
X151825000Y-94450000D01*
G75*
G02*
X151750000Y-94375000I0J75000D01*
G01*
X151750000Y-94225000D01*
G75*
G02*
X151825000Y-94150000I75000J0D01*
G01*
X153150000Y-94150000D01*
G75*
G02*
X153225000Y-94225000I0J-75000D01*
G01*
G37*
G36*
G01*
X153225000Y-94725000D02*
X153225000Y-94875000D01*
G75*
G02*
X153150000Y-94950000I-75000J0D01*
G01*
X151825000Y-94950000D01*
G75*
G02*
X151750000Y-94875000I0J75000D01*
G01*
X151750000Y-94725000D01*
G75*
G02*
X151825000Y-94650000I75000J0D01*
G01*
X153150000Y-94650000D01*
G75*
G02*
X153225000Y-94725000I0J-75000D01*
G01*
G37*
G36*
G01*
X153225000Y-95225000D02*
X153225000Y-95375000D01*
G75*
G02*
X153150000Y-95450000I-75000J0D01*
G01*
X151825000Y-95450000D01*
G75*
G02*
X151750000Y-95375000I0J75000D01*
G01*
X151750000Y-95225000D01*
G75*
G02*
X151825000Y-95150000I75000J0D01*
G01*
X153150000Y-95150000D01*
G75*
G02*
X153225000Y-95225000I0J-75000D01*
G01*
G37*
G36*
G01*
X153225000Y-95725000D02*
X153225000Y-95875000D01*
G75*
G02*
X153150000Y-95950000I-75000J0D01*
G01*
X151825000Y-95950000D01*
G75*
G02*
X151750000Y-95875000I0J75000D01*
G01*
X151750000Y-95725000D01*
G75*
G02*
X151825000Y-95650000I75000J0D01*
G01*
X153150000Y-95650000D01*
G75*
G02*
X153225000Y-95725000I0J-75000D01*
G01*
G37*
G36*
G01*
X153225000Y-96225000D02*
X153225000Y-96375000D01*
G75*
G02*
X153150000Y-96450000I-75000J0D01*
G01*
X151825000Y-96450000D01*
G75*
G02*
X151750000Y-96375000I0J75000D01*
G01*
X151750000Y-96225000D01*
G75*
G02*
X151825000Y-96150000I75000J0D01*
G01*
X153150000Y-96150000D01*
G75*
G02*
X153225000Y-96225000I0J-75000D01*
G01*
G37*
G36*
G01*
X153225000Y-96725000D02*
X153225000Y-96875000D01*
G75*
G02*
X153150000Y-96950000I-75000J0D01*
G01*
X151825000Y-96950000D01*
G75*
G02*
X151750000Y-96875000I0J75000D01*
G01*
X151750000Y-96725000D01*
G75*
G02*
X151825000Y-96650000I75000J0D01*
G01*
X153150000Y-96650000D01*
G75*
G02*
X153225000Y-96725000I0J-75000D01*
G01*
G37*
G36*
G01*
X154050000Y-97550000D02*
X154050000Y-98875000D01*
G75*
G02*
X153975000Y-98950000I-75000J0D01*
G01*
X153825000Y-98950000D01*
G75*
G02*
X153750000Y-98875000I0J75000D01*
G01*
X153750000Y-97550000D01*
G75*
G02*
X153825000Y-97475000I75000J0D01*
G01*
X153975000Y-97475000D01*
G75*
G02*
X154050000Y-97550000I0J-75000D01*
G01*
G37*
G36*
G01*
X154550000Y-97550000D02*
X154550000Y-98875000D01*
G75*
G02*
X154475000Y-98950000I-75000J0D01*
G01*
X154325000Y-98950000D01*
G75*
G02*
X154250000Y-98875000I0J75000D01*
G01*
X154250000Y-97550000D01*
G75*
G02*
X154325000Y-97475000I75000J0D01*
G01*
X154475000Y-97475000D01*
G75*
G02*
X154550000Y-97550000I0J-75000D01*
G01*
G37*
G36*
G01*
X155050000Y-97550000D02*
X155050000Y-98875000D01*
G75*
G02*
X154975000Y-98950000I-75000J0D01*
G01*
X154825000Y-98950000D01*
G75*
G02*
X154750000Y-98875000I0J75000D01*
G01*
X154750000Y-97550000D01*
G75*
G02*
X154825000Y-97475000I75000J0D01*
G01*
X154975000Y-97475000D01*
G75*
G02*
X155050000Y-97550000I0J-75000D01*
G01*
G37*
G36*
G01*
X155550000Y-97550000D02*
X155550000Y-98875000D01*
G75*
G02*
X155475000Y-98950000I-75000J0D01*
G01*
X155325000Y-98950000D01*
G75*
G02*
X155250000Y-98875000I0J75000D01*
G01*
X155250000Y-97550000D01*
G75*
G02*
X155325000Y-97475000I75000J0D01*
G01*
X155475000Y-97475000D01*
G75*
G02*
X155550000Y-97550000I0J-75000D01*
G01*
G37*
G36*
G01*
X156050000Y-97550000D02*
X156050000Y-98875000D01*
G75*
G02*
X155975000Y-98950000I-75000J0D01*
G01*
X155825000Y-98950000D01*
G75*
G02*
X155750000Y-98875000I0J75000D01*
G01*
X155750000Y-97550000D01*
G75*
G02*
X155825000Y-97475000I75000J0D01*
G01*
X155975000Y-97475000D01*
G75*
G02*
X156050000Y-97550000I0J-75000D01*
G01*
G37*
G36*
G01*
X156550000Y-97550000D02*
X156550000Y-98875000D01*
G75*
G02*
X156475000Y-98950000I-75000J0D01*
G01*
X156325000Y-98950000D01*
G75*
G02*
X156250000Y-98875000I0J75000D01*
G01*
X156250000Y-97550000D01*
G75*
G02*
X156325000Y-97475000I75000J0D01*
G01*
X156475000Y-97475000D01*
G75*
G02*
X156550000Y-97550000I0J-75000D01*
G01*
G37*
G36*
G01*
X157050000Y-97550000D02*
X157050000Y-98875000D01*
G75*
G02*
X156975000Y-98950000I-75000J0D01*
G01*
X156825000Y-98950000D01*
G75*
G02*
X156750000Y-98875000I0J75000D01*
G01*
X156750000Y-97550000D01*
G75*
G02*
X156825000Y-97475000I75000J0D01*
G01*
X156975000Y-97475000D01*
G75*
G02*
X157050000Y-97550000I0J-75000D01*
G01*
G37*
G36*
G01*
X157550000Y-97550000D02*
X157550000Y-98875000D01*
G75*
G02*
X157475000Y-98950000I-75000J0D01*
G01*
X157325000Y-98950000D01*
G75*
G02*
X157250000Y-98875000I0J75000D01*
G01*
X157250000Y-97550000D01*
G75*
G02*
X157325000Y-97475000I75000J0D01*
G01*
X157475000Y-97475000D01*
G75*
G02*
X157550000Y-97550000I0J-75000D01*
G01*
G37*
G36*
G01*
X158050000Y-97550000D02*
X158050000Y-98875000D01*
G75*
G02*
X157975000Y-98950000I-75000J0D01*
G01*
X157825000Y-98950000D01*
G75*
G02*
X157750000Y-98875000I0J75000D01*
G01*
X157750000Y-97550000D01*
G75*
G02*
X157825000Y-97475000I75000J0D01*
G01*
X157975000Y-97475000D01*
G75*
G02*
X158050000Y-97550000I0J-75000D01*
G01*
G37*
G36*
G01*
X158550000Y-97550000D02*
X158550000Y-98875000D01*
G75*
G02*
X158475000Y-98950000I-75000J0D01*
G01*
X158325000Y-98950000D01*
G75*
G02*
X158250000Y-98875000I0J75000D01*
G01*
X158250000Y-97550000D01*
G75*
G02*
X158325000Y-97475000I75000J0D01*
G01*
X158475000Y-97475000D01*
G75*
G02*
X158550000Y-97550000I0J-75000D01*
G01*
G37*
G36*
G01*
X159050000Y-97550000D02*
X159050000Y-98875000D01*
G75*
G02*
X158975000Y-98950000I-75000J0D01*
G01*
X158825000Y-98950000D01*
G75*
G02*
X158750000Y-98875000I0J75000D01*
G01*
X158750000Y-97550000D01*
G75*
G02*
X158825000Y-97475000I75000J0D01*
G01*
X158975000Y-97475000D01*
G75*
G02*
X159050000Y-97550000I0J-75000D01*
G01*
G37*
G36*
G01*
X159550000Y-97550000D02*
X159550000Y-98875000D01*
G75*
G02*
X159475000Y-98950000I-75000J0D01*
G01*
X159325000Y-98950000D01*
G75*
G02*
X159250000Y-98875000I0J75000D01*
G01*
X159250000Y-97550000D01*
G75*
G02*
X159325000Y-97475000I75000J0D01*
G01*
X159475000Y-97475000D01*
G75*
G02*
X159550000Y-97550000I0J-75000D01*
G01*
G37*
%TD*%
D11*
%TO.C,U2*%
X141300000Y-69900000D03*
D12*
X141300000Y-76200000D03*
X143600000Y-76200000D03*
X139000000Y-76200000D03*
%TD*%
%TO.C,C2*%
G36*
G01*
X153500000Y-73900000D02*
X152400000Y-73900000D01*
G75*
G02*
X152150000Y-73650000I0J250000D01*
G01*
X152150000Y-71550000D01*
G75*
G02*
X152400000Y-71300000I250000J0D01*
G01*
X153500000Y-71300000D01*
G75*
G02*
X153750000Y-71550000I0J-250000D01*
G01*
X153750000Y-73650000D01*
G75*
G02*
X153500000Y-73900000I-250000J0D01*
G01*
G37*
G36*
G01*
X153500000Y-77500000D02*
X152400000Y-77500000D01*
G75*
G02*
X152150000Y-77250000I0J250000D01*
G01*
X152150000Y-75150000D01*
G75*
G02*
X152400000Y-74900000I250000J0D01*
G01*
X153500000Y-74900000D01*
G75*
G02*
X153750000Y-75150000I0J-250000D01*
G01*
X153750000Y-77250000D01*
G75*
G02*
X153500000Y-77500000I-250000J0D01*
G01*
G37*
%TD*%
%TO.C,C5*%
G36*
G01*
X142100000Y-80500000D02*
X142100000Y-81600000D01*
G75*
G02*
X141850000Y-81850000I-250000J0D01*
G01*
X139750000Y-81850000D01*
G75*
G02*
X139500000Y-81600000I0J250000D01*
G01*
X139500000Y-80500000D01*
G75*
G02*
X139750000Y-80250000I250000J0D01*
G01*
X141850000Y-80250000D01*
G75*
G02*
X142100000Y-80500000I0J-250000D01*
G01*
G37*
G36*
G01*
X138500000Y-80500000D02*
X138500000Y-81600000D01*
G75*
G02*
X138250000Y-81850000I-250000J0D01*
G01*
X136150000Y-81850000D01*
G75*
G02*
X135900000Y-81600000I0J250000D01*
G01*
X135900000Y-80500000D01*
G75*
G02*
X136150000Y-80250000I250000J0D01*
G01*
X138250000Y-80250000D01*
G75*
G02*
X138500000Y-80500000I0J-250000D01*
G01*
G37*
%TD*%
%TO.C,C10*%
G36*
G01*
X148750001Y-88300000D02*
X147449999Y-88300000D01*
G75*
G02*
X147200000Y-88050001I0J249999D01*
G01*
X147200000Y-87399999D01*
G75*
G02*
X147449999Y-87150000I249999J0D01*
G01*
X148750001Y-87150000D01*
G75*
G02*
X149000000Y-87399999I0J-249999D01*
G01*
X149000000Y-88050001D01*
G75*
G02*
X148750001Y-88300000I-249999J0D01*
G01*
G37*
G36*
G01*
X148750001Y-91250000D02*
X147449999Y-91250000D01*
G75*
G02*
X147200000Y-91000001I0J249999D01*
G01*
X147200000Y-90349999D01*
G75*
G02*
X147449999Y-90100000I249999J0D01*
G01*
X148750001Y-90100000D01*
G75*
G02*
X149000000Y-90349999I0J-249999D01*
G01*
X149000000Y-91000001D01*
G75*
G02*
X148750001Y-91250000I-249999J0D01*
G01*
G37*
%TD*%
%TO.C,C15*%
G36*
G01*
X170100000Y-94350000D02*
X170100000Y-93250000D01*
G75*
G02*
X170350000Y-93000000I250000J0D01*
G01*
X172050000Y-93000000D01*
G75*
G02*
X172300000Y-93250000I0J-250000D01*
G01*
X172300000Y-94350000D01*
G75*
G02*
X172050000Y-94600000I-250000J0D01*
G01*
X170350000Y-94600000D01*
G75*
G02*
X170100000Y-94350000I0J250000D01*
G01*
G37*
G36*
G01*
X173100000Y-94350000D02*
X173100000Y-93250000D01*
G75*
G02*
X173350000Y-93000000I250000J0D01*
G01*
X175050000Y-93000000D01*
G75*
G02*
X175300000Y-93250000I0J-250000D01*
G01*
X175300000Y-94350000D01*
G75*
G02*
X175050000Y-94600000I-250000J0D01*
G01*
X173350000Y-94600000D01*
G75*
G02*
X173100000Y-94350000I0J250000D01*
G01*
G37*
%TD*%
%TO.C,C16*%
G36*
G01*
X146350001Y-82700000D02*
X145049999Y-82700000D01*
G75*
G02*
X144800000Y-82450001I0J249999D01*
G01*
X144800000Y-81799999D01*
G75*
G02*
X145049999Y-81550000I249999J0D01*
G01*
X146350001Y-81550000D01*
G75*
G02*
X146600000Y-81799999I0J-249999D01*
G01*
X146600000Y-82450001D01*
G75*
G02*
X146350001Y-82700000I-249999J0D01*
G01*
G37*
G36*
G01*
X146350001Y-85650000D02*
X145049999Y-85650000D01*
G75*
G02*
X144800000Y-85400001I0J249999D01*
G01*
X144800000Y-84749999D01*
G75*
G02*
X145049999Y-84500000I249999J0D01*
G01*
X146350001Y-84500000D01*
G75*
G02*
X146600000Y-84749999I0J-249999D01*
G01*
X146600000Y-85400001D01*
G75*
G02*
X146350001Y-85650000I-249999J0D01*
G01*
G37*
%TD*%
%TO.C,C17*%
G36*
G01*
X140700000Y-87200000D02*
X141800000Y-87200000D01*
G75*
G02*
X142050000Y-87450000I0J-250000D01*
G01*
X142050000Y-89150000D01*
G75*
G02*
X141800000Y-89400000I-250000J0D01*
G01*
X140700000Y-89400000D01*
G75*
G02*
X140450000Y-89150000I0J250000D01*
G01*
X140450000Y-87450000D01*
G75*
G02*
X140700000Y-87200000I250000J0D01*
G01*
G37*
G36*
G01*
X140700000Y-84200000D02*
X141800000Y-84200000D01*
G75*
G02*
X142050000Y-84450000I0J-250000D01*
G01*
X142050000Y-86150000D01*
G75*
G02*
X141800000Y-86400000I-250000J0D01*
G01*
X140700000Y-86400000D01*
G75*
G02*
X140450000Y-86150000I0J250000D01*
G01*
X140450000Y-84450000D01*
G75*
G02*
X140700000Y-84200000I250000J0D01*
G01*
G37*
%TD*%
D13*
%TO.C,D1*%
X147800000Y-76200000D03*
X147800000Y-72900000D03*
%TD*%
%TO.C,C1*%
G36*
G01*
X167049999Y-100100000D02*
X168350001Y-100100000D01*
G75*
G02*
X168600000Y-100349999I0J-249999D01*
G01*
X168600000Y-101000001D01*
G75*
G02*
X168350001Y-101250000I-249999J0D01*
G01*
X167049999Y-101250000D01*
G75*
G02*
X166800000Y-101000001I0J249999D01*
G01*
X166800000Y-100349999D01*
G75*
G02*
X167049999Y-100100000I249999J0D01*
G01*
G37*
G36*
G01*
X167049999Y-97150000D02*
X168350001Y-97150000D01*
G75*
G02*
X168600000Y-97399999I0J-249999D01*
G01*
X168600000Y-98050001D01*
G75*
G02*
X168350001Y-98300000I-249999J0D01*
G01*
X167049999Y-98300000D01*
G75*
G02*
X166800000Y-98050001I0J249999D01*
G01*
X166800000Y-97399999D01*
G75*
G02*
X167049999Y-97150000I249999J0D01*
G01*
G37*
%TD*%
%TO.C,C3*%
G36*
G01*
X167450001Y-107775000D02*
X166149999Y-107775000D01*
G75*
G02*
X165900000Y-107525001I0J249999D01*
G01*
X165900000Y-106874999D01*
G75*
G02*
X166149999Y-106625000I249999J0D01*
G01*
X167450001Y-106625000D01*
G75*
G02*
X167700000Y-106874999I0J-249999D01*
G01*
X167700000Y-107525001D01*
G75*
G02*
X167450001Y-107775000I-249999J0D01*
G01*
G37*
G36*
G01*
X167450001Y-104825000D02*
X166149999Y-104825000D01*
G75*
G02*
X165900000Y-104575001I0J249999D01*
G01*
X165900000Y-103924999D01*
G75*
G02*
X166149999Y-103675000I249999J0D01*
G01*
X167450001Y-103675000D01*
G75*
G02*
X167700000Y-103924999I0J-249999D01*
G01*
X167700000Y-104575001D01*
G75*
G02*
X167450001Y-104825000I-249999J0D01*
G01*
G37*
%TD*%
%TO.C,C4*%
G36*
G01*
X179450000Y-97849999D02*
X179450000Y-99150001D01*
G75*
G02*
X179200001Y-99400000I-249999J0D01*
G01*
X178549999Y-99400000D01*
G75*
G02*
X178300000Y-99150001I0J249999D01*
G01*
X178300000Y-97849999D01*
G75*
G02*
X178549999Y-97600000I249999J0D01*
G01*
X179200001Y-97600000D01*
G75*
G02*
X179450000Y-97849999I0J-249999D01*
G01*
G37*
G36*
G01*
X176500000Y-97849999D02*
X176500000Y-99150001D01*
G75*
G02*
X176250001Y-99400000I-249999J0D01*
G01*
X175599999Y-99400000D01*
G75*
G02*
X175350000Y-99150001I0J249999D01*
G01*
X175350000Y-97849999D01*
G75*
G02*
X175599999Y-97600000I249999J0D01*
G01*
X176250001Y-97600000D01*
G75*
G02*
X176500000Y-97849999I0J-249999D01*
G01*
G37*
%TD*%
%TO.C,R1*%
G36*
G01*
X171600000Y-97874999D02*
X171600000Y-99125001D01*
G75*
G02*
X171350001Y-99375000I-249999J0D01*
G01*
X170724999Y-99375000D01*
G75*
G02*
X170475000Y-99125001I0J249999D01*
G01*
X170475000Y-97874999D01*
G75*
G02*
X170724999Y-97625000I249999J0D01*
G01*
X171350001Y-97625000D01*
G75*
G02*
X171600000Y-97874999I0J-249999D01*
G01*
G37*
G36*
G01*
X174525000Y-97874999D02*
X174525000Y-99125001D01*
G75*
G02*
X174275001Y-99375000I-249999J0D01*
G01*
X173649999Y-99375000D01*
G75*
G02*
X173400000Y-99125001I0J249999D01*
G01*
X173400000Y-97874999D01*
G75*
G02*
X173649999Y-97625000I249999J0D01*
G01*
X174275001Y-97625000D01*
G75*
G02*
X174525000Y-97874999I0J-249999D01*
G01*
G37*
%TD*%
%TO.C,R2*%
G36*
G01*
X157674999Y-102575000D02*
X158925001Y-102575000D01*
G75*
G02*
X159175000Y-102824999I0J-249999D01*
G01*
X159175000Y-103450001D01*
G75*
G02*
X158925001Y-103700000I-249999J0D01*
G01*
X157674999Y-103700000D01*
G75*
G02*
X157425000Y-103450001I0J249999D01*
G01*
X157425000Y-102824999D01*
G75*
G02*
X157674999Y-102575000I249999J0D01*
G01*
G37*
G36*
G01*
X157674999Y-105500000D02*
X158925001Y-105500000D01*
G75*
G02*
X159175000Y-105749999I0J-249999D01*
G01*
X159175000Y-106375001D01*
G75*
G02*
X158925001Y-106625000I-249999J0D01*
G01*
X157674999Y-106625000D01*
G75*
G02*
X157425000Y-106375001I0J249999D01*
G01*
X157425000Y-105749999D01*
G75*
G02*
X157674999Y-105500000I249999J0D01*
G01*
G37*
%TD*%
D14*
%TO.C,Y1*%
X171250000Y-105400000D03*
X179750000Y-105400000D03*
%TD*%
D13*
%TO.C,D6*%
X167100000Y-65750000D03*
X167100000Y-69050000D03*
%TD*%
%TO.C,D7*%
X180400000Y-69050000D03*
X180400000Y-65750000D03*
%TD*%
%TO.C,D8*%
X185600000Y-65750000D03*
X185600000Y-69050000D03*
%TD*%
%TO.C,F1*%
G36*
G01*
X180275000Y-76575000D02*
X180275000Y-76025000D01*
G75*
G02*
X180475000Y-75825000I200000J0D01*
G01*
X180875000Y-75825000D01*
G75*
G02*
X181075000Y-76025000I0J-200000D01*
G01*
X181075000Y-76575000D01*
G75*
G02*
X180875000Y-76775000I-200000J0D01*
G01*
X180475000Y-76775000D01*
G75*
G02*
X180275000Y-76575000I0J200000D01*
G01*
G37*
G36*
G01*
X181925000Y-76575000D02*
X181925000Y-76025000D01*
G75*
G02*
X182125000Y-75825000I200000J0D01*
G01*
X182525000Y-75825000D01*
G75*
G02*
X182725000Y-76025000I0J-200000D01*
G01*
X182725000Y-76575000D01*
G75*
G02*
X182525000Y-76775000I-200000J0D01*
G01*
X182125000Y-76775000D01*
G75*
G02*
X181925000Y-76575000I0J200000D01*
G01*
G37*
%TD*%
%TO.C,F2*%
G36*
G01*
X188225000Y-92475000D02*
X188775000Y-92475000D01*
G75*
G02*
X188975000Y-92675000I0J-200000D01*
G01*
X188975000Y-93075000D01*
G75*
G02*
X188775000Y-93275000I-200000J0D01*
G01*
X188225000Y-93275000D01*
G75*
G02*
X188025000Y-93075000I0J200000D01*
G01*
X188025000Y-92675000D01*
G75*
G02*
X188225000Y-92475000I200000J0D01*
G01*
G37*
G36*
G01*
X188225000Y-94125000D02*
X188775000Y-94125000D01*
G75*
G02*
X188975000Y-94325000I0J-200000D01*
G01*
X188975000Y-94725000D01*
G75*
G02*
X188775000Y-94925000I-200000J0D01*
G01*
X188225000Y-94925000D01*
G75*
G02*
X188025000Y-94725000I0J200000D01*
G01*
X188025000Y-94325000D01*
G75*
G02*
X188225000Y-94125000I200000J0D01*
G01*
G37*
%TD*%
%TO.C,F3*%
G36*
G01*
X181925000Y-81475000D02*
X181925000Y-80925000D01*
G75*
G02*
X182125000Y-80725000I200000J0D01*
G01*
X182525000Y-80725000D01*
G75*
G02*
X182725000Y-80925000I0J-200000D01*
G01*
X182725000Y-81475000D01*
G75*
G02*
X182525000Y-81675000I-200000J0D01*
G01*
X182125000Y-81675000D01*
G75*
G02*
X181925000Y-81475000I0J200000D01*
G01*
G37*
G36*
G01*
X180275000Y-81475000D02*
X180275000Y-80925000D01*
G75*
G02*
X180475000Y-80725000I200000J0D01*
G01*
X180875000Y-80725000D01*
G75*
G02*
X181075000Y-80925000I0J-200000D01*
G01*
X181075000Y-81475000D01*
G75*
G02*
X180875000Y-81675000I-200000J0D01*
G01*
X180475000Y-81675000D01*
G75*
G02*
X180275000Y-81475000I0J200000D01*
G01*
G37*
%TD*%
%TO.C,F4*%
G36*
G01*
X192125000Y-76625000D02*
X192675000Y-76625000D01*
G75*
G02*
X192875000Y-76825000I0J-200000D01*
G01*
X192875000Y-77225000D01*
G75*
G02*
X192675000Y-77425000I-200000J0D01*
G01*
X192125000Y-77425000D01*
G75*
G02*
X191925000Y-77225000I0J200000D01*
G01*
X191925000Y-76825000D01*
G75*
G02*
X192125000Y-76625000I200000J0D01*
G01*
G37*
G36*
G01*
X192125000Y-74975000D02*
X192675000Y-74975000D01*
G75*
G02*
X192875000Y-75175000I0J-200000D01*
G01*
X192875000Y-75575000D01*
G75*
G02*
X192675000Y-75775000I-200000J0D01*
G01*
X192125000Y-75775000D01*
G75*
G02*
X191925000Y-75575000I0J200000D01*
G01*
X191925000Y-75175000D01*
G75*
G02*
X192125000Y-74975000I200000J0D01*
G01*
G37*
%TD*%
%TO.C,R3*%
G36*
G01*
X177474999Y-75875000D02*
X178725001Y-75875000D01*
G75*
G02*
X178975000Y-76124999I0J-249999D01*
G01*
X178975000Y-76750001D01*
G75*
G02*
X178725001Y-77000000I-249999J0D01*
G01*
X177474999Y-77000000D01*
G75*
G02*
X177225000Y-76750001I0J249999D01*
G01*
X177225000Y-76124999D01*
G75*
G02*
X177474999Y-75875000I249999J0D01*
G01*
G37*
G36*
G01*
X177474999Y-78800000D02*
X178725001Y-78800000D01*
G75*
G02*
X178975000Y-79049999I0J-249999D01*
G01*
X178975000Y-79675001D01*
G75*
G02*
X178725001Y-79925000I-249999J0D01*
G01*
X177474999Y-79925000D01*
G75*
G02*
X177225000Y-79675001I0J249999D01*
G01*
X177225000Y-79049999D01*
G75*
G02*
X177474999Y-78800000I249999J0D01*
G01*
G37*
%TD*%
%TO.C,R4*%
G36*
G01*
X188925000Y-89674999D02*
X188925000Y-90925001D01*
G75*
G02*
X188675001Y-91175000I-249999J0D01*
G01*
X188049999Y-91175000D01*
G75*
G02*
X187800000Y-90925001I0J249999D01*
G01*
X187800000Y-89674999D01*
G75*
G02*
X188049999Y-89425000I249999J0D01*
G01*
X188675001Y-89425000D01*
G75*
G02*
X188925000Y-89674999I0J-249999D01*
G01*
G37*
G36*
G01*
X186000000Y-89674999D02*
X186000000Y-90925001D01*
G75*
G02*
X185750001Y-91175000I-249999J0D01*
G01*
X185124999Y-91175000D01*
G75*
G02*
X184875000Y-90925001I0J249999D01*
G01*
X184875000Y-89674999D01*
G75*
G02*
X185124999Y-89425000I249999J0D01*
G01*
X185750001Y-89425000D01*
G75*
G02*
X186000000Y-89674999I0J-249999D01*
G01*
G37*
%TD*%
%TO.C,R5*%
G36*
G01*
X172400000Y-76074999D02*
X172400000Y-77325001D01*
G75*
G02*
X172150001Y-77575000I-249999J0D01*
G01*
X171524999Y-77575000D01*
G75*
G02*
X171275000Y-77325001I0J249999D01*
G01*
X171275000Y-76074999D01*
G75*
G02*
X171524999Y-75825000I249999J0D01*
G01*
X172150001Y-75825000D01*
G75*
G02*
X172400000Y-76074999I0J-249999D01*
G01*
G37*
G36*
G01*
X175325000Y-76074999D02*
X175325000Y-77325001D01*
G75*
G02*
X175075001Y-77575000I-249999J0D01*
G01*
X174449999Y-77575000D01*
G75*
G02*
X174200000Y-77325001I0J249999D01*
G01*
X174200000Y-76074999D01*
G75*
G02*
X174449999Y-75825000I249999J0D01*
G01*
X175075001Y-75825000D01*
G75*
G02*
X175325000Y-76074999I0J-249999D01*
G01*
G37*
%TD*%
%TO.C,R6*%
G36*
G01*
X188725001Y-84800000D02*
X187474999Y-84800000D01*
G75*
G02*
X187225000Y-84550001I0J249999D01*
G01*
X187225000Y-83924999D01*
G75*
G02*
X187474999Y-83675000I249999J0D01*
G01*
X188725001Y-83675000D01*
G75*
G02*
X188975000Y-83924999I0J-249999D01*
G01*
X188975000Y-84550001D01*
G75*
G02*
X188725001Y-84800000I-249999J0D01*
G01*
G37*
G36*
G01*
X188725001Y-87725000D02*
X187474999Y-87725000D01*
G75*
G02*
X187225000Y-87475001I0J249999D01*
G01*
X187225000Y-86849999D01*
G75*
G02*
X187474999Y-86600000I249999J0D01*
G01*
X188725001Y-86600000D01*
G75*
G02*
X188975000Y-86849999I0J-249999D01*
G01*
X188975000Y-87475001D01*
G75*
G02*
X188725001Y-87725000I-249999J0D01*
G01*
G37*
%TD*%
%TO.C,R7*%
G36*
G01*
X177474999Y-80775000D02*
X178725001Y-80775000D01*
G75*
G02*
X178975000Y-81024999I0J-249999D01*
G01*
X178975000Y-81650001D01*
G75*
G02*
X178725001Y-81900000I-249999J0D01*
G01*
X177474999Y-81900000D01*
G75*
G02*
X177225000Y-81650001I0J249999D01*
G01*
X177225000Y-81024999D01*
G75*
G02*
X177474999Y-80775000I249999J0D01*
G01*
G37*
G36*
G01*
X177474999Y-83700000D02*
X178725001Y-83700000D01*
G75*
G02*
X178975000Y-83949999I0J-249999D01*
G01*
X178975000Y-84575001D01*
G75*
G02*
X178725001Y-84825000I-249999J0D01*
G01*
X177474999Y-84825000D01*
G75*
G02*
X177225000Y-84575001I0J249999D01*
G01*
X177225000Y-83949999D01*
G75*
G02*
X177474999Y-83700000I249999J0D01*
G01*
G37*
%TD*%
%TO.C,R8*%
G36*
G01*
X192825000Y-72174999D02*
X192825000Y-73425001D01*
G75*
G02*
X192575001Y-73675000I-249999J0D01*
G01*
X191949999Y-73675000D01*
G75*
G02*
X191700000Y-73425001I0J249999D01*
G01*
X191700000Y-72174999D01*
G75*
G02*
X191949999Y-71925000I249999J0D01*
G01*
X192575001Y-71925000D01*
G75*
G02*
X192825000Y-72174999I0J-249999D01*
G01*
G37*
G36*
G01*
X189900000Y-72174999D02*
X189900000Y-73425001D01*
G75*
G02*
X189650001Y-73675000I-249999J0D01*
G01*
X189024999Y-73675000D01*
G75*
G02*
X188775000Y-73425001I0J249999D01*
G01*
X188775000Y-72174999D01*
G75*
G02*
X189024999Y-71925000I249999J0D01*
G01*
X189650001Y-71925000D01*
G75*
G02*
X189900000Y-72174999I0J-249999D01*
G01*
G37*
%TD*%
%TO.C,R9*%
G36*
G01*
X172400000Y-80974999D02*
X172400000Y-82225001D01*
G75*
G02*
X172150001Y-82475000I-249999J0D01*
G01*
X171524999Y-82475000D01*
G75*
G02*
X171275000Y-82225001I0J249999D01*
G01*
X171275000Y-80974999D01*
G75*
G02*
X171524999Y-80725000I249999J0D01*
G01*
X172150001Y-80725000D01*
G75*
G02*
X172400000Y-80974999I0J-249999D01*
G01*
G37*
G36*
G01*
X175325000Y-80974999D02*
X175325000Y-82225001D01*
G75*
G02*
X175075001Y-82475000I-249999J0D01*
G01*
X174449999Y-82475000D01*
G75*
G02*
X174200000Y-82225001I0J249999D01*
G01*
X174200000Y-80974999D01*
G75*
G02*
X174449999Y-80725000I249999J0D01*
G01*
X175075001Y-80725000D01*
G75*
G02*
X175325000Y-80974999I0J-249999D01*
G01*
G37*
%TD*%
%TO.C,R10*%
G36*
G01*
X192625001Y-67300000D02*
X191374999Y-67300000D01*
G75*
G02*
X191125000Y-67050001I0J249999D01*
G01*
X191125000Y-66424999D01*
G75*
G02*
X191374999Y-66175000I249999J0D01*
G01*
X192625001Y-66175000D01*
G75*
G02*
X192875000Y-66424999I0J-249999D01*
G01*
X192875000Y-67050001D01*
G75*
G02*
X192625001Y-67300000I-249999J0D01*
G01*
G37*
G36*
G01*
X192625001Y-70225000D02*
X191374999Y-70225000D01*
G75*
G02*
X191125000Y-69975001I0J249999D01*
G01*
X191125000Y-69349999D01*
G75*
G02*
X191374999Y-69100000I249999J0D01*
G01*
X192625001Y-69100000D01*
G75*
G02*
X192875000Y-69349999I0J-249999D01*
G01*
X192875000Y-69975001D01*
G75*
G02*
X192625001Y-70225000I-249999J0D01*
G01*
G37*
%TD*%
%TO.C,F5*%
G36*
G01*
X112075000Y-109725000D02*
X112075000Y-110275000D01*
G75*
G02*
X111875000Y-110475000I-200000J0D01*
G01*
X111475000Y-110475000D01*
G75*
G02*
X111275000Y-110275000I0J200000D01*
G01*
X111275000Y-109725000D01*
G75*
G02*
X111475000Y-109525000I200000J0D01*
G01*
X111875000Y-109525000D01*
G75*
G02*
X112075000Y-109725000I0J-200000D01*
G01*
G37*
G36*
G01*
X113725000Y-109725000D02*
X113725000Y-110275000D01*
G75*
G02*
X113525000Y-110475000I-200000J0D01*
G01*
X113125000Y-110475000D01*
G75*
G02*
X112925000Y-110275000I0J200000D01*
G01*
X112925000Y-109725000D01*
G75*
G02*
X113125000Y-109525000I200000J0D01*
G01*
X113525000Y-109525000D01*
G75*
G02*
X113725000Y-109725000I0J-200000D01*
G01*
G37*
%TD*%
%TO.C,F6*%
G36*
G01*
X113725000Y-104725000D02*
X113725000Y-105275000D01*
G75*
G02*
X113525000Y-105475000I-200000J0D01*
G01*
X113125000Y-105475000D01*
G75*
G02*
X112925000Y-105275000I0J200000D01*
G01*
X112925000Y-104725000D01*
G75*
G02*
X113125000Y-104525000I200000J0D01*
G01*
X113525000Y-104525000D01*
G75*
G02*
X113725000Y-104725000I0J-200000D01*
G01*
G37*
G36*
G01*
X112075000Y-104725000D02*
X112075000Y-105275000D01*
G75*
G02*
X111875000Y-105475000I-200000J0D01*
G01*
X111475000Y-105475000D01*
G75*
G02*
X111275000Y-105275000I0J200000D01*
G01*
X111275000Y-104725000D01*
G75*
G02*
X111475000Y-104525000I200000J0D01*
G01*
X111875000Y-104525000D01*
G75*
G02*
X112075000Y-104725000I0J-200000D01*
G01*
G37*
%TD*%
%TO.C,F7*%
G36*
G01*
X112075000Y-79725000D02*
X112075000Y-80275000D01*
G75*
G02*
X111875000Y-80475000I-200000J0D01*
G01*
X111475000Y-80475000D01*
G75*
G02*
X111275000Y-80275000I0J200000D01*
G01*
X111275000Y-79725000D01*
G75*
G02*
X111475000Y-79525000I200000J0D01*
G01*
X111875000Y-79525000D01*
G75*
G02*
X112075000Y-79725000I0J-200000D01*
G01*
G37*
G36*
G01*
X113725000Y-79725000D02*
X113725000Y-80275000D01*
G75*
G02*
X113525000Y-80475000I-200000J0D01*
G01*
X113125000Y-80475000D01*
G75*
G02*
X112925000Y-80275000I0J200000D01*
G01*
X112925000Y-79725000D01*
G75*
G02*
X113125000Y-79525000I200000J0D01*
G01*
X113525000Y-79525000D01*
G75*
G02*
X113725000Y-79725000I0J-200000D01*
G01*
G37*
%TD*%
%TO.C,F8*%
G36*
G01*
X111875000Y-74625000D02*
X111875000Y-75175000D01*
G75*
G02*
X111675000Y-75375000I-200000J0D01*
G01*
X111275000Y-75375000D01*
G75*
G02*
X111075000Y-75175000I0J200000D01*
G01*
X111075000Y-74625000D01*
G75*
G02*
X111275000Y-74425000I200000J0D01*
G01*
X111675000Y-74425000D01*
G75*
G02*
X111875000Y-74625000I0J-200000D01*
G01*
G37*
G36*
G01*
X113525000Y-74625000D02*
X113525000Y-75175000D01*
G75*
G02*
X113325000Y-75375000I-200000J0D01*
G01*
X112925000Y-75375000D01*
G75*
G02*
X112725000Y-75175000I0J200000D01*
G01*
X112725000Y-74625000D01*
G75*
G02*
X112925000Y-74425000I200000J0D01*
G01*
X113325000Y-74425000D01*
G75*
G02*
X113525000Y-74625000I0J-200000D01*
G01*
G37*
%TD*%
%TO.C,F9*%
G36*
G01*
X112075000Y-99725000D02*
X112075000Y-100275000D01*
G75*
G02*
X111875000Y-100475000I-200000J0D01*
G01*
X111475000Y-100475000D01*
G75*
G02*
X111275000Y-100275000I0J200000D01*
G01*
X111275000Y-99725000D01*
G75*
G02*
X111475000Y-99525000I200000J0D01*
G01*
X111875000Y-99525000D01*
G75*
G02*
X112075000Y-99725000I0J-200000D01*
G01*
G37*
G36*
G01*
X113725000Y-99725000D02*
X113725000Y-100275000D01*
G75*
G02*
X113525000Y-100475000I-200000J0D01*
G01*
X113125000Y-100475000D01*
G75*
G02*
X112925000Y-100275000I0J200000D01*
G01*
X112925000Y-99725000D01*
G75*
G02*
X113125000Y-99525000I200000J0D01*
G01*
X113525000Y-99525000D01*
G75*
G02*
X113725000Y-99725000I0J-200000D01*
G01*
G37*
%TD*%
%TO.C,F10*%
G36*
G01*
X113725000Y-94725000D02*
X113725000Y-95275000D01*
G75*
G02*
X113525000Y-95475000I-200000J0D01*
G01*
X113125000Y-95475000D01*
G75*
G02*
X112925000Y-95275000I0J200000D01*
G01*
X112925000Y-94725000D01*
G75*
G02*
X113125000Y-94525000I200000J0D01*
G01*
X113525000Y-94525000D01*
G75*
G02*
X113725000Y-94725000I0J-200000D01*
G01*
G37*
G36*
G01*
X112075000Y-94725000D02*
X112075000Y-95275000D01*
G75*
G02*
X111875000Y-95475000I-200000J0D01*
G01*
X111475000Y-95475000D01*
G75*
G02*
X111275000Y-95275000I0J200000D01*
G01*
X111275000Y-94725000D01*
G75*
G02*
X111475000Y-94525000I200000J0D01*
G01*
X111875000Y-94525000D01*
G75*
G02*
X112075000Y-94725000I0J-200000D01*
G01*
G37*
%TD*%
%TO.C,F11*%
G36*
G01*
X113725000Y-89725000D02*
X113725000Y-90275000D01*
G75*
G02*
X113525000Y-90475000I-200000J0D01*
G01*
X113125000Y-90475000D01*
G75*
G02*
X112925000Y-90275000I0J200000D01*
G01*
X112925000Y-89725000D01*
G75*
G02*
X113125000Y-89525000I200000J0D01*
G01*
X113525000Y-89525000D01*
G75*
G02*
X113725000Y-89725000I0J-200000D01*
G01*
G37*
G36*
G01*
X112075000Y-89725000D02*
X112075000Y-90275000D01*
G75*
G02*
X111875000Y-90475000I-200000J0D01*
G01*
X111475000Y-90475000D01*
G75*
G02*
X111275000Y-90275000I0J200000D01*
G01*
X111275000Y-89725000D01*
G75*
G02*
X111475000Y-89525000I200000J0D01*
G01*
X111875000Y-89525000D01*
G75*
G02*
X112075000Y-89725000I0J-200000D01*
G01*
G37*
%TD*%
%TO.C,F12*%
G36*
G01*
X113725000Y-84725000D02*
X113725000Y-85275000D01*
G75*
G02*
X113525000Y-85475000I-200000J0D01*
G01*
X113125000Y-85475000D01*
G75*
G02*
X112925000Y-85275000I0J200000D01*
G01*
X112925000Y-84725000D01*
G75*
G02*
X113125000Y-84525000I200000J0D01*
G01*
X113525000Y-84525000D01*
G75*
G02*
X113725000Y-84725000I0J-200000D01*
G01*
G37*
G36*
G01*
X112075000Y-84725000D02*
X112075000Y-85275000D01*
G75*
G02*
X111875000Y-85475000I-200000J0D01*
G01*
X111475000Y-85475000D01*
G75*
G02*
X111275000Y-85275000I0J200000D01*
G01*
X111275000Y-84725000D01*
G75*
G02*
X111475000Y-84525000I200000J0D01*
G01*
X111875000Y-84525000D01*
G75*
G02*
X112075000Y-84725000I0J-200000D01*
G01*
G37*
%TD*%
%TO.C,R11*%
G36*
G01*
X190825001Y-136625000D02*
X189574999Y-136625000D01*
G75*
G02*
X189325000Y-136375001I0J249999D01*
G01*
X189325000Y-135749999D01*
G75*
G02*
X189574999Y-135500000I249999J0D01*
G01*
X190825001Y-135500000D01*
G75*
G02*
X191075000Y-135749999I0J-249999D01*
G01*
X191075000Y-136375001D01*
G75*
G02*
X190825001Y-136625000I-249999J0D01*
G01*
G37*
G36*
G01*
X190825001Y-133700000D02*
X189574999Y-133700000D01*
G75*
G02*
X189325000Y-133450001I0J249999D01*
G01*
X189325000Y-132824999D01*
G75*
G02*
X189574999Y-132575000I249999J0D01*
G01*
X190825001Y-132575000D01*
G75*
G02*
X191075000Y-132824999I0J-249999D01*
G01*
X191075000Y-133450001D01*
G75*
G02*
X190825001Y-133700000I-249999J0D01*
G01*
G37*
%TD*%
%TO.C,R12*%
G36*
G01*
X185825001Y-136625000D02*
X184574999Y-136625000D01*
G75*
G02*
X184325000Y-136375001I0J249999D01*
G01*
X184325000Y-135749999D01*
G75*
G02*
X184574999Y-135500000I249999J0D01*
G01*
X185825001Y-135500000D01*
G75*
G02*
X186075000Y-135749999I0J-249999D01*
G01*
X186075000Y-136375001D01*
G75*
G02*
X185825001Y-136625000I-249999J0D01*
G01*
G37*
G36*
G01*
X185825001Y-133700000D02*
X184574999Y-133700000D01*
G75*
G02*
X184325000Y-133450001I0J249999D01*
G01*
X184325000Y-132824999D01*
G75*
G02*
X184574999Y-132575000I249999J0D01*
G01*
X185825001Y-132575000D01*
G75*
G02*
X186075000Y-132824999I0J-249999D01*
G01*
X186075000Y-133450001D01*
G75*
G02*
X185825001Y-133700000I-249999J0D01*
G01*
G37*
%TD*%
%TO.C,R13*%
G36*
G01*
X180825001Y-133700000D02*
X179574999Y-133700000D01*
G75*
G02*
X179325000Y-133450001I0J249999D01*
G01*
X179325000Y-132824999D01*
G75*
G02*
X179574999Y-132575000I249999J0D01*
G01*
X180825001Y-132575000D01*
G75*
G02*
X181075000Y-132824999I0J-249999D01*
G01*
X181075000Y-133450001D01*
G75*
G02*
X180825001Y-133700000I-249999J0D01*
G01*
G37*
G36*
G01*
X180825001Y-136625000D02*
X179574999Y-136625000D01*
G75*
G02*
X179325000Y-136375001I0J249999D01*
G01*
X179325000Y-135749999D01*
G75*
G02*
X179574999Y-135500000I249999J0D01*
G01*
X180825001Y-135500000D01*
G75*
G02*
X181075000Y-135749999I0J-249999D01*
G01*
X181075000Y-136375001D01*
G75*
G02*
X180825001Y-136625000I-249999J0D01*
G01*
G37*
%TD*%
%TO.C,R14*%
G36*
G01*
X175825001Y-136625000D02*
X174574999Y-136625000D01*
G75*
G02*
X174325000Y-136375001I0J249999D01*
G01*
X174325000Y-135749999D01*
G75*
G02*
X174574999Y-135500000I249999J0D01*
G01*
X175825001Y-135500000D01*
G75*
G02*
X176075000Y-135749999I0J-249999D01*
G01*
X176075000Y-136375001D01*
G75*
G02*
X175825001Y-136625000I-249999J0D01*
G01*
G37*
G36*
G01*
X175825001Y-133700000D02*
X174574999Y-133700000D01*
G75*
G02*
X174325000Y-133450001I0J249999D01*
G01*
X174325000Y-132824999D01*
G75*
G02*
X174574999Y-132575000I249999J0D01*
G01*
X175825001Y-132575000D01*
G75*
G02*
X176075000Y-132824999I0J-249999D01*
G01*
X176075000Y-133450001D01*
G75*
G02*
X175825001Y-133700000I-249999J0D01*
G01*
G37*
%TD*%
%TO.C,R15*%
G36*
G01*
X170825001Y-133700000D02*
X169574999Y-133700000D01*
G75*
G02*
X169325000Y-133450001I0J249999D01*
G01*
X169325000Y-132824999D01*
G75*
G02*
X169574999Y-132575000I249999J0D01*
G01*
X170825001Y-132575000D01*
G75*
G02*
X171075000Y-132824999I0J-249999D01*
G01*
X171075000Y-133450001D01*
G75*
G02*
X170825001Y-133700000I-249999J0D01*
G01*
G37*
G36*
G01*
X170825001Y-136625000D02*
X169574999Y-136625000D01*
G75*
G02*
X169325000Y-136375001I0J249999D01*
G01*
X169325000Y-135749999D01*
G75*
G02*
X169574999Y-135500000I249999J0D01*
G01*
X170825001Y-135500000D01*
G75*
G02*
X171075000Y-135749999I0J-249999D01*
G01*
X171075000Y-136375001D01*
G75*
G02*
X170825001Y-136625000I-249999J0D01*
G01*
G37*
%TD*%
%TO.C,R16*%
G36*
G01*
X165825001Y-136625000D02*
X164574999Y-136625000D01*
G75*
G02*
X164325000Y-136375001I0J249999D01*
G01*
X164325000Y-135749999D01*
G75*
G02*
X164574999Y-135500000I249999J0D01*
G01*
X165825001Y-135500000D01*
G75*
G02*
X166075000Y-135749999I0J-249999D01*
G01*
X166075000Y-136375001D01*
G75*
G02*
X165825001Y-136625000I-249999J0D01*
G01*
G37*
G36*
G01*
X165825001Y-133700000D02*
X164574999Y-133700000D01*
G75*
G02*
X164325000Y-133450001I0J249999D01*
G01*
X164325000Y-132824999D01*
G75*
G02*
X164574999Y-132575000I249999J0D01*
G01*
X165825001Y-132575000D01*
G75*
G02*
X166075000Y-132824999I0J-249999D01*
G01*
X166075000Y-133450001D01*
G75*
G02*
X165825001Y-133700000I-249999J0D01*
G01*
G37*
%TD*%
%TO.C,R17*%
G36*
G01*
X115874999Y-112300000D02*
X117125001Y-112300000D01*
G75*
G02*
X117375000Y-112549999I0J-249999D01*
G01*
X117375000Y-113175001D01*
G75*
G02*
X117125001Y-113425000I-249999J0D01*
G01*
X115874999Y-113425000D01*
G75*
G02*
X115625000Y-113175001I0J249999D01*
G01*
X115625000Y-112549999D01*
G75*
G02*
X115874999Y-112300000I249999J0D01*
G01*
G37*
G36*
G01*
X115874999Y-109375000D02*
X117125001Y-109375000D01*
G75*
G02*
X117375000Y-109624999I0J-249999D01*
G01*
X117375000Y-110250001D01*
G75*
G02*
X117125001Y-110500000I-249999J0D01*
G01*
X115874999Y-110500000D01*
G75*
G02*
X115625000Y-110250001I0J249999D01*
G01*
X115625000Y-109624999D01*
G75*
G02*
X115874999Y-109375000I249999J0D01*
G01*
G37*
%TD*%
%TO.C,R18*%
G36*
G01*
X115874999Y-104375000D02*
X117125001Y-104375000D01*
G75*
G02*
X117375000Y-104624999I0J-249999D01*
G01*
X117375000Y-105250001D01*
G75*
G02*
X117125001Y-105500000I-249999J0D01*
G01*
X115874999Y-105500000D01*
G75*
G02*
X115625000Y-105250001I0J249999D01*
G01*
X115625000Y-104624999D01*
G75*
G02*
X115874999Y-104375000I249999J0D01*
G01*
G37*
G36*
G01*
X115874999Y-107300000D02*
X117125001Y-107300000D01*
G75*
G02*
X117375000Y-107549999I0J-249999D01*
G01*
X117375000Y-108175001D01*
G75*
G02*
X117125001Y-108425000I-249999J0D01*
G01*
X115874999Y-108425000D01*
G75*
G02*
X115625000Y-108175001I0J249999D01*
G01*
X115625000Y-107549999D01*
G75*
G02*
X115874999Y-107300000I249999J0D01*
G01*
G37*
%TD*%
%TO.C,R19*%
G36*
G01*
X115874999Y-82300000D02*
X117125001Y-82300000D01*
G75*
G02*
X117375000Y-82549999I0J-249999D01*
G01*
X117375000Y-83175001D01*
G75*
G02*
X117125001Y-83425000I-249999J0D01*
G01*
X115874999Y-83425000D01*
G75*
G02*
X115625000Y-83175001I0J249999D01*
G01*
X115625000Y-82549999D01*
G75*
G02*
X115874999Y-82300000I249999J0D01*
G01*
G37*
G36*
G01*
X115874999Y-79375000D02*
X117125001Y-79375000D01*
G75*
G02*
X117375000Y-79624999I0J-249999D01*
G01*
X117375000Y-80250001D01*
G75*
G02*
X117125001Y-80500000I-249999J0D01*
G01*
X115874999Y-80500000D01*
G75*
G02*
X115625000Y-80250001I0J249999D01*
G01*
X115625000Y-79624999D01*
G75*
G02*
X115874999Y-79375000I249999J0D01*
G01*
G37*
%TD*%
%TO.C,R20*%
G36*
G01*
X115874999Y-77300000D02*
X117125001Y-77300000D01*
G75*
G02*
X117375000Y-77549999I0J-249999D01*
G01*
X117375000Y-78175001D01*
G75*
G02*
X117125001Y-78425000I-249999J0D01*
G01*
X115874999Y-78425000D01*
G75*
G02*
X115625000Y-78175001I0J249999D01*
G01*
X115625000Y-77549999D01*
G75*
G02*
X115874999Y-77300000I249999J0D01*
G01*
G37*
G36*
G01*
X115874999Y-74375000D02*
X117125001Y-74375000D01*
G75*
G02*
X117375000Y-74624999I0J-249999D01*
G01*
X117375000Y-75250001D01*
G75*
G02*
X117125001Y-75500000I-249999J0D01*
G01*
X115874999Y-75500000D01*
G75*
G02*
X115625000Y-75250001I0J249999D01*
G01*
X115625000Y-74624999D01*
G75*
G02*
X115874999Y-74375000I249999J0D01*
G01*
G37*
%TD*%
%TO.C,R21*%
G36*
G01*
X122200000Y-110825001D02*
X122200000Y-109574999D01*
G75*
G02*
X122449999Y-109325000I249999J0D01*
G01*
X123075001Y-109325000D01*
G75*
G02*
X123325000Y-109574999I0J-249999D01*
G01*
X123325000Y-110825001D01*
G75*
G02*
X123075001Y-111075000I-249999J0D01*
G01*
X122449999Y-111075000D01*
G75*
G02*
X122200000Y-110825001I0J249999D01*
G01*
G37*
G36*
G01*
X119275000Y-110825001D02*
X119275000Y-109574999D01*
G75*
G02*
X119524999Y-109325000I249999J0D01*
G01*
X120150001Y-109325000D01*
G75*
G02*
X120400000Y-109574999I0J-249999D01*
G01*
X120400000Y-110825001D01*
G75*
G02*
X120150001Y-111075000I-249999J0D01*
G01*
X119524999Y-111075000D01*
G75*
G02*
X119275000Y-110825001I0J249999D01*
G01*
G37*
%TD*%
%TO.C,R22*%
G36*
G01*
X122200000Y-105825001D02*
X122200000Y-104574999D01*
G75*
G02*
X122449999Y-104325000I249999J0D01*
G01*
X123075001Y-104325000D01*
G75*
G02*
X123325000Y-104574999I0J-249999D01*
G01*
X123325000Y-105825001D01*
G75*
G02*
X123075001Y-106075000I-249999J0D01*
G01*
X122449999Y-106075000D01*
G75*
G02*
X122200000Y-105825001I0J249999D01*
G01*
G37*
G36*
G01*
X119275000Y-105825001D02*
X119275000Y-104574999D01*
G75*
G02*
X119524999Y-104325000I249999J0D01*
G01*
X120150001Y-104325000D01*
G75*
G02*
X120400000Y-104574999I0J-249999D01*
G01*
X120400000Y-105825001D01*
G75*
G02*
X120150001Y-106075000I-249999J0D01*
G01*
X119524999Y-106075000D01*
G75*
G02*
X119275000Y-105825001I0J249999D01*
G01*
G37*
%TD*%
%TO.C,R23*%
G36*
G01*
X119275000Y-80825001D02*
X119275000Y-79574999D01*
G75*
G02*
X119524999Y-79325000I249999J0D01*
G01*
X120150001Y-79325000D01*
G75*
G02*
X120400000Y-79574999I0J-249999D01*
G01*
X120400000Y-80825001D01*
G75*
G02*
X120150001Y-81075000I-249999J0D01*
G01*
X119524999Y-81075000D01*
G75*
G02*
X119275000Y-80825001I0J249999D01*
G01*
G37*
G36*
G01*
X122200000Y-80825001D02*
X122200000Y-79574999D01*
G75*
G02*
X122449999Y-79325000I249999J0D01*
G01*
X123075001Y-79325000D01*
G75*
G02*
X123325000Y-79574999I0J-249999D01*
G01*
X123325000Y-80825001D01*
G75*
G02*
X123075001Y-81075000I-249999J0D01*
G01*
X122449999Y-81075000D01*
G75*
G02*
X122200000Y-80825001I0J249999D01*
G01*
G37*
%TD*%
%TO.C,R24*%
G36*
G01*
X119275000Y-75825001D02*
X119275000Y-74574999D01*
G75*
G02*
X119524999Y-74325000I249999J0D01*
G01*
X120150001Y-74325000D01*
G75*
G02*
X120400000Y-74574999I0J-249999D01*
G01*
X120400000Y-75825001D01*
G75*
G02*
X120150001Y-76075000I-249999J0D01*
G01*
X119524999Y-76075000D01*
G75*
G02*
X119275000Y-75825001I0J249999D01*
G01*
G37*
G36*
G01*
X122200000Y-75825001D02*
X122200000Y-74574999D01*
G75*
G02*
X122449999Y-74325000I249999J0D01*
G01*
X123075001Y-74325000D01*
G75*
G02*
X123325000Y-74574999I0J-249999D01*
G01*
X123325000Y-75825001D01*
G75*
G02*
X123075001Y-76075000I-249999J0D01*
G01*
X122449999Y-76075000D01*
G75*
G02*
X122200000Y-75825001I0J249999D01*
G01*
G37*
%TD*%
%TO.C,R25*%
G36*
G01*
X115874999Y-102300000D02*
X117125001Y-102300000D01*
G75*
G02*
X117375000Y-102549999I0J-249999D01*
G01*
X117375000Y-103175001D01*
G75*
G02*
X117125001Y-103425000I-249999J0D01*
G01*
X115874999Y-103425000D01*
G75*
G02*
X115625000Y-103175001I0J249999D01*
G01*
X115625000Y-102549999D01*
G75*
G02*
X115874999Y-102300000I249999J0D01*
G01*
G37*
G36*
G01*
X115874999Y-99375000D02*
X117125001Y-99375000D01*
G75*
G02*
X117375000Y-99624999I0J-249999D01*
G01*
X117375000Y-100250001D01*
G75*
G02*
X117125001Y-100500000I-249999J0D01*
G01*
X115874999Y-100500000D01*
G75*
G02*
X115625000Y-100250001I0J249999D01*
G01*
X115625000Y-99624999D01*
G75*
G02*
X115874999Y-99375000I249999J0D01*
G01*
G37*
%TD*%
%TO.C,R26*%
G36*
G01*
X115874999Y-97300000D02*
X117125001Y-97300000D01*
G75*
G02*
X117375000Y-97549999I0J-249999D01*
G01*
X117375000Y-98175001D01*
G75*
G02*
X117125001Y-98425000I-249999J0D01*
G01*
X115874999Y-98425000D01*
G75*
G02*
X115625000Y-98175001I0J249999D01*
G01*
X115625000Y-97549999D01*
G75*
G02*
X115874999Y-97300000I249999J0D01*
G01*
G37*
G36*
G01*
X115874999Y-94375000D02*
X117125001Y-94375000D01*
G75*
G02*
X117375000Y-94624999I0J-249999D01*
G01*
X117375000Y-95250001D01*
G75*
G02*
X117125001Y-95500000I-249999J0D01*
G01*
X115874999Y-95500000D01*
G75*
G02*
X115625000Y-95250001I0J249999D01*
G01*
X115625000Y-94624999D01*
G75*
G02*
X115874999Y-94375000I249999J0D01*
G01*
G37*
%TD*%
%TO.C,R27*%
G36*
G01*
X119275000Y-100825001D02*
X119275000Y-99574999D01*
G75*
G02*
X119524999Y-99325000I249999J0D01*
G01*
X120150001Y-99325000D01*
G75*
G02*
X120400000Y-99574999I0J-249999D01*
G01*
X120400000Y-100825001D01*
G75*
G02*
X120150001Y-101075000I-249999J0D01*
G01*
X119524999Y-101075000D01*
G75*
G02*
X119275000Y-100825001I0J249999D01*
G01*
G37*
G36*
G01*
X122200000Y-100825001D02*
X122200000Y-99574999D01*
G75*
G02*
X122449999Y-99325000I249999J0D01*
G01*
X123075001Y-99325000D01*
G75*
G02*
X123325000Y-99574999I0J-249999D01*
G01*
X123325000Y-100825001D01*
G75*
G02*
X123075001Y-101075000I-249999J0D01*
G01*
X122449999Y-101075000D01*
G75*
G02*
X122200000Y-100825001I0J249999D01*
G01*
G37*
%TD*%
%TO.C,R28*%
G36*
G01*
X119275000Y-95825001D02*
X119275000Y-94574999D01*
G75*
G02*
X119524999Y-94325000I249999J0D01*
G01*
X120150001Y-94325000D01*
G75*
G02*
X120400000Y-94574999I0J-249999D01*
G01*
X120400000Y-95825001D01*
G75*
G02*
X120150001Y-96075000I-249999J0D01*
G01*
X119524999Y-96075000D01*
G75*
G02*
X119275000Y-95825001I0J249999D01*
G01*
G37*
G36*
G01*
X122200000Y-95825001D02*
X122200000Y-94574999D01*
G75*
G02*
X122449999Y-94325000I249999J0D01*
G01*
X123075001Y-94325000D01*
G75*
G02*
X123325000Y-94574999I0J-249999D01*
G01*
X123325000Y-95825001D01*
G75*
G02*
X123075001Y-96075000I-249999J0D01*
G01*
X122449999Y-96075000D01*
G75*
G02*
X122200000Y-95825001I0J249999D01*
G01*
G37*
%TD*%
%TO.C,R29*%
G36*
G01*
X115874999Y-92300000D02*
X117125001Y-92300000D01*
G75*
G02*
X117375000Y-92549999I0J-249999D01*
G01*
X117375000Y-93175001D01*
G75*
G02*
X117125001Y-93425000I-249999J0D01*
G01*
X115874999Y-93425000D01*
G75*
G02*
X115625000Y-93175001I0J249999D01*
G01*
X115625000Y-92549999D01*
G75*
G02*
X115874999Y-92300000I249999J0D01*
G01*
G37*
G36*
G01*
X115874999Y-89375000D02*
X117125001Y-89375000D01*
G75*
G02*
X117375000Y-89624999I0J-249999D01*
G01*
X117375000Y-90250001D01*
G75*
G02*
X117125001Y-90500000I-249999J0D01*
G01*
X115874999Y-90500000D01*
G75*
G02*
X115625000Y-90250001I0J249999D01*
G01*
X115625000Y-89624999D01*
G75*
G02*
X115874999Y-89375000I249999J0D01*
G01*
G37*
%TD*%
%TO.C,R30*%
G36*
G01*
X115874999Y-87300000D02*
X117125001Y-87300000D01*
G75*
G02*
X117375000Y-87549999I0J-249999D01*
G01*
X117375000Y-88175001D01*
G75*
G02*
X117125001Y-88425000I-249999J0D01*
G01*
X115874999Y-88425000D01*
G75*
G02*
X115625000Y-88175001I0J249999D01*
G01*
X115625000Y-87549999D01*
G75*
G02*
X115874999Y-87300000I249999J0D01*
G01*
G37*
G36*
G01*
X115874999Y-84375000D02*
X117125001Y-84375000D01*
G75*
G02*
X117375000Y-84624999I0J-249999D01*
G01*
X117375000Y-85250001D01*
G75*
G02*
X117125001Y-85500000I-249999J0D01*
G01*
X115874999Y-85500000D01*
G75*
G02*
X115625000Y-85250001I0J249999D01*
G01*
X115625000Y-84624999D01*
G75*
G02*
X115874999Y-84375000I249999J0D01*
G01*
G37*
%TD*%
%TO.C,R31*%
G36*
G01*
X119275000Y-90825001D02*
X119275000Y-89574999D01*
G75*
G02*
X119524999Y-89325000I249999J0D01*
G01*
X120150001Y-89325000D01*
G75*
G02*
X120400000Y-89574999I0J-249999D01*
G01*
X120400000Y-90825001D01*
G75*
G02*
X120150001Y-91075000I-249999J0D01*
G01*
X119524999Y-91075000D01*
G75*
G02*
X119275000Y-90825001I0J249999D01*
G01*
G37*
G36*
G01*
X122200000Y-90825001D02*
X122200000Y-89574999D01*
G75*
G02*
X122449999Y-89325000I249999J0D01*
G01*
X123075001Y-89325000D01*
G75*
G02*
X123325000Y-89574999I0J-249999D01*
G01*
X123325000Y-90825001D01*
G75*
G02*
X123075001Y-91075000I-249999J0D01*
G01*
X122449999Y-91075000D01*
G75*
G02*
X122200000Y-90825001I0J249999D01*
G01*
G37*
%TD*%
%TO.C,R32*%
G36*
G01*
X119275000Y-85825001D02*
X119275000Y-84574999D01*
G75*
G02*
X119524999Y-84325000I249999J0D01*
G01*
X120150001Y-84325000D01*
G75*
G02*
X120400000Y-84574999I0J-249999D01*
G01*
X120400000Y-85825001D01*
G75*
G02*
X120150001Y-86075000I-249999J0D01*
G01*
X119524999Y-86075000D01*
G75*
G02*
X119275000Y-85825001I0J249999D01*
G01*
G37*
G36*
G01*
X122200000Y-85825001D02*
X122200000Y-84574999D01*
G75*
G02*
X122449999Y-84325000I249999J0D01*
G01*
X123075001Y-84325000D01*
G75*
G02*
X123325000Y-84574999I0J-249999D01*
G01*
X123325000Y-85825001D01*
G75*
G02*
X123075001Y-86075000I-249999J0D01*
G01*
X122449999Y-86075000D01*
G75*
G02*
X122200000Y-85825001I0J249999D01*
G01*
G37*
%TD*%
D15*
%TO.C,Q1*%
X104050000Y-128585000D03*
X104050000Y-127735000D03*
X104050000Y-129435000D03*
X101750000Y-128585000D03*
X101750000Y-127735000D03*
X101750000Y-129435000D03*
X102900000Y-129435000D03*
X102900000Y-127735000D03*
D16*
X104780000Y-131285000D03*
X101020000Y-131285000D03*
X103500000Y-131285000D03*
D17*
X103540000Y-125565000D03*
X104810000Y-125565000D03*
X102260000Y-125565000D03*
X100990000Y-125565000D03*
D16*
X102300000Y-131285000D03*
D15*
X102900000Y-128585000D03*
%TD*%
%TO.C,Q2*%
X109900000Y-128585000D03*
D16*
X109300000Y-131285000D03*
D17*
X107990000Y-125565000D03*
X109260000Y-125565000D03*
X111810000Y-125565000D03*
X110540000Y-125565000D03*
D16*
X110500000Y-131285000D03*
X108020000Y-131285000D03*
X111780000Y-131285000D03*
D15*
X109900000Y-127735000D03*
X109900000Y-129435000D03*
X108750000Y-129435000D03*
X108750000Y-127735000D03*
X108750000Y-128585000D03*
X111050000Y-129435000D03*
X111050000Y-127735000D03*
X111050000Y-128585000D03*
%TD*%
%TO.C,Q3*%
X118050000Y-128585000D03*
X118050000Y-127735000D03*
X118050000Y-129435000D03*
X115750000Y-128585000D03*
X115750000Y-127735000D03*
X115750000Y-129435000D03*
X116900000Y-129435000D03*
X116900000Y-127735000D03*
D16*
X118780000Y-131285000D03*
X115020000Y-131285000D03*
X117500000Y-131285000D03*
D17*
X117540000Y-125565000D03*
X118810000Y-125565000D03*
X116260000Y-125565000D03*
X114990000Y-125565000D03*
D16*
X116300000Y-131285000D03*
D15*
X116900000Y-128585000D03*
%TD*%
%TO.C,Q4*%
X125050000Y-128585000D03*
X125050000Y-127735000D03*
X125050000Y-129435000D03*
X122750000Y-128585000D03*
X122750000Y-127735000D03*
X122750000Y-129435000D03*
X123900000Y-129435000D03*
X123900000Y-127735000D03*
D16*
X125780000Y-131285000D03*
X122020000Y-131285000D03*
X124500000Y-131285000D03*
D17*
X124540000Y-125565000D03*
X125810000Y-125565000D03*
X123260000Y-125565000D03*
X121990000Y-125565000D03*
D16*
X123300000Y-131285000D03*
D15*
X123900000Y-128585000D03*
%TD*%
%TO.C,Q5*%
X130900000Y-128585000D03*
D16*
X130300000Y-131285000D03*
D17*
X128990000Y-125565000D03*
X130260000Y-125565000D03*
X132810000Y-125565000D03*
X131540000Y-125565000D03*
D16*
X131500000Y-131285000D03*
X129020000Y-131285000D03*
X132780000Y-131285000D03*
D15*
X130900000Y-127735000D03*
X130900000Y-129435000D03*
X129750000Y-129435000D03*
X129750000Y-127735000D03*
X129750000Y-128585000D03*
X132050000Y-129435000D03*
X132050000Y-127735000D03*
X132050000Y-128585000D03*
%TD*%
%TO.C,Q6*%
X139050000Y-128585000D03*
X139050000Y-127735000D03*
X139050000Y-129435000D03*
X136750000Y-128585000D03*
X136750000Y-127735000D03*
X136750000Y-129435000D03*
X137900000Y-129435000D03*
X137900000Y-127735000D03*
D16*
X139780000Y-131285000D03*
X136020000Y-131285000D03*
X138500000Y-131285000D03*
D17*
X138540000Y-125565000D03*
X139810000Y-125565000D03*
X137260000Y-125565000D03*
X135990000Y-125565000D03*
D16*
X137300000Y-131285000D03*
D15*
X137900000Y-128585000D03*
%TD*%
%TO.C,Q7*%
X146050000Y-128550000D03*
X146050000Y-127700000D03*
X146050000Y-129400000D03*
X143750000Y-128550000D03*
X143750000Y-127700000D03*
X143750000Y-129400000D03*
X144900000Y-129400000D03*
X144900000Y-127700000D03*
D16*
X146780000Y-131250000D03*
X143020000Y-131250000D03*
X145500000Y-131250000D03*
D17*
X145540000Y-125530000D03*
X146810000Y-125530000D03*
X144260000Y-125530000D03*
X142990000Y-125530000D03*
D16*
X144300000Y-131250000D03*
D15*
X144900000Y-128550000D03*
%TD*%
%TO.C,Q8*%
X151900000Y-128585000D03*
D16*
X151300000Y-131285000D03*
D17*
X149990000Y-125565000D03*
X151260000Y-125565000D03*
X153810000Y-125565000D03*
X152540000Y-125565000D03*
D16*
X152500000Y-131285000D03*
X150020000Y-131285000D03*
X153780000Y-131285000D03*
D15*
X151900000Y-127735000D03*
X151900000Y-129435000D03*
X150750000Y-129435000D03*
X150750000Y-127735000D03*
X150750000Y-128585000D03*
X153050000Y-129435000D03*
X153050000Y-127735000D03*
X153050000Y-128585000D03*
%TD*%
%TO.C,Q9*%
X158900000Y-128585000D03*
D16*
X158300000Y-131285000D03*
D17*
X156990000Y-125565000D03*
X158260000Y-125565000D03*
X160810000Y-125565000D03*
X159540000Y-125565000D03*
D16*
X159500000Y-131285000D03*
X157020000Y-131285000D03*
X160780000Y-131285000D03*
D15*
X158900000Y-127735000D03*
X158900000Y-129435000D03*
X157750000Y-129435000D03*
X157750000Y-127735000D03*
X157750000Y-128585000D03*
X160050000Y-129435000D03*
X160050000Y-127735000D03*
X160050000Y-128585000D03*
%TD*%
%TO.C,R33*%
G36*
G01*
X135474999Y-116175000D02*
X136725001Y-116175000D01*
G75*
G02*
X136975000Y-116424999I0J-249999D01*
G01*
X136975000Y-117050001D01*
G75*
G02*
X136725001Y-117300000I-249999J0D01*
G01*
X135474999Y-117300000D01*
G75*
G02*
X135225000Y-117050001I0J249999D01*
G01*
X135225000Y-116424999D01*
G75*
G02*
X135474999Y-116175000I249999J0D01*
G01*
G37*
G36*
G01*
X135474999Y-119100000D02*
X136725001Y-119100000D01*
G75*
G02*
X136975000Y-119349999I0J-249999D01*
G01*
X136975000Y-119975001D01*
G75*
G02*
X136725001Y-120225000I-249999J0D01*
G01*
X135474999Y-120225000D01*
G75*
G02*
X135225000Y-119975001I0J249999D01*
G01*
X135225000Y-119349999D01*
G75*
G02*
X135474999Y-119100000I249999J0D01*
G01*
G37*
%TD*%
%TO.C,R34*%
G36*
G01*
X139074999Y-119100000D02*
X140325001Y-119100000D01*
G75*
G02*
X140575000Y-119349999I0J-249999D01*
G01*
X140575000Y-119975001D01*
G75*
G02*
X140325001Y-120225000I-249999J0D01*
G01*
X139074999Y-120225000D01*
G75*
G02*
X138825000Y-119975001I0J249999D01*
G01*
X138825000Y-119349999D01*
G75*
G02*
X139074999Y-119100000I249999J0D01*
G01*
G37*
G36*
G01*
X139074999Y-116175000D02*
X140325001Y-116175000D01*
G75*
G02*
X140575000Y-116424999I0J-249999D01*
G01*
X140575000Y-117050001D01*
G75*
G02*
X140325001Y-117300000I-249999J0D01*
G01*
X139074999Y-117300000D01*
G75*
G02*
X138825000Y-117050001I0J249999D01*
G01*
X138825000Y-116424999D01*
G75*
G02*
X139074999Y-116175000I249999J0D01*
G01*
G37*
%TD*%
%TO.C,R35*%
G36*
G01*
X142674999Y-116175000D02*
X143925001Y-116175000D01*
G75*
G02*
X144175000Y-116424999I0J-249999D01*
G01*
X144175000Y-117050001D01*
G75*
G02*
X143925001Y-117300000I-249999J0D01*
G01*
X142674999Y-117300000D01*
G75*
G02*
X142425000Y-117050001I0J249999D01*
G01*
X142425000Y-116424999D01*
G75*
G02*
X142674999Y-116175000I249999J0D01*
G01*
G37*
G36*
G01*
X142674999Y-119100000D02*
X143925001Y-119100000D01*
G75*
G02*
X144175000Y-119349999I0J-249999D01*
G01*
X144175000Y-119975001D01*
G75*
G02*
X143925001Y-120225000I-249999J0D01*
G01*
X142674999Y-120225000D01*
G75*
G02*
X142425000Y-119975001I0J249999D01*
G01*
X142425000Y-119349999D01*
G75*
G02*
X142674999Y-119100000I249999J0D01*
G01*
G37*
%TD*%
%TO.C,R36*%
G36*
G01*
X146274999Y-119100000D02*
X147525001Y-119100000D01*
G75*
G02*
X147775000Y-119349999I0J-249999D01*
G01*
X147775000Y-119975001D01*
G75*
G02*
X147525001Y-120225000I-249999J0D01*
G01*
X146274999Y-120225000D01*
G75*
G02*
X146025000Y-119975001I0J249999D01*
G01*
X146025000Y-119349999D01*
G75*
G02*
X146274999Y-119100000I249999J0D01*
G01*
G37*
G36*
G01*
X146274999Y-116175000D02*
X147525001Y-116175000D01*
G75*
G02*
X147775000Y-116424999I0J-249999D01*
G01*
X147775000Y-117050001D01*
G75*
G02*
X147525001Y-117300000I-249999J0D01*
G01*
X146274999Y-117300000D01*
G75*
G02*
X146025000Y-117050001I0J249999D01*
G01*
X146025000Y-116424999D01*
G75*
G02*
X146274999Y-116175000I249999J0D01*
G01*
G37*
%TD*%
%TO.C,R37*%
G36*
G01*
X149874999Y-116175000D02*
X151125001Y-116175000D01*
G75*
G02*
X151375000Y-116424999I0J-249999D01*
G01*
X151375000Y-117050001D01*
G75*
G02*
X151125001Y-117300000I-249999J0D01*
G01*
X149874999Y-117300000D01*
G75*
G02*
X149625000Y-117050001I0J249999D01*
G01*
X149625000Y-116424999D01*
G75*
G02*
X149874999Y-116175000I249999J0D01*
G01*
G37*
G36*
G01*
X149874999Y-119100000D02*
X151125001Y-119100000D01*
G75*
G02*
X151375000Y-119349999I0J-249999D01*
G01*
X151375000Y-119975001D01*
G75*
G02*
X151125001Y-120225000I-249999J0D01*
G01*
X149874999Y-120225000D01*
G75*
G02*
X149625000Y-119975001I0J249999D01*
G01*
X149625000Y-119349999D01*
G75*
G02*
X149874999Y-119100000I249999J0D01*
G01*
G37*
%TD*%
%TO.C,R38*%
G36*
G01*
X153474999Y-119100000D02*
X154725001Y-119100000D01*
G75*
G02*
X154975000Y-119349999I0J-249999D01*
G01*
X154975000Y-119975001D01*
G75*
G02*
X154725001Y-120225000I-249999J0D01*
G01*
X153474999Y-120225000D01*
G75*
G02*
X153225000Y-119975001I0J249999D01*
G01*
X153225000Y-119349999D01*
G75*
G02*
X153474999Y-119100000I249999J0D01*
G01*
G37*
G36*
G01*
X153474999Y-116175000D02*
X154725001Y-116175000D01*
G75*
G02*
X154975000Y-116424999I0J-249999D01*
G01*
X154975000Y-117050001D01*
G75*
G02*
X154725001Y-117300000I-249999J0D01*
G01*
X153474999Y-117300000D01*
G75*
G02*
X153225000Y-117050001I0J249999D01*
G01*
X153225000Y-116424999D01*
G75*
G02*
X153474999Y-116175000I249999J0D01*
G01*
G37*
%TD*%
%TO.C,R39*%
G36*
G01*
X157274999Y-116175000D02*
X158525001Y-116175000D01*
G75*
G02*
X158775000Y-116424999I0J-249999D01*
G01*
X158775000Y-117050001D01*
G75*
G02*
X158525001Y-117300000I-249999J0D01*
G01*
X157274999Y-117300000D01*
G75*
G02*
X157025000Y-117050001I0J249999D01*
G01*
X157025000Y-116424999D01*
G75*
G02*
X157274999Y-116175000I249999J0D01*
G01*
G37*
G36*
G01*
X157274999Y-119100000D02*
X158525001Y-119100000D01*
G75*
G02*
X158775000Y-119349999I0J-249999D01*
G01*
X158775000Y-119975001D01*
G75*
G02*
X158525001Y-120225000I-249999J0D01*
G01*
X157274999Y-120225000D01*
G75*
G02*
X157025000Y-119975001I0J249999D01*
G01*
X157025000Y-119349999D01*
G75*
G02*
X157274999Y-119100000I249999J0D01*
G01*
G37*
%TD*%
%TO.C,R40*%
G36*
G01*
X161074999Y-119100000D02*
X162325001Y-119100000D01*
G75*
G02*
X162575000Y-119349999I0J-249999D01*
G01*
X162575000Y-119975001D01*
G75*
G02*
X162325001Y-120225000I-249999J0D01*
G01*
X161074999Y-120225000D01*
G75*
G02*
X160825000Y-119975001I0J249999D01*
G01*
X160825000Y-119349999D01*
G75*
G02*
X161074999Y-119100000I249999J0D01*
G01*
G37*
G36*
G01*
X161074999Y-116175000D02*
X162325001Y-116175000D01*
G75*
G02*
X162575000Y-116424999I0J-249999D01*
G01*
X162575000Y-117050001D01*
G75*
G02*
X162325001Y-117300000I-249999J0D01*
G01*
X161074999Y-117300000D01*
G75*
G02*
X160825000Y-117050001I0J249999D01*
G01*
X160825000Y-116424999D01*
G75*
G02*
X161074999Y-116175000I249999J0D01*
G01*
G37*
%TD*%
%TO.C,R41*%
G36*
G01*
X164674999Y-116175000D02*
X165925001Y-116175000D01*
G75*
G02*
X166175000Y-116424999I0J-249999D01*
G01*
X166175000Y-117050001D01*
G75*
G02*
X165925001Y-117300000I-249999J0D01*
G01*
X164674999Y-117300000D01*
G75*
G02*
X164425000Y-117050001I0J249999D01*
G01*
X164425000Y-116424999D01*
G75*
G02*
X164674999Y-116175000I249999J0D01*
G01*
G37*
G36*
G01*
X164674999Y-119100000D02*
X165925001Y-119100000D01*
G75*
G02*
X166175000Y-119349999I0J-249999D01*
G01*
X166175000Y-119975001D01*
G75*
G02*
X165925001Y-120225000I-249999J0D01*
G01*
X164674999Y-120225000D01*
G75*
G02*
X164425000Y-119975001I0J249999D01*
G01*
X164425000Y-119349999D01*
G75*
G02*
X164674999Y-119100000I249999J0D01*
G01*
G37*
%TD*%
D18*
%TO.C,D2*%
X169200000Y-76700000D03*
X167200000Y-77650000D03*
X167200000Y-75750000D03*
%TD*%
D19*
%TO.C,D3*%
X189050000Y-79400000D03*
X187150000Y-79400000D03*
X188100000Y-81400000D03*
%TD*%
D18*
%TO.C,D4*%
X167200000Y-80650000D03*
X167200000Y-82550000D03*
X169200000Y-81600000D03*
%TD*%
D19*
%TO.C,D5*%
X192000000Y-63900000D03*
X191050000Y-61900000D03*
X192950000Y-61900000D03*
%TD*%
%TO.C,D9*%
X167100000Y-71300000D03*
X168050000Y-73300000D03*
X166150000Y-73300000D03*
%TD*%
%TO.C,D10*%
X191150000Y-128700000D03*
X189250000Y-128700000D03*
X190200000Y-130700000D03*
%TD*%
%TO.C,D11*%
X186150000Y-128700000D03*
X184250000Y-128700000D03*
X185200000Y-130700000D03*
%TD*%
%TO.C,D12*%
X181150000Y-128700000D03*
X179250000Y-128700000D03*
X180200000Y-130700000D03*
%TD*%
%TO.C,D13*%
X175200000Y-130700000D03*
X174250000Y-128700000D03*
X176150000Y-128700000D03*
%TD*%
%TO.C,D14*%
X170200000Y-130700000D03*
X169250000Y-128700000D03*
X171150000Y-128700000D03*
%TD*%
%TO.C,D15*%
X166150000Y-128700000D03*
X164250000Y-128700000D03*
X165200000Y-130700000D03*
%TD*%
%TO.C,D16*%
X180400000Y-71300000D03*
X181350000Y-73300000D03*
X179450000Y-73300000D03*
%TD*%
%TO.C,D17*%
X184650000Y-73300000D03*
X186550000Y-73300000D03*
X185600000Y-71300000D03*
%TD*%
D18*
%TO.C,D18*%
X125800000Y-110200000D03*
X127800000Y-109250000D03*
X127800000Y-111150000D03*
%TD*%
%TO.C,D19*%
X125700000Y-105200000D03*
X127700000Y-104250000D03*
X127700000Y-106150000D03*
%TD*%
%TO.C,D20*%
X127700000Y-81150000D03*
X127700000Y-79250000D03*
X125700000Y-80200000D03*
%TD*%
%TO.C,D21*%
X125700000Y-75200000D03*
X127700000Y-74250000D03*
X127700000Y-76150000D03*
%TD*%
%TO.C,D22*%
X127700000Y-101150000D03*
X127700000Y-99250000D03*
X125700000Y-100200000D03*
%TD*%
%TO.C,D23*%
X127700000Y-96150000D03*
X127700000Y-94250000D03*
X125700000Y-95200000D03*
%TD*%
%TO.C,D24*%
X125700000Y-90200000D03*
X127700000Y-89250000D03*
X127700000Y-91150000D03*
%TD*%
%TO.C,D25*%
X127700000Y-86150000D03*
X127700000Y-84250000D03*
X125700000Y-85200000D03*
%TD*%
M02*
