G04 #@! TF.GenerationSoftware,KiCad,Pcbnew,5.1.8-db9833491~87~ubuntu18.04.1*
G04 #@! TF.CreationDate,2020-11-08T12:01:12+01:00*
G04 #@! TF.ProjectId,DAC ADC PWM IO,44414320-4144-4432-9050-574d20494f2e,rev?*
G04 #@! TF.SameCoordinates,Original*
G04 #@! TF.FileFunction,Legend,Top*
G04 #@! TF.FilePolarity,Positive*
%FSLAX46Y46*%
G04 Gerber Fmt 4.6, Leading zero omitted, Abs format (unit mm)*
G04 Created by KiCad (PCBNEW 5.1.8-db9833491~87~ubuntu18.04.1) date 2020-11-08 12:01:12*
%MOMM*%
%LPD*%
G01*
G04 APERTURE LIST*
%ADD10C,0.120000*%
%ADD11C,0.150000*%
G04 APERTURE END LIST*
D10*
G04 #@! TO.C,SW1*
X181210000Y-88140000D02*
X181210000Y-94260000D01*
X181210000Y-94260000D02*
X177590000Y-94260000D01*
X177590000Y-94260000D02*
X177590000Y-88140000D01*
X177590000Y-88140000D02*
X181210000Y-88140000D01*
G04 #@! TO.C,U1*
X160260000Y-97210000D02*
X161550000Y-97210000D01*
X160260000Y-97660000D02*
X160260000Y-97210000D01*
X159810000Y-97660000D02*
X160260000Y-97660000D01*
X153040000Y-97660000D02*
X153040000Y-97210000D01*
X153490000Y-97660000D02*
X153040000Y-97660000D01*
X160260000Y-90440000D02*
X160260000Y-90890000D01*
X159810000Y-90440000D02*
X160260000Y-90440000D01*
X153040000Y-90440000D02*
X153040000Y-90890000D01*
X153490000Y-90440000D02*
X153040000Y-90440000D01*
G04 #@! TO.C,U2*
X137890000Y-77150000D02*
X137890000Y-71140000D01*
X144710000Y-74900000D02*
X144710000Y-71140000D01*
X137890000Y-71140000D02*
X139150000Y-71140000D01*
X144710000Y-71140000D02*
X143450000Y-71140000D01*
G04 #@! TO.C,D1*
X146800000Y-76800000D02*
X148800000Y-76800000D01*
X148800000Y-76800000D02*
X148800000Y-72900000D01*
X146800000Y-76800000D02*
X146800000Y-72900000D01*
G04 #@! TO.C,Y1*
X181400000Y-102850000D02*
X168800000Y-102850000D01*
X168800000Y-102850000D02*
X168800000Y-107950000D01*
X168800000Y-107950000D02*
X181400000Y-107950000D01*
G04 #@! TO.C,J2*
X112880000Y-143200000D02*
G75*
G03*
X112880000Y-143200000I-2180000J0D01*
G01*
X117880000Y-143200000D02*
G75*
G03*
X117880000Y-143200000I-2180000J0D01*
G01*
X122880000Y-143200000D02*
G75*
G03*
X122880000Y-143200000I-2180000J0D01*
G01*
X127880000Y-143200000D02*
G75*
G03*
X127880000Y-143200000I-2180000J0D01*
G01*
X132880000Y-143200000D02*
G75*
G03*
X132880000Y-143200000I-2180000J0D01*
G01*
X137880000Y-143200000D02*
G75*
G03*
X137880000Y-143200000I-2180000J0D01*
G01*
X142880000Y-143200000D02*
G75*
G03*
X142880000Y-143200000I-2180000J0D01*
G01*
X147880000Y-143200000D02*
G75*
G03*
X147880000Y-143200000I-2180000J0D01*
G01*
X152880000Y-143200000D02*
G75*
G03*
X152880000Y-143200000I-2180000J0D01*
G01*
X108140000Y-147800000D02*
X153260000Y-147800000D01*
X108140000Y-146700000D02*
X153260000Y-146700000D01*
X108140000Y-139140000D02*
X153260000Y-139140000D01*
X108140000Y-148260000D02*
X153260000Y-148260000D01*
X108140000Y-139140000D02*
X108140000Y-148260000D01*
X153260000Y-139140000D02*
X153260000Y-148260000D01*
X112354000Y-141812000D02*
X112247000Y-141919000D01*
X109418000Y-144747000D02*
X109312000Y-144854000D01*
X112088000Y-141546000D02*
X111981000Y-141653000D01*
X109152000Y-144481000D02*
X109046000Y-144588000D01*
X117354000Y-141812000D02*
X116959000Y-142208000D01*
X114693000Y-144474000D02*
X114313000Y-144854000D01*
X117088000Y-141546000D02*
X116708000Y-141926000D01*
X114442000Y-144192000D02*
X114047000Y-144588000D01*
X122354000Y-141812000D02*
X121959000Y-142208000D01*
X119693000Y-144474000D02*
X119313000Y-144854000D01*
X122088000Y-141546000D02*
X121708000Y-141926000D01*
X119442000Y-144192000D02*
X119047000Y-144588000D01*
X127354000Y-141812000D02*
X126959000Y-142208000D01*
X124693000Y-144474000D02*
X124313000Y-144854000D01*
X127088000Y-141546000D02*
X126708000Y-141926000D01*
X124442000Y-144192000D02*
X124047000Y-144588000D01*
X132354000Y-141812000D02*
X131959000Y-142208000D01*
X129693000Y-144474000D02*
X129313000Y-144854000D01*
X132088000Y-141546000D02*
X131708000Y-141926000D01*
X129442000Y-144192000D02*
X129047000Y-144588000D01*
X137354000Y-141812000D02*
X136959000Y-142208000D01*
X134693000Y-144474000D02*
X134313000Y-144854000D01*
X137088000Y-141546000D02*
X136708000Y-141926000D01*
X134442000Y-144192000D02*
X134047000Y-144588000D01*
X142354000Y-141812000D02*
X141959000Y-142208000D01*
X139693000Y-144474000D02*
X139313000Y-144854000D01*
X142088000Y-141546000D02*
X141708000Y-141926000D01*
X139442000Y-144192000D02*
X139047000Y-144588000D01*
X147354000Y-141812000D02*
X146959000Y-142208000D01*
X144693000Y-144474000D02*
X144313000Y-144854000D01*
X147088000Y-141546000D02*
X146708000Y-141926000D01*
X144442000Y-144192000D02*
X144047000Y-144588000D01*
X152354000Y-141812000D02*
X151959000Y-142208000D01*
X149693000Y-144474000D02*
X149313000Y-144854000D01*
X152088000Y-141546000D02*
X151708000Y-141926000D01*
X149442000Y-144192000D02*
X149047000Y-144588000D01*
X107900000Y-147860000D02*
X107900000Y-148500000D01*
X107900000Y-148500000D02*
X108300000Y-148500000D01*
G04 #@! TO.C,J3*
X183380000Y-58800000D02*
G75*
G03*
X183380000Y-58800000I-2180000J0D01*
G01*
X178380000Y-58800000D02*
G75*
G03*
X178380000Y-58800000I-2180000J0D01*
G01*
X173380000Y-58800000D02*
G75*
G03*
X173380000Y-58800000I-2180000J0D01*
G01*
X183760000Y-54200000D02*
X168640000Y-54200000D01*
X183760000Y-55300000D02*
X168640000Y-55300000D01*
X183760000Y-62860000D02*
X168640000Y-62860000D01*
X183760000Y-53740000D02*
X168640000Y-53740000D01*
X183760000Y-62860000D02*
X183760000Y-53740000D01*
X168640000Y-62860000D02*
X168640000Y-53740000D01*
X179546000Y-60188000D02*
X179653000Y-60081000D01*
X182482000Y-57253000D02*
X182588000Y-57146000D01*
X179812000Y-60454000D02*
X179919000Y-60347000D01*
X182748000Y-57519000D02*
X182854000Y-57412000D01*
X174546000Y-60188000D02*
X174941000Y-59792000D01*
X177207000Y-57526000D02*
X177587000Y-57146000D01*
X174812000Y-60454000D02*
X175192000Y-60074000D01*
X177458000Y-57808000D02*
X177853000Y-57412000D01*
X169546000Y-60188000D02*
X169941000Y-59792000D01*
X172207000Y-57526000D02*
X172587000Y-57146000D01*
X169812000Y-60454000D02*
X170192000Y-60074000D01*
X172458000Y-57808000D02*
X172853000Y-57412000D01*
X184000000Y-54140000D02*
X184000000Y-53500000D01*
X184000000Y-53500000D02*
X183600000Y-53500000D01*
G04 #@! TO.C,J4*
X189680000Y-116700000D02*
G75*
G03*
X189680000Y-116700000I-2180000J0D01*
G01*
X189680000Y-111700000D02*
G75*
G03*
X189680000Y-111700000I-2180000J0D01*
G01*
X189680000Y-106700000D02*
G75*
G03*
X189680000Y-106700000I-2180000J0D01*
G01*
X189680000Y-101700000D02*
G75*
G03*
X189680000Y-101700000I-2180000J0D01*
G01*
X192100000Y-119260000D02*
X192100000Y-99139000D01*
X191000000Y-119260000D02*
X191000000Y-99139000D01*
X183440000Y-119260000D02*
X183440000Y-99139000D01*
X192560000Y-119260000D02*
X192560000Y-99139000D01*
X183440000Y-119260000D02*
X192560000Y-119260000D01*
X183440000Y-99139000D02*
X192560000Y-99139000D01*
X186112000Y-115046000D02*
X186219000Y-115153000D01*
X189047000Y-117982000D02*
X189154000Y-118088000D01*
X185846000Y-115312000D02*
X185953000Y-115419000D01*
X188781000Y-118248000D02*
X188888000Y-118354000D01*
X186112000Y-110046000D02*
X186508000Y-110441000D01*
X188774000Y-112707000D02*
X189154000Y-113087000D01*
X185846000Y-110312000D02*
X186226000Y-110692000D01*
X188492000Y-112958000D02*
X188888000Y-113353000D01*
X186112000Y-105046000D02*
X186508000Y-105441000D01*
X188774000Y-107707000D02*
X189154000Y-108087000D01*
X185846000Y-105312000D02*
X186226000Y-105692000D01*
X188492000Y-107958000D02*
X188888000Y-108353000D01*
X186112000Y-100046000D02*
X186508000Y-100441000D01*
X188774000Y-102707000D02*
X189154000Y-103087000D01*
X185846000Y-100312000D02*
X186226000Y-100692000D01*
X188492000Y-102958000D02*
X188888000Y-103353000D01*
X192160000Y-119500000D02*
X192800000Y-119500000D01*
X192800000Y-119500000D02*
X192800000Y-119100000D01*
G04 #@! TO.C,J5*
X99000000Y-72200000D02*
X99000000Y-72600000D01*
X99640000Y-72200000D02*
X99000000Y-72200000D01*
X103308000Y-98742000D02*
X102912000Y-98347000D01*
X105954000Y-101388000D02*
X105574000Y-101008000D01*
X103026000Y-98993000D02*
X102646000Y-98613000D01*
X105688000Y-101654000D02*
X105292000Y-101259000D01*
X103308000Y-93742000D02*
X102912000Y-93347000D01*
X105954000Y-96388000D02*
X105574000Y-96008000D01*
X103026000Y-93993000D02*
X102646000Y-93613000D01*
X105688000Y-96654000D02*
X105292000Y-96259000D01*
X103308000Y-88742000D02*
X102912000Y-88347000D01*
X105954000Y-91388000D02*
X105574000Y-91008000D01*
X103026000Y-88993000D02*
X102646000Y-88613000D01*
X105688000Y-91654000D02*
X105292000Y-91259000D01*
X103308000Y-83742000D02*
X102912000Y-83347000D01*
X105954000Y-86388000D02*
X105574000Y-86008000D01*
X103026000Y-83993000D02*
X102646000Y-83613000D01*
X105688000Y-86654000D02*
X105292000Y-86259000D01*
X103308000Y-78742000D02*
X102912000Y-78347000D01*
X105954000Y-81388000D02*
X105574000Y-81008000D01*
X103026000Y-78993000D02*
X102646000Y-78613000D01*
X105688000Y-81654000D02*
X105292000Y-81259000D01*
X103019000Y-73452000D02*
X102912000Y-73346000D01*
X105954000Y-76388000D02*
X105847000Y-76281000D01*
X102753000Y-73718000D02*
X102646000Y-73612000D01*
X105688000Y-76654000D02*
X105581000Y-76547000D01*
X108360000Y-102560000D02*
X99240000Y-102560000D01*
X108360000Y-72440000D02*
X99240000Y-72440000D01*
X99240000Y-72440000D02*
X99240000Y-102560000D01*
X108360000Y-72440000D02*
X108360000Y-102560000D01*
X100800000Y-72440000D02*
X100800000Y-102560000D01*
X99700000Y-72440000D02*
X99700000Y-102560000D01*
X106480000Y-100000000D02*
G75*
G03*
X106480000Y-100000000I-2180000J0D01*
G01*
X106480000Y-95000000D02*
G75*
G03*
X106480000Y-95000000I-2180000J0D01*
G01*
X106480000Y-90000000D02*
G75*
G03*
X106480000Y-90000000I-2180000J0D01*
G01*
X106480000Y-85000000D02*
G75*
G03*
X106480000Y-85000000I-2180000J0D01*
G01*
X106480000Y-80000000D02*
G75*
G03*
X106480000Y-80000000I-2180000J0D01*
G01*
X106480000Y-75000000D02*
G75*
G03*
X106480000Y-75000000I-2180000J0D01*
G01*
G04 #@! TO.C,J6*
X99000000Y-59600000D02*
X99000000Y-60000000D01*
X99640000Y-59600000D02*
X99000000Y-59600000D01*
X103308000Y-66142000D02*
X102912000Y-65747000D01*
X105954000Y-68788000D02*
X105574000Y-68408000D01*
X103026000Y-66393000D02*
X102646000Y-66013000D01*
X105688000Y-69054000D02*
X105292000Y-68659000D01*
X103019000Y-60852000D02*
X102912000Y-60746000D01*
X105954000Y-63788000D02*
X105847000Y-63681000D01*
X102753000Y-61118000D02*
X102646000Y-61012000D01*
X105688000Y-64054000D02*
X105581000Y-63947000D01*
X108360000Y-69960000D02*
X99240000Y-69960000D01*
X108360000Y-59840000D02*
X99240000Y-59840000D01*
X99240000Y-59840000D02*
X99240000Y-69960000D01*
X108360000Y-59840000D02*
X108360000Y-69960000D01*
X100800000Y-59840000D02*
X100800000Y-69960000D01*
X99700000Y-59840000D02*
X99700000Y-69960000D01*
X106480000Y-67400000D02*
G75*
G03*
X106480000Y-67400000I-2180000J0D01*
G01*
X106480000Y-62400000D02*
G75*
G03*
X106480000Y-62400000I-2180000J0D01*
G01*
G04 #@! TO.C,J7*
X167380000Y-143200000D02*
G75*
G03*
X167380000Y-143200000I-2180000J0D01*
G01*
X172380000Y-143200000D02*
G75*
G03*
X172380000Y-143200000I-2180000J0D01*
G01*
X177380000Y-143200000D02*
G75*
G03*
X177380000Y-143200000I-2180000J0D01*
G01*
X182380000Y-143200000D02*
G75*
G03*
X182380000Y-143200000I-2180000J0D01*
G01*
X187380000Y-143200000D02*
G75*
G03*
X187380000Y-143200000I-2180000J0D01*
G01*
X192380000Y-143200000D02*
G75*
G03*
X192380000Y-143200000I-2180000J0D01*
G01*
X162640000Y-147800000D02*
X192760000Y-147800000D01*
X162640000Y-146700000D02*
X192760000Y-146700000D01*
X162640000Y-139140000D02*
X192760000Y-139140000D01*
X162640000Y-148260000D02*
X192760000Y-148260000D01*
X162640000Y-139140000D02*
X162640000Y-148260000D01*
X192760000Y-139140000D02*
X192760000Y-148260000D01*
X166854000Y-141812000D02*
X166747000Y-141919000D01*
X163918000Y-144747000D02*
X163812000Y-144854000D01*
X166588000Y-141546000D02*
X166481000Y-141653000D01*
X163652000Y-144481000D02*
X163546000Y-144588000D01*
X171854000Y-141812000D02*
X171459000Y-142208000D01*
X169193000Y-144474000D02*
X168813000Y-144854000D01*
X171588000Y-141546000D02*
X171208000Y-141926000D01*
X168942000Y-144192000D02*
X168547000Y-144588000D01*
X176854000Y-141812000D02*
X176459000Y-142208000D01*
X174193000Y-144474000D02*
X173813000Y-144854000D01*
X176588000Y-141546000D02*
X176208000Y-141926000D01*
X173942000Y-144192000D02*
X173547000Y-144588000D01*
X181854000Y-141812000D02*
X181459000Y-142208000D01*
X179193000Y-144474000D02*
X178813000Y-144854000D01*
X181588000Y-141546000D02*
X181208000Y-141926000D01*
X178942000Y-144192000D02*
X178547000Y-144588000D01*
X186854000Y-141812000D02*
X186459000Y-142208000D01*
X184193000Y-144474000D02*
X183813000Y-144854000D01*
X186588000Y-141546000D02*
X186208000Y-141926000D01*
X183942000Y-144192000D02*
X183547000Y-144588000D01*
X191854000Y-141812000D02*
X191459000Y-142208000D01*
X189193000Y-144474000D02*
X188813000Y-144854000D01*
X191588000Y-141546000D02*
X191208000Y-141926000D01*
X188942000Y-144192000D02*
X188547000Y-144588000D01*
X162400000Y-147860000D02*
X162400000Y-148500000D01*
X162400000Y-148500000D02*
X162800000Y-148500000D01*
G04 #@! TO.C,J8*
X142480000Y-58800000D02*
G75*
G03*
X142480000Y-58800000I-2180000J0D01*
G01*
X137480000Y-58800000D02*
G75*
G03*
X137480000Y-58800000I-2180000J0D01*
G01*
X142860000Y-54200000D02*
X132740000Y-54200000D01*
X142860000Y-55300000D02*
X132740000Y-55300000D01*
X142860000Y-62860000D02*
X132740000Y-62860000D01*
X142860000Y-53740000D02*
X132740000Y-53740000D01*
X142860000Y-62860000D02*
X142860000Y-53740000D01*
X132740000Y-62860000D02*
X132740000Y-53740000D01*
X138646000Y-60188000D02*
X138753000Y-60081000D01*
X141582000Y-57253000D02*
X141688000Y-57146000D01*
X138912000Y-60454000D02*
X139019000Y-60347000D01*
X141848000Y-57519000D02*
X141954000Y-57412000D01*
X133646000Y-60188000D02*
X134041000Y-59792000D01*
X136307000Y-57526000D02*
X136687000Y-57146000D01*
X133912000Y-60454000D02*
X134292000Y-60074000D01*
X136558000Y-57808000D02*
X136953000Y-57412000D01*
X143100000Y-54140000D02*
X143100000Y-53500000D01*
X143100000Y-53500000D02*
X142700000Y-53500000D01*
G04 #@! TO.C,D6*
X168100000Y-65150000D02*
X166100000Y-65150000D01*
X166100000Y-65150000D02*
X166100000Y-69050000D01*
X168100000Y-65150000D02*
X168100000Y-69050000D01*
G04 #@! TO.C,D7*
X181400000Y-65150000D02*
X181400000Y-69050000D01*
X179400000Y-65150000D02*
X179400000Y-69050000D01*
X181400000Y-65150000D02*
X179400000Y-65150000D01*
G04 #@! TO.C,D8*
X186600000Y-65150000D02*
X184600000Y-65150000D01*
X184600000Y-65150000D02*
X184600000Y-69050000D01*
X186600000Y-65150000D02*
X186600000Y-69050000D01*
G04 #@! TO.C,Q1*
X105500000Y-126085000D02*
X105300000Y-126085000D01*
X105500000Y-130385000D02*
X105500000Y-126085000D01*
X105350000Y-130385000D02*
X105500000Y-130385000D01*
X100300000Y-130385000D02*
X100450000Y-130385000D01*
X100300000Y-126085000D02*
X100300000Y-130385000D01*
X100500000Y-126085000D02*
X100300000Y-126085000D01*
G04 #@! TO.C,Q2*
X107500000Y-126085000D02*
X107300000Y-126085000D01*
X107300000Y-126085000D02*
X107300000Y-130385000D01*
X107300000Y-130385000D02*
X107450000Y-130385000D01*
X112350000Y-130385000D02*
X112500000Y-130385000D01*
X112500000Y-130385000D02*
X112500000Y-126085000D01*
X112500000Y-126085000D02*
X112300000Y-126085000D01*
G04 #@! TO.C,Q3*
X119500000Y-126085000D02*
X119300000Y-126085000D01*
X119500000Y-130385000D02*
X119500000Y-126085000D01*
X119350000Y-130385000D02*
X119500000Y-130385000D01*
X114300000Y-130385000D02*
X114450000Y-130385000D01*
X114300000Y-126085000D02*
X114300000Y-130385000D01*
X114500000Y-126085000D02*
X114300000Y-126085000D01*
G04 #@! TO.C,Q4*
X126500000Y-126085000D02*
X126300000Y-126085000D01*
X126500000Y-130385000D02*
X126500000Y-126085000D01*
X126350000Y-130385000D02*
X126500000Y-130385000D01*
X121300000Y-130385000D02*
X121450000Y-130385000D01*
X121300000Y-126085000D02*
X121300000Y-130385000D01*
X121500000Y-126085000D02*
X121300000Y-126085000D01*
G04 #@! TO.C,Q5*
X128500000Y-126085000D02*
X128300000Y-126085000D01*
X128300000Y-126085000D02*
X128300000Y-130385000D01*
X128300000Y-130385000D02*
X128450000Y-130385000D01*
X133350000Y-130385000D02*
X133500000Y-130385000D01*
X133500000Y-130385000D02*
X133500000Y-126085000D01*
X133500000Y-126085000D02*
X133300000Y-126085000D01*
G04 #@! TO.C,Q6*
X140500000Y-126085000D02*
X140300000Y-126085000D01*
X140500000Y-130385000D02*
X140500000Y-126085000D01*
X140350000Y-130385000D02*
X140500000Y-130385000D01*
X135300000Y-130385000D02*
X135450000Y-130385000D01*
X135300000Y-126085000D02*
X135300000Y-130385000D01*
X135500000Y-126085000D02*
X135300000Y-126085000D01*
G04 #@! TO.C,Q7*
X147500000Y-126050000D02*
X147300000Y-126050000D01*
X147500000Y-130350000D02*
X147500000Y-126050000D01*
X147350000Y-130350000D02*
X147500000Y-130350000D01*
X142300000Y-130350000D02*
X142450000Y-130350000D01*
X142300000Y-126050000D02*
X142300000Y-130350000D01*
X142500000Y-126050000D02*
X142300000Y-126050000D01*
G04 #@! TO.C,Q8*
X149500000Y-126085000D02*
X149300000Y-126085000D01*
X149300000Y-126085000D02*
X149300000Y-130385000D01*
X149300000Y-130385000D02*
X149450000Y-130385000D01*
X154350000Y-130385000D02*
X154500000Y-130385000D01*
X154500000Y-130385000D02*
X154500000Y-126085000D01*
X154500000Y-126085000D02*
X154300000Y-126085000D01*
G04 #@! TO.C,Q9*
X156500000Y-126085000D02*
X156300000Y-126085000D01*
X156300000Y-126085000D02*
X156300000Y-130385000D01*
X156300000Y-130385000D02*
X156450000Y-130385000D01*
X161350000Y-130385000D02*
X161500000Y-130385000D01*
X161500000Y-130385000D02*
X161500000Y-126085000D01*
X161500000Y-126085000D02*
X161300000Y-126085000D01*
G04 #@! TO.C,J1*
X101670000Y-107470000D02*
X103000000Y-107470000D01*
X101670000Y-108800000D02*
X101670000Y-107470000D01*
X104270000Y-107470000D02*
X106870000Y-107470000D01*
X104270000Y-110070000D02*
X104270000Y-107470000D01*
X101670000Y-110070000D02*
X104270000Y-110070000D01*
X106870000Y-107470000D02*
X106870000Y-120290000D01*
X101670000Y-110070000D02*
X101670000Y-120290000D01*
X101670000Y-120290000D02*
X106870000Y-120290000D01*
G04 #@! TO.C,J10*
X160570000Y-109370000D02*
X161900000Y-109370000D01*
X160570000Y-110700000D02*
X160570000Y-109370000D01*
X160570000Y-111970000D02*
X163230000Y-111970000D01*
X163230000Y-111970000D02*
X163230000Y-112030000D01*
X160570000Y-111970000D02*
X160570000Y-112030000D01*
X160570000Y-112030000D02*
X163230000Y-112030000D01*
G04 #@! TO.C,D2*
X168960000Y-78280000D02*
X167500000Y-78280000D01*
X168960000Y-75120000D02*
X166800000Y-75120000D01*
X168960000Y-75120000D02*
X168960000Y-76050000D01*
X168960000Y-78280000D02*
X168960000Y-77350000D01*
G04 #@! TO.C,D3*
X186520000Y-81160000D02*
X187450000Y-81160000D01*
X189680000Y-81160000D02*
X188750000Y-81160000D01*
X189680000Y-81160000D02*
X189680000Y-79000000D01*
X186520000Y-81160000D02*
X186520000Y-79700000D01*
G04 #@! TO.C,D4*
X168960000Y-83180000D02*
X168960000Y-82250000D01*
X168960000Y-80020000D02*
X168960000Y-80950000D01*
X168960000Y-80020000D02*
X166800000Y-80020000D01*
X168960000Y-83180000D02*
X167500000Y-83180000D01*
G04 #@! TO.C,D5*
X190420000Y-63660000D02*
X190420000Y-62200000D01*
X193580000Y-63660000D02*
X193580000Y-61500000D01*
X193580000Y-63660000D02*
X192650000Y-63660000D01*
X190420000Y-63660000D02*
X191350000Y-63660000D01*
G04 #@! TO.C,D9*
X168680000Y-71540000D02*
X168680000Y-73000000D01*
X165520000Y-71540000D02*
X165520000Y-73700000D01*
X165520000Y-71540000D02*
X166450000Y-71540000D01*
X168680000Y-71540000D02*
X167750000Y-71540000D01*
G04 #@! TO.C,D10*
X188620000Y-130460000D02*
X189550000Y-130460000D01*
X191780000Y-130460000D02*
X190850000Y-130460000D01*
X191780000Y-130460000D02*
X191780000Y-128300000D01*
X188620000Y-130460000D02*
X188620000Y-129000000D01*
G04 #@! TO.C,D11*
X183620000Y-130460000D02*
X184550000Y-130460000D01*
X186780000Y-130460000D02*
X185850000Y-130460000D01*
X186780000Y-130460000D02*
X186780000Y-128300000D01*
X183620000Y-130460000D02*
X183620000Y-129000000D01*
G04 #@! TO.C,D12*
X178620000Y-130460000D02*
X179550000Y-130460000D01*
X181780000Y-130460000D02*
X180850000Y-130460000D01*
X181780000Y-130460000D02*
X181780000Y-128300000D01*
X178620000Y-130460000D02*
X178620000Y-129000000D01*
G04 #@! TO.C,D13*
X173620000Y-130460000D02*
X173620000Y-129000000D01*
X176780000Y-130460000D02*
X176780000Y-128300000D01*
X176780000Y-130460000D02*
X175850000Y-130460000D01*
X173620000Y-130460000D02*
X174550000Y-130460000D01*
G04 #@! TO.C,D14*
X168620000Y-130460000D02*
X168620000Y-129000000D01*
X171780000Y-130460000D02*
X171780000Y-128300000D01*
X171780000Y-130460000D02*
X170850000Y-130460000D01*
X168620000Y-130460000D02*
X169550000Y-130460000D01*
G04 #@! TO.C,D15*
X163620000Y-130460000D02*
X164550000Y-130460000D01*
X166780000Y-130460000D02*
X165850000Y-130460000D01*
X166780000Y-130460000D02*
X166780000Y-128300000D01*
X163620000Y-130460000D02*
X163620000Y-129000000D01*
G04 #@! TO.C,D16*
X181980000Y-71540000D02*
X181980000Y-73000000D01*
X178820000Y-71540000D02*
X178820000Y-73700000D01*
X178820000Y-71540000D02*
X179750000Y-71540000D01*
X181980000Y-71540000D02*
X181050000Y-71540000D01*
G04 #@! TO.C,D17*
X187180000Y-71540000D02*
X186250000Y-71540000D01*
X184020000Y-71540000D02*
X184950000Y-71540000D01*
X184020000Y-71540000D02*
X184020000Y-73700000D01*
X187180000Y-71540000D02*
X187180000Y-73000000D01*
G04 #@! TO.C,D18*
X126040000Y-108620000D02*
X127500000Y-108620000D01*
X126040000Y-111780000D02*
X128200000Y-111780000D01*
X126040000Y-111780000D02*
X126040000Y-110850000D01*
X126040000Y-108620000D02*
X126040000Y-109550000D01*
G04 #@! TO.C,D19*
X125940000Y-103620000D02*
X127400000Y-103620000D01*
X125940000Y-106780000D02*
X128100000Y-106780000D01*
X125940000Y-106780000D02*
X125940000Y-105850000D01*
X125940000Y-103620000D02*
X125940000Y-104550000D01*
G04 #@! TO.C,D20*
X125940000Y-78620000D02*
X125940000Y-79550000D01*
X125940000Y-81780000D02*
X125940000Y-80850000D01*
X125940000Y-81780000D02*
X128100000Y-81780000D01*
X125940000Y-78620000D02*
X127400000Y-78620000D01*
G04 #@! TO.C,D21*
X125940000Y-73620000D02*
X127400000Y-73620000D01*
X125940000Y-76780000D02*
X128100000Y-76780000D01*
X125940000Y-76780000D02*
X125940000Y-75850000D01*
X125940000Y-73620000D02*
X125940000Y-74550000D01*
G04 #@! TO.C,D22*
X125940000Y-98620000D02*
X125940000Y-99550000D01*
X125940000Y-101780000D02*
X125940000Y-100850000D01*
X125940000Y-101780000D02*
X128100000Y-101780000D01*
X125940000Y-98620000D02*
X127400000Y-98620000D01*
G04 #@! TO.C,D23*
X125940000Y-93620000D02*
X125940000Y-94550000D01*
X125940000Y-96780000D02*
X125940000Y-95850000D01*
X125940000Y-96780000D02*
X128100000Y-96780000D01*
X125940000Y-93620000D02*
X127400000Y-93620000D01*
G04 #@! TO.C,D24*
X125940000Y-88620000D02*
X127400000Y-88620000D01*
X125940000Y-91780000D02*
X128100000Y-91780000D01*
X125940000Y-91780000D02*
X125940000Y-90850000D01*
X125940000Y-88620000D02*
X125940000Y-89550000D01*
G04 #@! TO.C,D25*
X125940000Y-83620000D02*
X125940000Y-84550000D01*
X125940000Y-86780000D02*
X125940000Y-85850000D01*
X125940000Y-86780000D02*
X128100000Y-86780000D01*
X125940000Y-83620000D02*
X127400000Y-83620000D01*
G04 #@! TO.C,C5*
X141950000Y-83010000D02*
X141950000Y-82510000D01*
X142200000Y-82760000D02*
X141700000Y-82760000D01*
X141460000Y-80004437D02*
X140395563Y-78940000D01*
X141460000Y-82395563D02*
X140395563Y-83460000D01*
X141460000Y-82395563D02*
X141460000Y-82260000D01*
X141460000Y-80004437D02*
X141460000Y-80140000D01*
X140395563Y-78940000D02*
X136940000Y-78940000D01*
X140395563Y-83460000D02*
X136940000Y-83460000D01*
X136940000Y-83460000D02*
X136940000Y-82260000D01*
X136940000Y-78940000D02*
X136940000Y-80140000D01*
G04 #@! TO.C,C2*
X151190000Y-76950000D02*
X151690000Y-76950000D01*
X151440000Y-77200000D02*
X151440000Y-76700000D01*
X154195563Y-76460000D02*
X155260000Y-75395563D01*
X151804437Y-76460000D02*
X150740000Y-75395563D01*
X151804437Y-76460000D02*
X151940000Y-76460000D01*
X154195563Y-76460000D02*
X154060000Y-76460000D01*
X155260000Y-75395563D02*
X155260000Y-71940000D01*
X150740000Y-75395563D02*
X150740000Y-71940000D01*
X150740000Y-71940000D02*
X151940000Y-71940000D01*
X155260000Y-71940000D02*
X154060000Y-71940000D01*
G04 #@! TO.C,C8*
X161111252Y-75490000D02*
X159688748Y-75490000D01*
X161111252Y-77310000D02*
X159688748Y-77310000D01*
G04 #@! TO.C,C7*
X161111252Y-79090000D02*
X159688748Y-79090000D01*
X161111252Y-80910000D02*
X159688748Y-80910000D01*
G04 #@! TO.C,C6*
X161111252Y-82690000D02*
X159688748Y-82690000D01*
X161111252Y-84510000D02*
X159688748Y-84510000D01*
G04 #@! TO.C,C10*
X149110000Y-89911252D02*
X149110000Y-88488748D01*
X147290000Y-89911252D02*
X147290000Y-88488748D01*
G04 #@! TO.C,C16*
X147010000Y-84411252D02*
X147010000Y-82988748D01*
X145190000Y-84411252D02*
X145190000Y-82988748D01*
G04 #@! TO.C,C14*
X166790000Y-93788748D02*
X166790000Y-95211252D01*
X168610000Y-93788748D02*
X168610000Y-95211252D01*
G04 #@! TO.C,C1*
X166790000Y-98588748D02*
X166790000Y-100011252D01*
X168610000Y-98588748D02*
X168610000Y-100011252D01*
G04 #@! TO.C,C4*
X178111252Y-97590000D02*
X176688748Y-97590000D01*
X178111252Y-99410000D02*
X176688748Y-99410000D01*
G04 #@! TO.C,C3*
X167710000Y-106311252D02*
X167710000Y-104888748D01*
X165890000Y-106311252D02*
X165890000Y-104888748D01*
G04 #@! TO.C,C11*
X143022500Y-90612500D02*
X142647500Y-90612500D01*
X142835000Y-90425000D02*
X142835000Y-90800000D01*
X140340000Y-91229437D02*
X139640000Y-91929437D01*
X142460000Y-91229437D02*
X143160000Y-91929437D01*
X139640000Y-91929437D02*
X139640000Y-94560000D01*
X143160000Y-91929437D02*
X143160000Y-94560000D01*
X143160000Y-94560000D02*
X142460000Y-94560000D01*
X139640000Y-94560000D02*
X140340000Y-94560000D01*
G04 #@! TO.C,C17*
X143022500Y-84612500D02*
X142647500Y-84612500D01*
X142835000Y-84425000D02*
X142835000Y-84800000D01*
X140340000Y-85229437D02*
X139640000Y-85929437D01*
X142460000Y-85229437D02*
X143160000Y-85929437D01*
X139640000Y-85929437D02*
X139640000Y-88560000D01*
X143160000Y-85929437D02*
X143160000Y-88560000D01*
X143160000Y-88560000D02*
X142460000Y-88560000D01*
X139640000Y-88560000D02*
X140340000Y-88560000D01*
G04 #@! TO.C,C15*
X170912500Y-92277500D02*
X170912500Y-92652500D01*
X170725000Y-92465000D02*
X171100000Y-92465000D01*
X171529437Y-94960000D02*
X172229437Y-95660000D01*
X171529437Y-92840000D02*
X172229437Y-92140000D01*
X172229437Y-95660000D02*
X174860000Y-95660000D01*
X172229437Y-92140000D02*
X174860000Y-92140000D01*
X174860000Y-92140000D02*
X174860000Y-92840000D01*
X174860000Y-95660000D02*
X174860000Y-94960000D01*
G04 #@! TO.C,C9*
X163150000Y-73310000D02*
X163150000Y-72810000D01*
X163400000Y-73060000D02*
X162900000Y-73060000D01*
X162660000Y-70304437D02*
X161595563Y-69240000D01*
X162660000Y-72695563D02*
X161595563Y-73760000D01*
X162660000Y-72695563D02*
X162660000Y-72560000D01*
X162660000Y-70304437D02*
X162660000Y-70440000D01*
X161595563Y-69240000D02*
X158140000Y-69240000D01*
X161595563Y-73760000D02*
X158140000Y-73760000D01*
X158140000Y-73760000D02*
X158140000Y-72560000D01*
X158140000Y-69240000D02*
X158140000Y-70440000D01*
G04 #@! TO.C,F12*
X112662779Y-84490000D02*
X112337221Y-84490000D01*
X112662779Y-85510000D02*
X112337221Y-85510000D01*
G04 #@! TO.C,F11*
X112662779Y-89490000D02*
X112337221Y-89490000D01*
X112662779Y-90510000D02*
X112337221Y-90510000D01*
G04 #@! TO.C,F10*
X112662779Y-94490000D02*
X112337221Y-94490000D01*
X112662779Y-95510000D02*
X112337221Y-95510000D01*
G04 #@! TO.C,F9*
X112662779Y-99490000D02*
X112337221Y-99490000D01*
X112662779Y-100510000D02*
X112337221Y-100510000D01*
G04 #@! TO.C,F6*
X112662779Y-104490000D02*
X112337221Y-104490000D01*
X112662779Y-105510000D02*
X112337221Y-105510000D01*
G04 #@! TO.C,F5*
X112662779Y-109490000D02*
X112337221Y-109490000D01*
X112662779Y-110510000D02*
X112337221Y-110510000D01*
G04 #@! TO.C,R16*
X166110000Y-135327064D02*
X166110000Y-133872936D01*
X164290000Y-135327064D02*
X164290000Y-133872936D01*
G04 #@! TO.C,R15*
X171110000Y-135327064D02*
X171110000Y-133872936D01*
X169290000Y-135327064D02*
X169290000Y-133872936D01*
G04 #@! TO.C,R14*
X176110000Y-135327064D02*
X176110000Y-133872936D01*
X174290000Y-135327064D02*
X174290000Y-133872936D01*
G04 #@! TO.C,R13*
X181110000Y-135327064D02*
X181110000Y-133872936D01*
X179290000Y-135327064D02*
X179290000Y-133872936D01*
G04 #@! TO.C,R12*
X186110000Y-135327064D02*
X186110000Y-133872936D01*
X184290000Y-135327064D02*
X184290000Y-133872936D01*
G04 #@! TO.C,R11*
X191110000Y-135327064D02*
X191110000Y-133872936D01*
X189290000Y-135327064D02*
X189290000Y-133872936D01*
G04 #@! TO.C,R33*
X135190000Y-117472936D02*
X135190000Y-118927064D01*
X137010000Y-117472936D02*
X137010000Y-118927064D01*
G04 #@! TO.C,R34*
X138790000Y-117472936D02*
X138790000Y-118927064D01*
X140610000Y-117472936D02*
X140610000Y-118927064D01*
G04 #@! TO.C,R35*
X142490000Y-117472936D02*
X142490000Y-118927064D01*
X144310000Y-117472936D02*
X144310000Y-118927064D01*
G04 #@! TO.C,R36*
X146090000Y-117472936D02*
X146090000Y-118927064D01*
X147910000Y-117472936D02*
X147910000Y-118927064D01*
G04 #@! TO.C,R37*
X149590000Y-117472936D02*
X149590000Y-118927064D01*
X151410000Y-117472936D02*
X151410000Y-118927064D01*
G04 #@! TO.C,R38*
X153290000Y-117472936D02*
X153290000Y-118927064D01*
X155110000Y-117472936D02*
X155110000Y-118927064D01*
G04 #@! TO.C,R39*
X157090000Y-117472936D02*
X157090000Y-118927064D01*
X158910000Y-117472936D02*
X158910000Y-118927064D01*
G04 #@! TO.C,R40*
X160790000Y-117472936D02*
X160790000Y-118927064D01*
X162610000Y-117472936D02*
X162610000Y-118927064D01*
G04 #@! TO.C,R41*
X164390000Y-117472936D02*
X164390000Y-118927064D01*
X166210000Y-117472936D02*
X166210000Y-118927064D01*
G04 #@! TO.C,R2*
X157490000Y-103972936D02*
X157490000Y-105427064D01*
X159310000Y-103972936D02*
X159310000Y-105427064D01*
G04 #@! TO.C,R1*
X173227064Y-97590000D02*
X171772936Y-97590000D01*
X173227064Y-99410000D02*
X171772936Y-99410000D01*
G04 #@! TO.C,R4*
X187627064Y-88990000D02*
X186172936Y-88990000D01*
X187627064Y-90810000D02*
X186172936Y-90810000D01*
G04 #@! TO.C,F2*
X187990000Y-93537221D02*
X187990000Y-93862779D01*
X189010000Y-93537221D02*
X189010000Y-93862779D01*
G04 #@! TO.C,R6*
X189010000Y-86427064D02*
X189010000Y-84972936D01*
X187190000Y-86427064D02*
X187190000Y-84972936D01*
G04 #@! TO.C,F4*
X191890000Y-76037221D02*
X191890000Y-76362779D01*
X192910000Y-76037221D02*
X192910000Y-76362779D01*
G04 #@! TO.C,R8*
X191527064Y-71690000D02*
X190072936Y-71690000D01*
X191527064Y-73510000D02*
X190072936Y-73510000D01*
G04 #@! TO.C,R10*
X192910000Y-68927064D02*
X192910000Y-67472936D01*
X191090000Y-68927064D02*
X191090000Y-67472936D01*
G04 #@! TO.C,R9*
X174027064Y-80690000D02*
X172572936Y-80690000D01*
X174027064Y-82510000D02*
X172572936Y-82510000D01*
G04 #@! TO.C,R7*
X177190000Y-81972936D02*
X177190000Y-83427064D01*
X179010000Y-81972936D02*
X179010000Y-83427064D01*
G04 #@! TO.C,R5*
X174027064Y-75790000D02*
X172572936Y-75790000D01*
X174027064Y-77610000D02*
X172572936Y-77610000D01*
G04 #@! TO.C,R3*
X177190000Y-77072936D02*
X177190000Y-78527064D01*
X179010000Y-77072936D02*
X179010000Y-78527064D01*
G04 #@! TO.C,F1*
X181337221Y-76810000D02*
X181662779Y-76810000D01*
X181337221Y-75790000D02*
X181662779Y-75790000D01*
G04 #@! TO.C,F3*
X181337221Y-81710000D02*
X181662779Y-81710000D01*
X181337221Y-80690000D02*
X181662779Y-80690000D01*
G04 #@! TO.C,F8*
X112662779Y-74390000D02*
X112337221Y-74390000D01*
X112662779Y-75410000D02*
X112337221Y-75410000D01*
G04 #@! TO.C,F7*
X112662779Y-79490000D02*
X112337221Y-79490000D01*
X112662779Y-80510000D02*
X112337221Y-80510000D01*
G04 #@! TO.C,R17*
X115690000Y-110672936D02*
X115690000Y-112127064D01*
X117510000Y-110672936D02*
X117510000Y-112127064D01*
G04 #@! TO.C,R21*
X120572936Y-111110000D02*
X122027064Y-111110000D01*
X120572936Y-109290000D02*
X122027064Y-109290000D01*
G04 #@! TO.C,R18*
X115690000Y-105672936D02*
X115690000Y-107127064D01*
X117510000Y-105672936D02*
X117510000Y-107127064D01*
G04 #@! TO.C,R22*
X120572936Y-106110000D02*
X122027064Y-106110000D01*
X120572936Y-104290000D02*
X122027064Y-104290000D01*
G04 #@! TO.C,R29*
X115690000Y-90672936D02*
X115690000Y-92127064D01*
X117510000Y-90672936D02*
X117510000Y-92127064D01*
G04 #@! TO.C,R31*
X120572936Y-91110000D02*
X122027064Y-91110000D01*
X120572936Y-89290000D02*
X122027064Y-89290000D01*
G04 #@! TO.C,R19*
X115690000Y-80672936D02*
X115690000Y-82127064D01*
X117510000Y-80672936D02*
X117510000Y-82127064D01*
G04 #@! TO.C,R23*
X120572936Y-81110000D02*
X122027064Y-81110000D01*
X120572936Y-79290000D02*
X122027064Y-79290000D01*
G04 #@! TO.C,R20*
X115690000Y-75672936D02*
X115690000Y-77127064D01*
X117510000Y-75672936D02*
X117510000Y-77127064D01*
G04 #@! TO.C,R24*
X120572936Y-76110000D02*
X122027064Y-76110000D01*
X120572936Y-74290000D02*
X122027064Y-74290000D01*
G04 #@! TO.C,R26*
X115690000Y-95572936D02*
X115690000Y-97027064D01*
X117510000Y-95572936D02*
X117510000Y-97027064D01*
G04 #@! TO.C,R25*
X115690000Y-100572936D02*
X115690000Y-102027064D01*
X117510000Y-100572936D02*
X117510000Y-102027064D01*
G04 #@! TO.C,R28*
X120572936Y-96110000D02*
X122027064Y-96110000D01*
X120572936Y-94290000D02*
X122027064Y-94290000D01*
G04 #@! TO.C,R27*
X120577937Y-101210000D02*
X122032065Y-101210000D01*
X120577937Y-99390000D02*
X122032065Y-99390000D01*
G04 #@! TO.C,R32*
X120572936Y-86110000D02*
X122027064Y-86110000D01*
X120572936Y-84290000D02*
X122027064Y-84290000D01*
G04 #@! TO.C,R30*
X115690000Y-85672936D02*
X115690000Y-87127064D01*
X117510000Y-85672936D02*
X117510000Y-87127064D01*
G04 #@! TO.C,J9*
X165700000Y-53500000D02*
X165300000Y-53500000D01*
X165700000Y-54140000D02*
X165700000Y-53500000D01*
X149158000Y-57808000D02*
X149553000Y-57412000D01*
X146512000Y-60454000D02*
X146892000Y-60074000D01*
X148907000Y-57526000D02*
X149287000Y-57146000D01*
X146246000Y-60188000D02*
X146641000Y-59792000D01*
X154158000Y-57808000D02*
X154553000Y-57412000D01*
X151512000Y-60454000D02*
X151892000Y-60074000D01*
X153907000Y-57526000D02*
X154287000Y-57146000D01*
X151246000Y-60188000D02*
X151641000Y-59792000D01*
X159158000Y-57808000D02*
X159553000Y-57412000D01*
X156512000Y-60454000D02*
X156892000Y-60074000D01*
X158907000Y-57526000D02*
X159287000Y-57146000D01*
X156246000Y-60188000D02*
X156641000Y-59792000D01*
X164448000Y-57519000D02*
X164554000Y-57412000D01*
X161512000Y-60454000D02*
X161619000Y-60347000D01*
X164182000Y-57253000D02*
X164288000Y-57146000D01*
X161246000Y-60188000D02*
X161353000Y-60081000D01*
X145339000Y-62860000D02*
X145339000Y-53740000D01*
X165460000Y-62860000D02*
X165460000Y-53740000D01*
X165460000Y-53740000D02*
X145339000Y-53740000D01*
X165460000Y-62860000D02*
X145339000Y-62860000D01*
X165460000Y-55300000D02*
X145339000Y-55300000D01*
X165460000Y-54200000D02*
X145339000Y-54200000D01*
X150080000Y-58800000D02*
G75*
G03*
X150080000Y-58800000I-2180000J0D01*
G01*
X155080000Y-58800000D02*
G75*
G03*
X155080000Y-58800000I-2180000J0D01*
G01*
X160080000Y-58800000D02*
G75*
G03*
X160080000Y-58800000I-2180000J0D01*
G01*
X165080000Y-58800000D02*
G75*
G03*
X165080000Y-58800000I-2180000J0D01*
G01*
G04 #@! TO.C,SW1*
D11*
X182404761Y-92533333D02*
X182452380Y-92390476D01*
X182452380Y-92152380D01*
X182404761Y-92057142D01*
X182357142Y-92009523D01*
X182261904Y-91961904D01*
X182166666Y-91961904D01*
X182071428Y-92009523D01*
X182023809Y-92057142D01*
X181976190Y-92152380D01*
X181928571Y-92342857D01*
X181880952Y-92438095D01*
X181833333Y-92485714D01*
X181738095Y-92533333D01*
X181642857Y-92533333D01*
X181547619Y-92485714D01*
X181500000Y-92438095D01*
X181452380Y-92342857D01*
X181452380Y-92104761D01*
X181500000Y-91961904D01*
X181452380Y-91628571D02*
X182452380Y-91390476D01*
X181738095Y-91200000D01*
X182452380Y-91009523D01*
X181452380Y-90771428D01*
X182452380Y-89866666D02*
X182452380Y-90438095D01*
X182452380Y-90152380D02*
X181452380Y-90152380D01*
X181595238Y-90247619D01*
X181690476Y-90342857D01*
X181738095Y-90438095D01*
G04 #@! TO.C,Hole1*
X171795238Y-114552380D02*
X171795238Y-113552380D01*
X171795238Y-114028571D02*
X172366666Y-114028571D01*
X172366666Y-114552380D02*
X172366666Y-113552380D01*
X172985714Y-114552380D02*
X172890476Y-114504761D01*
X172842857Y-114457142D01*
X172795238Y-114361904D01*
X172795238Y-114076190D01*
X172842857Y-113980952D01*
X172890476Y-113933333D01*
X172985714Y-113885714D01*
X173128571Y-113885714D01*
X173223809Y-113933333D01*
X173271428Y-113980952D01*
X173319047Y-114076190D01*
X173319047Y-114361904D01*
X173271428Y-114457142D01*
X173223809Y-114504761D01*
X173128571Y-114552380D01*
X172985714Y-114552380D01*
X173890476Y-114552380D02*
X173795238Y-114504761D01*
X173747619Y-114409523D01*
X173747619Y-113552380D01*
X174652380Y-114504761D02*
X174557142Y-114552380D01*
X174366666Y-114552380D01*
X174271428Y-114504761D01*
X174223809Y-114409523D01*
X174223809Y-114028571D01*
X174271428Y-113933333D01*
X174366666Y-113885714D01*
X174557142Y-113885714D01*
X174652380Y-113933333D01*
X174700000Y-114028571D01*
X174700000Y-114123809D01*
X174223809Y-114219047D01*
X175652380Y-114552380D02*
X175080952Y-114552380D01*
X175366666Y-114552380D02*
X175366666Y-113552380D01*
X175271428Y-113695238D01*
X175176190Y-113790476D01*
X175080952Y-113838095D01*
G04 #@! TO.C,Hole4*
X171795238Y-65552380D02*
X171795238Y-64552380D01*
X171795238Y-65028571D02*
X172366666Y-65028571D01*
X172366666Y-65552380D02*
X172366666Y-64552380D01*
X172985714Y-65552380D02*
X172890476Y-65504761D01*
X172842857Y-65457142D01*
X172795238Y-65361904D01*
X172795238Y-65076190D01*
X172842857Y-64980952D01*
X172890476Y-64933333D01*
X172985714Y-64885714D01*
X173128571Y-64885714D01*
X173223809Y-64933333D01*
X173271428Y-64980952D01*
X173319047Y-65076190D01*
X173319047Y-65361904D01*
X173271428Y-65457142D01*
X173223809Y-65504761D01*
X173128571Y-65552380D01*
X172985714Y-65552380D01*
X173890476Y-65552380D02*
X173795238Y-65504761D01*
X173747619Y-65409523D01*
X173747619Y-64552380D01*
X174652380Y-65504761D02*
X174557142Y-65552380D01*
X174366666Y-65552380D01*
X174271428Y-65504761D01*
X174223809Y-65409523D01*
X174223809Y-65028571D01*
X174271428Y-64933333D01*
X174366666Y-64885714D01*
X174557142Y-64885714D01*
X174652380Y-64933333D01*
X174700000Y-65028571D01*
X174700000Y-65123809D01*
X174223809Y-65219047D01*
X175557142Y-64885714D02*
X175557142Y-65552380D01*
X175319047Y-64504761D02*
X175080952Y-65219047D01*
X175700000Y-65219047D01*
G04 #@! TO.C,Hole2*
X113795238Y-114552380D02*
X113795238Y-113552380D01*
X113795238Y-114028571D02*
X114366666Y-114028571D01*
X114366666Y-114552380D02*
X114366666Y-113552380D01*
X114985714Y-114552380D02*
X114890476Y-114504761D01*
X114842857Y-114457142D01*
X114795238Y-114361904D01*
X114795238Y-114076190D01*
X114842857Y-113980952D01*
X114890476Y-113933333D01*
X114985714Y-113885714D01*
X115128571Y-113885714D01*
X115223809Y-113933333D01*
X115271428Y-113980952D01*
X115319047Y-114076190D01*
X115319047Y-114361904D01*
X115271428Y-114457142D01*
X115223809Y-114504761D01*
X115128571Y-114552380D01*
X114985714Y-114552380D01*
X115890476Y-114552380D02*
X115795238Y-114504761D01*
X115747619Y-114409523D01*
X115747619Y-113552380D01*
X116652380Y-114504761D02*
X116557142Y-114552380D01*
X116366666Y-114552380D01*
X116271428Y-114504761D01*
X116223809Y-114409523D01*
X116223809Y-114028571D01*
X116271428Y-113933333D01*
X116366666Y-113885714D01*
X116557142Y-113885714D01*
X116652380Y-113933333D01*
X116700000Y-114028571D01*
X116700000Y-114123809D01*
X116223809Y-114219047D01*
X117080952Y-113647619D02*
X117128571Y-113600000D01*
X117223809Y-113552380D01*
X117461904Y-113552380D01*
X117557142Y-113600000D01*
X117604761Y-113647619D01*
X117652380Y-113742857D01*
X117652380Y-113838095D01*
X117604761Y-113980952D01*
X117033333Y-114552380D01*
X117652380Y-114552380D01*
G04 #@! TO.C,Hole3*
X113795238Y-65552380D02*
X113795238Y-64552380D01*
X113795238Y-65028571D02*
X114366666Y-65028571D01*
X114366666Y-65552380D02*
X114366666Y-64552380D01*
X114985714Y-65552380D02*
X114890476Y-65504761D01*
X114842857Y-65457142D01*
X114795238Y-65361904D01*
X114795238Y-65076190D01*
X114842857Y-64980952D01*
X114890476Y-64933333D01*
X114985714Y-64885714D01*
X115128571Y-64885714D01*
X115223809Y-64933333D01*
X115271428Y-64980952D01*
X115319047Y-65076190D01*
X115319047Y-65361904D01*
X115271428Y-65457142D01*
X115223809Y-65504761D01*
X115128571Y-65552380D01*
X114985714Y-65552380D01*
X115890476Y-65552380D02*
X115795238Y-65504761D01*
X115747619Y-65409523D01*
X115747619Y-64552380D01*
X116652380Y-65504761D02*
X116557142Y-65552380D01*
X116366666Y-65552380D01*
X116271428Y-65504761D01*
X116223809Y-65409523D01*
X116223809Y-65028571D01*
X116271428Y-64933333D01*
X116366666Y-64885714D01*
X116557142Y-64885714D01*
X116652380Y-64933333D01*
X116700000Y-65028571D01*
X116700000Y-65123809D01*
X116223809Y-65219047D01*
X117033333Y-64552380D02*
X117652380Y-64552380D01*
X117319047Y-64933333D01*
X117461904Y-64933333D01*
X117557142Y-64980952D01*
X117604761Y-65028571D01*
X117652380Y-65123809D01*
X117652380Y-65361904D01*
X117604761Y-65457142D01*
X117557142Y-65504761D01*
X117461904Y-65552380D01*
X117176190Y-65552380D01*
X117080952Y-65504761D01*
X117033333Y-65457142D01*
G04 #@! TO.C,U1*
X155888095Y-99352380D02*
X155888095Y-100161904D01*
X155935714Y-100257142D01*
X155983333Y-100304761D01*
X156078571Y-100352380D01*
X156269047Y-100352380D01*
X156364285Y-100304761D01*
X156411904Y-100257142D01*
X156459523Y-100161904D01*
X156459523Y-99352380D01*
X157459523Y-100352380D02*
X156888095Y-100352380D01*
X157173809Y-100352380D02*
X157173809Y-99352380D01*
X157078571Y-99495238D01*
X156983333Y-99590476D01*
X156888095Y-99638095D01*
G04 #@! TO.C,U2*
X136252380Y-73811904D02*
X137061904Y-73811904D01*
X137157142Y-73764285D01*
X137204761Y-73716666D01*
X137252380Y-73621428D01*
X137252380Y-73430952D01*
X137204761Y-73335714D01*
X137157142Y-73288095D01*
X137061904Y-73240476D01*
X136252380Y-73240476D01*
X136347619Y-72811904D02*
X136300000Y-72764285D01*
X136252380Y-72669047D01*
X136252380Y-72430952D01*
X136300000Y-72335714D01*
X136347619Y-72288095D01*
X136442857Y-72240476D01*
X136538095Y-72240476D01*
X136680952Y-72288095D01*
X137252380Y-72859523D01*
X137252380Y-72240476D01*
G04 #@! TO.C,D1*
X146252380Y-75288095D02*
X145252380Y-75288095D01*
X145252380Y-75050000D01*
X145300000Y-74907142D01*
X145395238Y-74811904D01*
X145490476Y-74764285D01*
X145680952Y-74716666D01*
X145823809Y-74716666D01*
X146014285Y-74764285D01*
X146109523Y-74811904D01*
X146204761Y-74907142D01*
X146252380Y-75050000D01*
X146252380Y-75288095D01*
X146252380Y-73764285D02*
X146252380Y-74335714D01*
X146252380Y-74050000D02*
X145252380Y-74050000D01*
X145395238Y-74145238D01*
X145490476Y-74240476D01*
X145538095Y-74335714D01*
G04 #@! TO.C,Y1*
X175023809Y-101826190D02*
X175023809Y-102302380D01*
X174690476Y-101302380D02*
X175023809Y-101826190D01*
X175357142Y-101302380D01*
X176214285Y-102302380D02*
X175642857Y-102302380D01*
X175928571Y-102302380D02*
X175928571Y-101302380D01*
X175833333Y-101445238D01*
X175738095Y-101540476D01*
X175642857Y-101588095D01*
G04 #@! TO.C,J2*
X130366666Y-137592380D02*
X130366666Y-138306666D01*
X130319047Y-138449523D01*
X130223809Y-138544761D01*
X130080952Y-138592380D01*
X129985714Y-138592380D01*
X130795238Y-137687619D02*
X130842857Y-137640000D01*
X130938095Y-137592380D01*
X131176190Y-137592380D01*
X131271428Y-137640000D01*
X131319047Y-137687619D01*
X131366666Y-137782857D01*
X131366666Y-137878095D01*
X131319047Y-138020952D01*
X130747619Y-138592380D01*
X131366666Y-138592380D01*
G04 #@! TO.C,J3*
X175866666Y-63312380D02*
X175866666Y-64026666D01*
X175819047Y-64169523D01*
X175723809Y-64264761D01*
X175580952Y-64312380D01*
X175485714Y-64312380D01*
X176247619Y-63312380D02*
X176866666Y-63312380D01*
X176533333Y-63693333D01*
X176676190Y-63693333D01*
X176771428Y-63740952D01*
X176819047Y-63788571D01*
X176866666Y-63883809D01*
X176866666Y-64121904D01*
X176819047Y-64217142D01*
X176771428Y-64264761D01*
X176676190Y-64312380D01*
X176390476Y-64312380D01*
X176295238Y-64264761D01*
X176247619Y-64217142D01*
G04 #@! TO.C,J4*
X181892380Y-109533333D02*
X182606666Y-109533333D01*
X182749523Y-109580952D01*
X182844761Y-109676190D01*
X182892380Y-109819047D01*
X182892380Y-109914285D01*
X182225714Y-108628571D02*
X182892380Y-108628571D01*
X181844761Y-108866666D02*
X182559047Y-109104761D01*
X182559047Y-108485714D01*
G04 #@! TO.C,J5*
X108812380Y-87833333D02*
X109526666Y-87833333D01*
X109669523Y-87880952D01*
X109764761Y-87976190D01*
X109812380Y-88119047D01*
X109812380Y-88214285D01*
X108812380Y-86880952D02*
X108812380Y-87357142D01*
X109288571Y-87404761D01*
X109240952Y-87357142D01*
X109193333Y-87261904D01*
X109193333Y-87023809D01*
X109240952Y-86928571D01*
X109288571Y-86880952D01*
X109383809Y-86833333D01*
X109621904Y-86833333D01*
X109717142Y-86880952D01*
X109764761Y-86928571D01*
X109812380Y-87023809D01*
X109812380Y-87261904D01*
X109764761Y-87357142D01*
X109717142Y-87404761D01*
G04 #@! TO.C,J6*
X108812380Y-65233333D02*
X109526666Y-65233333D01*
X109669523Y-65280952D01*
X109764761Y-65376190D01*
X109812380Y-65519047D01*
X109812380Y-65614285D01*
X108812380Y-64328571D02*
X108812380Y-64519047D01*
X108860000Y-64614285D01*
X108907619Y-64661904D01*
X109050476Y-64757142D01*
X109240952Y-64804761D01*
X109621904Y-64804761D01*
X109717142Y-64757142D01*
X109764761Y-64709523D01*
X109812380Y-64614285D01*
X109812380Y-64423809D01*
X109764761Y-64328571D01*
X109717142Y-64280952D01*
X109621904Y-64233333D01*
X109383809Y-64233333D01*
X109288571Y-64280952D01*
X109240952Y-64328571D01*
X109193333Y-64423809D01*
X109193333Y-64614285D01*
X109240952Y-64709523D01*
X109288571Y-64757142D01*
X109383809Y-64804761D01*
G04 #@! TO.C,J7*
X177366666Y-137592380D02*
X177366666Y-138306666D01*
X177319047Y-138449523D01*
X177223809Y-138544761D01*
X177080952Y-138592380D01*
X176985714Y-138592380D01*
X177747619Y-137592380D02*
X178414285Y-137592380D01*
X177985714Y-138592380D01*
G04 #@! TO.C,J8*
X137466666Y-63312380D02*
X137466666Y-64026666D01*
X137419047Y-64169523D01*
X137323809Y-64264761D01*
X137180952Y-64312380D01*
X137085714Y-64312380D01*
X138085714Y-63740952D02*
X137990476Y-63693333D01*
X137942857Y-63645714D01*
X137895238Y-63550476D01*
X137895238Y-63502857D01*
X137942857Y-63407619D01*
X137990476Y-63360000D01*
X138085714Y-63312380D01*
X138276190Y-63312380D01*
X138371428Y-63360000D01*
X138419047Y-63407619D01*
X138466666Y-63502857D01*
X138466666Y-63550476D01*
X138419047Y-63645714D01*
X138371428Y-63693333D01*
X138276190Y-63740952D01*
X138085714Y-63740952D01*
X137990476Y-63788571D01*
X137942857Y-63836190D01*
X137895238Y-63931428D01*
X137895238Y-64121904D01*
X137942857Y-64217142D01*
X137990476Y-64264761D01*
X138085714Y-64312380D01*
X138276190Y-64312380D01*
X138371428Y-64264761D01*
X138419047Y-64217142D01*
X138466666Y-64121904D01*
X138466666Y-63931428D01*
X138419047Y-63836190D01*
X138371428Y-63788571D01*
X138276190Y-63740952D01*
G04 #@! TO.C,D6*
X169552380Y-68138095D02*
X168552380Y-68138095D01*
X168552380Y-67900000D01*
X168600000Y-67757142D01*
X168695238Y-67661904D01*
X168790476Y-67614285D01*
X168980952Y-67566666D01*
X169123809Y-67566666D01*
X169314285Y-67614285D01*
X169409523Y-67661904D01*
X169504761Y-67757142D01*
X169552380Y-67900000D01*
X169552380Y-68138095D01*
X168552380Y-66709523D02*
X168552380Y-66900000D01*
X168600000Y-66995238D01*
X168647619Y-67042857D01*
X168790476Y-67138095D01*
X168980952Y-67185714D01*
X169361904Y-67185714D01*
X169457142Y-67138095D01*
X169504761Y-67090476D01*
X169552380Y-66995238D01*
X169552380Y-66804761D01*
X169504761Y-66709523D01*
X169457142Y-66661904D01*
X169361904Y-66614285D01*
X169123809Y-66614285D01*
X169028571Y-66661904D01*
X168980952Y-66709523D01*
X168933333Y-66804761D01*
X168933333Y-66995238D01*
X168980952Y-67090476D01*
X169028571Y-67138095D01*
X169123809Y-67185714D01*
G04 #@! TO.C,D7*
X182852380Y-68138095D02*
X181852380Y-68138095D01*
X181852380Y-67900000D01*
X181900000Y-67757142D01*
X181995238Y-67661904D01*
X182090476Y-67614285D01*
X182280952Y-67566666D01*
X182423809Y-67566666D01*
X182614285Y-67614285D01*
X182709523Y-67661904D01*
X182804761Y-67757142D01*
X182852380Y-67900000D01*
X182852380Y-68138095D01*
X181852380Y-67233333D02*
X181852380Y-66566666D01*
X182852380Y-66995238D01*
G04 #@! TO.C,D8*
X188052380Y-68138095D02*
X187052380Y-68138095D01*
X187052380Y-67900000D01*
X187100000Y-67757142D01*
X187195238Y-67661904D01*
X187290476Y-67614285D01*
X187480952Y-67566666D01*
X187623809Y-67566666D01*
X187814285Y-67614285D01*
X187909523Y-67661904D01*
X188004761Y-67757142D01*
X188052380Y-67900000D01*
X188052380Y-68138095D01*
X187480952Y-66995238D02*
X187433333Y-67090476D01*
X187385714Y-67138095D01*
X187290476Y-67185714D01*
X187242857Y-67185714D01*
X187147619Y-67138095D01*
X187100000Y-67090476D01*
X187052380Y-66995238D01*
X187052380Y-66804761D01*
X187100000Y-66709523D01*
X187147619Y-66661904D01*
X187242857Y-66614285D01*
X187290476Y-66614285D01*
X187385714Y-66661904D01*
X187433333Y-66709523D01*
X187480952Y-66804761D01*
X187480952Y-66995238D01*
X187528571Y-67090476D01*
X187576190Y-67138095D01*
X187671428Y-67185714D01*
X187861904Y-67185714D01*
X187957142Y-67138095D01*
X188004761Y-67090476D01*
X188052380Y-66995238D01*
X188052380Y-66804761D01*
X188004761Y-66709523D01*
X187957142Y-66661904D01*
X187861904Y-66614285D01*
X187671428Y-66614285D01*
X187576190Y-66661904D01*
X187528571Y-66709523D01*
X187480952Y-66804761D01*
G04 #@! TO.C,Q1*
X106927619Y-128250238D02*
X106880000Y-128345476D01*
X106784761Y-128440714D01*
X106641904Y-128583571D01*
X106594285Y-128678809D01*
X106594285Y-128774047D01*
X106832380Y-128726428D02*
X106784761Y-128821666D01*
X106689523Y-128916904D01*
X106499047Y-128964523D01*
X106165714Y-128964523D01*
X105975238Y-128916904D01*
X105880000Y-128821666D01*
X105832380Y-128726428D01*
X105832380Y-128535952D01*
X105880000Y-128440714D01*
X105975238Y-128345476D01*
X106165714Y-128297857D01*
X106499047Y-128297857D01*
X106689523Y-128345476D01*
X106784761Y-128440714D01*
X106832380Y-128535952D01*
X106832380Y-128726428D01*
X106832380Y-127345476D02*
X106832380Y-127916904D01*
X106832380Y-127631190D02*
X105832380Y-127631190D01*
X105975238Y-127726428D01*
X106070476Y-127821666D01*
X106118095Y-127916904D01*
G04 #@! TO.C,Q2*
X113927619Y-128250238D02*
X113880000Y-128345476D01*
X113784761Y-128440714D01*
X113641904Y-128583571D01*
X113594285Y-128678809D01*
X113594285Y-128774047D01*
X113832380Y-128726428D02*
X113784761Y-128821666D01*
X113689523Y-128916904D01*
X113499047Y-128964523D01*
X113165714Y-128964523D01*
X112975238Y-128916904D01*
X112880000Y-128821666D01*
X112832380Y-128726428D01*
X112832380Y-128535952D01*
X112880000Y-128440714D01*
X112975238Y-128345476D01*
X113165714Y-128297857D01*
X113499047Y-128297857D01*
X113689523Y-128345476D01*
X113784761Y-128440714D01*
X113832380Y-128535952D01*
X113832380Y-128726428D01*
X112927619Y-127916904D02*
X112880000Y-127869285D01*
X112832380Y-127774047D01*
X112832380Y-127535952D01*
X112880000Y-127440714D01*
X112927619Y-127393095D01*
X113022857Y-127345476D01*
X113118095Y-127345476D01*
X113260952Y-127393095D01*
X113832380Y-127964523D01*
X113832380Y-127345476D01*
G04 #@! TO.C,Q3*
X120927619Y-128250238D02*
X120880000Y-128345476D01*
X120784761Y-128440714D01*
X120641904Y-128583571D01*
X120594285Y-128678809D01*
X120594285Y-128774047D01*
X120832380Y-128726428D02*
X120784761Y-128821666D01*
X120689523Y-128916904D01*
X120499047Y-128964523D01*
X120165714Y-128964523D01*
X119975238Y-128916904D01*
X119880000Y-128821666D01*
X119832380Y-128726428D01*
X119832380Y-128535952D01*
X119880000Y-128440714D01*
X119975238Y-128345476D01*
X120165714Y-128297857D01*
X120499047Y-128297857D01*
X120689523Y-128345476D01*
X120784761Y-128440714D01*
X120832380Y-128535952D01*
X120832380Y-128726428D01*
X119832380Y-127964523D02*
X119832380Y-127345476D01*
X120213333Y-127678809D01*
X120213333Y-127535952D01*
X120260952Y-127440714D01*
X120308571Y-127393095D01*
X120403809Y-127345476D01*
X120641904Y-127345476D01*
X120737142Y-127393095D01*
X120784761Y-127440714D01*
X120832380Y-127535952D01*
X120832380Y-127821666D01*
X120784761Y-127916904D01*
X120737142Y-127964523D01*
G04 #@! TO.C,Q4*
X127927619Y-128250238D02*
X127880000Y-128345476D01*
X127784761Y-128440714D01*
X127641904Y-128583571D01*
X127594285Y-128678809D01*
X127594285Y-128774047D01*
X127832380Y-128726428D02*
X127784761Y-128821666D01*
X127689523Y-128916904D01*
X127499047Y-128964523D01*
X127165714Y-128964523D01*
X126975238Y-128916904D01*
X126880000Y-128821666D01*
X126832380Y-128726428D01*
X126832380Y-128535952D01*
X126880000Y-128440714D01*
X126975238Y-128345476D01*
X127165714Y-128297857D01*
X127499047Y-128297857D01*
X127689523Y-128345476D01*
X127784761Y-128440714D01*
X127832380Y-128535952D01*
X127832380Y-128726428D01*
X127165714Y-127440714D02*
X127832380Y-127440714D01*
X126784761Y-127678809D02*
X127499047Y-127916904D01*
X127499047Y-127297857D01*
G04 #@! TO.C,Q5*
X134927619Y-128250238D02*
X134880000Y-128345476D01*
X134784761Y-128440714D01*
X134641904Y-128583571D01*
X134594285Y-128678809D01*
X134594285Y-128774047D01*
X134832380Y-128726428D02*
X134784761Y-128821666D01*
X134689523Y-128916904D01*
X134499047Y-128964523D01*
X134165714Y-128964523D01*
X133975238Y-128916904D01*
X133880000Y-128821666D01*
X133832380Y-128726428D01*
X133832380Y-128535952D01*
X133880000Y-128440714D01*
X133975238Y-128345476D01*
X134165714Y-128297857D01*
X134499047Y-128297857D01*
X134689523Y-128345476D01*
X134784761Y-128440714D01*
X134832380Y-128535952D01*
X134832380Y-128726428D01*
X133832380Y-127393095D02*
X133832380Y-127869285D01*
X134308571Y-127916904D01*
X134260952Y-127869285D01*
X134213333Y-127774047D01*
X134213333Y-127535952D01*
X134260952Y-127440714D01*
X134308571Y-127393095D01*
X134403809Y-127345476D01*
X134641904Y-127345476D01*
X134737142Y-127393095D01*
X134784761Y-127440714D01*
X134832380Y-127535952D01*
X134832380Y-127774047D01*
X134784761Y-127869285D01*
X134737142Y-127916904D01*
G04 #@! TO.C,Q6*
X141927619Y-128250238D02*
X141880000Y-128345476D01*
X141784761Y-128440714D01*
X141641904Y-128583571D01*
X141594285Y-128678809D01*
X141594285Y-128774047D01*
X141832380Y-128726428D02*
X141784761Y-128821666D01*
X141689523Y-128916904D01*
X141499047Y-128964523D01*
X141165714Y-128964523D01*
X140975238Y-128916904D01*
X140880000Y-128821666D01*
X140832380Y-128726428D01*
X140832380Y-128535952D01*
X140880000Y-128440714D01*
X140975238Y-128345476D01*
X141165714Y-128297857D01*
X141499047Y-128297857D01*
X141689523Y-128345476D01*
X141784761Y-128440714D01*
X141832380Y-128535952D01*
X141832380Y-128726428D01*
X140832380Y-127440714D02*
X140832380Y-127631190D01*
X140880000Y-127726428D01*
X140927619Y-127774047D01*
X141070476Y-127869285D01*
X141260952Y-127916904D01*
X141641904Y-127916904D01*
X141737142Y-127869285D01*
X141784761Y-127821666D01*
X141832380Y-127726428D01*
X141832380Y-127535952D01*
X141784761Y-127440714D01*
X141737142Y-127393095D01*
X141641904Y-127345476D01*
X141403809Y-127345476D01*
X141308571Y-127393095D01*
X141260952Y-127440714D01*
X141213333Y-127535952D01*
X141213333Y-127726428D01*
X141260952Y-127821666D01*
X141308571Y-127869285D01*
X141403809Y-127916904D01*
G04 #@! TO.C,Q7*
X148927619Y-128215238D02*
X148880000Y-128310476D01*
X148784761Y-128405714D01*
X148641904Y-128548571D01*
X148594285Y-128643809D01*
X148594285Y-128739047D01*
X148832380Y-128691428D02*
X148784761Y-128786666D01*
X148689523Y-128881904D01*
X148499047Y-128929523D01*
X148165714Y-128929523D01*
X147975238Y-128881904D01*
X147880000Y-128786666D01*
X147832380Y-128691428D01*
X147832380Y-128500952D01*
X147880000Y-128405714D01*
X147975238Y-128310476D01*
X148165714Y-128262857D01*
X148499047Y-128262857D01*
X148689523Y-128310476D01*
X148784761Y-128405714D01*
X148832380Y-128500952D01*
X148832380Y-128691428D01*
X147832380Y-127929523D02*
X147832380Y-127262857D01*
X148832380Y-127691428D01*
G04 #@! TO.C,Q8*
X155927619Y-128250238D02*
X155880000Y-128345476D01*
X155784761Y-128440714D01*
X155641904Y-128583571D01*
X155594285Y-128678809D01*
X155594285Y-128774047D01*
X155832380Y-128726428D02*
X155784761Y-128821666D01*
X155689523Y-128916904D01*
X155499047Y-128964523D01*
X155165714Y-128964523D01*
X154975238Y-128916904D01*
X154880000Y-128821666D01*
X154832380Y-128726428D01*
X154832380Y-128535952D01*
X154880000Y-128440714D01*
X154975238Y-128345476D01*
X155165714Y-128297857D01*
X155499047Y-128297857D01*
X155689523Y-128345476D01*
X155784761Y-128440714D01*
X155832380Y-128535952D01*
X155832380Y-128726428D01*
X155260952Y-127726428D02*
X155213333Y-127821666D01*
X155165714Y-127869285D01*
X155070476Y-127916904D01*
X155022857Y-127916904D01*
X154927619Y-127869285D01*
X154880000Y-127821666D01*
X154832380Y-127726428D01*
X154832380Y-127535952D01*
X154880000Y-127440714D01*
X154927619Y-127393095D01*
X155022857Y-127345476D01*
X155070476Y-127345476D01*
X155165714Y-127393095D01*
X155213333Y-127440714D01*
X155260952Y-127535952D01*
X155260952Y-127726428D01*
X155308571Y-127821666D01*
X155356190Y-127869285D01*
X155451428Y-127916904D01*
X155641904Y-127916904D01*
X155737142Y-127869285D01*
X155784761Y-127821666D01*
X155832380Y-127726428D01*
X155832380Y-127535952D01*
X155784761Y-127440714D01*
X155737142Y-127393095D01*
X155641904Y-127345476D01*
X155451428Y-127345476D01*
X155356190Y-127393095D01*
X155308571Y-127440714D01*
X155260952Y-127535952D01*
G04 #@! TO.C,Q9*
X162927619Y-128250238D02*
X162880000Y-128345476D01*
X162784761Y-128440714D01*
X162641904Y-128583571D01*
X162594285Y-128678809D01*
X162594285Y-128774047D01*
X162832380Y-128726428D02*
X162784761Y-128821666D01*
X162689523Y-128916904D01*
X162499047Y-128964523D01*
X162165714Y-128964523D01*
X161975238Y-128916904D01*
X161880000Y-128821666D01*
X161832380Y-128726428D01*
X161832380Y-128535952D01*
X161880000Y-128440714D01*
X161975238Y-128345476D01*
X162165714Y-128297857D01*
X162499047Y-128297857D01*
X162689523Y-128345476D01*
X162784761Y-128440714D01*
X162832380Y-128535952D01*
X162832380Y-128726428D01*
X162832380Y-127821666D02*
X162832380Y-127631190D01*
X162784761Y-127535952D01*
X162737142Y-127488333D01*
X162594285Y-127393095D01*
X162403809Y-127345476D01*
X162022857Y-127345476D01*
X161927619Y-127393095D01*
X161880000Y-127440714D01*
X161832380Y-127535952D01*
X161832380Y-127726428D01*
X161880000Y-127821666D01*
X161927619Y-127869285D01*
X162022857Y-127916904D01*
X162260952Y-127916904D01*
X162356190Y-127869285D01*
X162403809Y-127821666D01*
X162451428Y-127726428D01*
X162451428Y-127535952D01*
X162403809Y-127440714D01*
X162356190Y-127393095D01*
X162260952Y-127345476D01*
G04 #@! TO.C,J1*
X103936666Y-105922380D02*
X103936666Y-106636666D01*
X103889047Y-106779523D01*
X103793809Y-106874761D01*
X103650952Y-106922380D01*
X103555714Y-106922380D01*
X104936666Y-106922380D02*
X104365238Y-106922380D01*
X104650952Y-106922380D02*
X104650952Y-105922380D01*
X104555714Y-106065238D01*
X104460476Y-106160476D01*
X104365238Y-106208095D01*
G04 #@! TO.C,J10*
X161090476Y-107822380D02*
X161090476Y-108536666D01*
X161042857Y-108679523D01*
X160947619Y-108774761D01*
X160804761Y-108822380D01*
X160709523Y-108822380D01*
X162090476Y-108822380D02*
X161519047Y-108822380D01*
X161804761Y-108822380D02*
X161804761Y-107822380D01*
X161709523Y-107965238D01*
X161614285Y-108060476D01*
X161519047Y-108108095D01*
X162709523Y-107822380D02*
X162804761Y-107822380D01*
X162900000Y-107870000D01*
X162947619Y-107917619D01*
X162995238Y-108012857D01*
X163042857Y-108203333D01*
X163042857Y-108441428D01*
X162995238Y-108631904D01*
X162947619Y-108727142D01*
X162900000Y-108774761D01*
X162804761Y-108822380D01*
X162709523Y-108822380D01*
X162614285Y-108774761D01*
X162566666Y-108727142D01*
X162519047Y-108631904D01*
X162471428Y-108441428D01*
X162471428Y-108203333D01*
X162519047Y-108012857D01*
X162566666Y-107917619D01*
X162614285Y-107870000D01*
X162709523Y-107822380D01*
G04 #@! TO.C,D2*
X167461904Y-74652380D02*
X167461904Y-73652380D01*
X167700000Y-73652380D01*
X167842857Y-73700000D01*
X167938095Y-73795238D01*
X167985714Y-73890476D01*
X168033333Y-74080952D01*
X168033333Y-74223809D01*
X167985714Y-74414285D01*
X167938095Y-74509523D01*
X167842857Y-74604761D01*
X167700000Y-74652380D01*
X167461904Y-74652380D01*
X168414285Y-73747619D02*
X168461904Y-73700000D01*
X168557142Y-73652380D01*
X168795238Y-73652380D01*
X168890476Y-73700000D01*
X168938095Y-73747619D01*
X168985714Y-73842857D01*
X168985714Y-73938095D01*
X168938095Y-74080952D01*
X168366666Y-74652380D01*
X168985714Y-74652380D01*
G04 #@! TO.C,D3*
X191052380Y-81138095D02*
X190052380Y-81138095D01*
X190052380Y-80900000D01*
X190100000Y-80757142D01*
X190195238Y-80661904D01*
X190290476Y-80614285D01*
X190480952Y-80566666D01*
X190623809Y-80566666D01*
X190814285Y-80614285D01*
X190909523Y-80661904D01*
X191004761Y-80757142D01*
X191052380Y-80900000D01*
X191052380Y-81138095D01*
X190052380Y-80233333D02*
X190052380Y-79614285D01*
X190433333Y-79947619D01*
X190433333Y-79804761D01*
X190480952Y-79709523D01*
X190528571Y-79661904D01*
X190623809Y-79614285D01*
X190861904Y-79614285D01*
X190957142Y-79661904D01*
X191004761Y-79709523D01*
X191052380Y-79804761D01*
X191052380Y-80090476D01*
X191004761Y-80185714D01*
X190957142Y-80233333D01*
G04 #@! TO.C,D4*
X167461904Y-79552380D02*
X167461904Y-78552380D01*
X167700000Y-78552380D01*
X167842857Y-78600000D01*
X167938095Y-78695238D01*
X167985714Y-78790476D01*
X168033333Y-78980952D01*
X168033333Y-79123809D01*
X167985714Y-79314285D01*
X167938095Y-79409523D01*
X167842857Y-79504761D01*
X167700000Y-79552380D01*
X167461904Y-79552380D01*
X168890476Y-78885714D02*
X168890476Y-79552380D01*
X168652380Y-78504761D02*
X168414285Y-79219047D01*
X169033333Y-79219047D01*
G04 #@! TO.C,D5*
X194952380Y-63638095D02*
X193952380Y-63638095D01*
X193952380Y-63400000D01*
X194000000Y-63257142D01*
X194095238Y-63161904D01*
X194190476Y-63114285D01*
X194380952Y-63066666D01*
X194523809Y-63066666D01*
X194714285Y-63114285D01*
X194809523Y-63161904D01*
X194904761Y-63257142D01*
X194952380Y-63400000D01*
X194952380Y-63638095D01*
X193952380Y-62161904D02*
X193952380Y-62638095D01*
X194428571Y-62685714D01*
X194380952Y-62638095D01*
X194333333Y-62542857D01*
X194333333Y-62304761D01*
X194380952Y-62209523D01*
X194428571Y-62161904D01*
X194523809Y-62114285D01*
X194761904Y-62114285D01*
X194857142Y-62161904D01*
X194904761Y-62209523D01*
X194952380Y-62304761D01*
X194952380Y-62542857D01*
X194904761Y-62638095D01*
X194857142Y-62685714D01*
G04 #@! TO.C,D9*
X165052380Y-73038095D02*
X164052380Y-73038095D01*
X164052380Y-72800000D01*
X164100000Y-72657142D01*
X164195238Y-72561904D01*
X164290476Y-72514285D01*
X164480952Y-72466666D01*
X164623809Y-72466666D01*
X164814285Y-72514285D01*
X164909523Y-72561904D01*
X165004761Y-72657142D01*
X165052380Y-72800000D01*
X165052380Y-73038095D01*
X165052380Y-71990476D02*
X165052380Y-71800000D01*
X165004761Y-71704761D01*
X164957142Y-71657142D01*
X164814285Y-71561904D01*
X164623809Y-71514285D01*
X164242857Y-71514285D01*
X164147619Y-71561904D01*
X164100000Y-71609523D01*
X164052380Y-71704761D01*
X164052380Y-71895238D01*
X164100000Y-71990476D01*
X164147619Y-72038095D01*
X164242857Y-72085714D01*
X164480952Y-72085714D01*
X164576190Y-72038095D01*
X164623809Y-71990476D01*
X164671428Y-71895238D01*
X164671428Y-71704761D01*
X164623809Y-71609523D01*
X164576190Y-71561904D01*
X164480952Y-71514285D01*
G04 #@! TO.C,D10*
X193152380Y-130914285D02*
X192152380Y-130914285D01*
X192152380Y-130676190D01*
X192200000Y-130533333D01*
X192295238Y-130438095D01*
X192390476Y-130390476D01*
X192580952Y-130342857D01*
X192723809Y-130342857D01*
X192914285Y-130390476D01*
X193009523Y-130438095D01*
X193104761Y-130533333D01*
X193152380Y-130676190D01*
X193152380Y-130914285D01*
X193152380Y-129390476D02*
X193152380Y-129961904D01*
X193152380Y-129676190D02*
X192152380Y-129676190D01*
X192295238Y-129771428D01*
X192390476Y-129866666D01*
X192438095Y-129961904D01*
X192152380Y-128771428D02*
X192152380Y-128676190D01*
X192200000Y-128580952D01*
X192247619Y-128533333D01*
X192342857Y-128485714D01*
X192533333Y-128438095D01*
X192771428Y-128438095D01*
X192961904Y-128485714D01*
X193057142Y-128533333D01*
X193104761Y-128580952D01*
X193152380Y-128676190D01*
X193152380Y-128771428D01*
X193104761Y-128866666D01*
X193057142Y-128914285D01*
X192961904Y-128961904D01*
X192771428Y-129009523D01*
X192533333Y-129009523D01*
X192342857Y-128961904D01*
X192247619Y-128914285D01*
X192200000Y-128866666D01*
X192152380Y-128771428D01*
G04 #@! TO.C,D11*
X188152380Y-130914285D02*
X187152380Y-130914285D01*
X187152380Y-130676190D01*
X187200000Y-130533333D01*
X187295238Y-130438095D01*
X187390476Y-130390476D01*
X187580952Y-130342857D01*
X187723809Y-130342857D01*
X187914285Y-130390476D01*
X188009523Y-130438095D01*
X188104761Y-130533333D01*
X188152380Y-130676190D01*
X188152380Y-130914285D01*
X188152380Y-129390476D02*
X188152380Y-129961904D01*
X188152380Y-129676190D02*
X187152380Y-129676190D01*
X187295238Y-129771428D01*
X187390476Y-129866666D01*
X187438095Y-129961904D01*
X188152380Y-128438095D02*
X188152380Y-129009523D01*
X188152380Y-128723809D02*
X187152380Y-128723809D01*
X187295238Y-128819047D01*
X187390476Y-128914285D01*
X187438095Y-129009523D01*
G04 #@! TO.C,D12*
X183152380Y-130914285D02*
X182152380Y-130914285D01*
X182152380Y-130676190D01*
X182200000Y-130533333D01*
X182295238Y-130438095D01*
X182390476Y-130390476D01*
X182580952Y-130342857D01*
X182723809Y-130342857D01*
X182914285Y-130390476D01*
X183009523Y-130438095D01*
X183104761Y-130533333D01*
X183152380Y-130676190D01*
X183152380Y-130914285D01*
X183152380Y-129390476D02*
X183152380Y-129961904D01*
X183152380Y-129676190D02*
X182152380Y-129676190D01*
X182295238Y-129771428D01*
X182390476Y-129866666D01*
X182438095Y-129961904D01*
X182247619Y-129009523D02*
X182200000Y-128961904D01*
X182152380Y-128866666D01*
X182152380Y-128628571D01*
X182200000Y-128533333D01*
X182247619Y-128485714D01*
X182342857Y-128438095D01*
X182438095Y-128438095D01*
X182580952Y-128485714D01*
X183152380Y-129057142D01*
X183152380Y-128438095D01*
G04 #@! TO.C,D13*
X178152380Y-130914285D02*
X177152380Y-130914285D01*
X177152380Y-130676190D01*
X177200000Y-130533333D01*
X177295238Y-130438095D01*
X177390476Y-130390476D01*
X177580952Y-130342857D01*
X177723809Y-130342857D01*
X177914285Y-130390476D01*
X178009523Y-130438095D01*
X178104761Y-130533333D01*
X178152380Y-130676190D01*
X178152380Y-130914285D01*
X178152380Y-129390476D02*
X178152380Y-129961904D01*
X178152380Y-129676190D02*
X177152380Y-129676190D01*
X177295238Y-129771428D01*
X177390476Y-129866666D01*
X177438095Y-129961904D01*
X177152380Y-129057142D02*
X177152380Y-128438095D01*
X177533333Y-128771428D01*
X177533333Y-128628571D01*
X177580952Y-128533333D01*
X177628571Y-128485714D01*
X177723809Y-128438095D01*
X177961904Y-128438095D01*
X178057142Y-128485714D01*
X178104761Y-128533333D01*
X178152380Y-128628571D01*
X178152380Y-128914285D01*
X178104761Y-129009523D01*
X178057142Y-129057142D01*
G04 #@! TO.C,D14*
X173152380Y-130914285D02*
X172152380Y-130914285D01*
X172152380Y-130676190D01*
X172200000Y-130533333D01*
X172295238Y-130438095D01*
X172390476Y-130390476D01*
X172580952Y-130342857D01*
X172723809Y-130342857D01*
X172914285Y-130390476D01*
X173009523Y-130438095D01*
X173104761Y-130533333D01*
X173152380Y-130676190D01*
X173152380Y-130914285D01*
X173152380Y-129390476D02*
X173152380Y-129961904D01*
X173152380Y-129676190D02*
X172152380Y-129676190D01*
X172295238Y-129771428D01*
X172390476Y-129866666D01*
X172438095Y-129961904D01*
X172485714Y-128533333D02*
X173152380Y-128533333D01*
X172104761Y-128771428D02*
X172819047Y-129009523D01*
X172819047Y-128390476D01*
G04 #@! TO.C,D15*
X168152380Y-130914285D02*
X167152380Y-130914285D01*
X167152380Y-130676190D01*
X167200000Y-130533333D01*
X167295238Y-130438095D01*
X167390476Y-130390476D01*
X167580952Y-130342857D01*
X167723809Y-130342857D01*
X167914285Y-130390476D01*
X168009523Y-130438095D01*
X168104761Y-130533333D01*
X168152380Y-130676190D01*
X168152380Y-130914285D01*
X168152380Y-129390476D02*
X168152380Y-129961904D01*
X168152380Y-129676190D02*
X167152380Y-129676190D01*
X167295238Y-129771428D01*
X167390476Y-129866666D01*
X167438095Y-129961904D01*
X167152380Y-128485714D02*
X167152380Y-128961904D01*
X167628571Y-129009523D01*
X167580952Y-128961904D01*
X167533333Y-128866666D01*
X167533333Y-128628571D01*
X167580952Y-128533333D01*
X167628571Y-128485714D01*
X167723809Y-128438095D01*
X167961904Y-128438095D01*
X168057142Y-128485714D01*
X168104761Y-128533333D01*
X168152380Y-128628571D01*
X168152380Y-128866666D01*
X168104761Y-128961904D01*
X168057142Y-129009523D01*
G04 #@! TO.C,D16*
X178352380Y-73514285D02*
X177352380Y-73514285D01*
X177352380Y-73276190D01*
X177400000Y-73133333D01*
X177495238Y-73038095D01*
X177590476Y-72990476D01*
X177780952Y-72942857D01*
X177923809Y-72942857D01*
X178114285Y-72990476D01*
X178209523Y-73038095D01*
X178304761Y-73133333D01*
X178352380Y-73276190D01*
X178352380Y-73514285D01*
X178352380Y-71990476D02*
X178352380Y-72561904D01*
X178352380Y-72276190D02*
X177352380Y-72276190D01*
X177495238Y-72371428D01*
X177590476Y-72466666D01*
X177638095Y-72561904D01*
X177352380Y-71133333D02*
X177352380Y-71323809D01*
X177400000Y-71419047D01*
X177447619Y-71466666D01*
X177590476Y-71561904D01*
X177780952Y-71609523D01*
X178161904Y-71609523D01*
X178257142Y-71561904D01*
X178304761Y-71514285D01*
X178352380Y-71419047D01*
X178352380Y-71228571D01*
X178304761Y-71133333D01*
X178257142Y-71085714D01*
X178161904Y-71038095D01*
X177923809Y-71038095D01*
X177828571Y-71085714D01*
X177780952Y-71133333D01*
X177733333Y-71228571D01*
X177733333Y-71419047D01*
X177780952Y-71514285D01*
X177828571Y-71561904D01*
X177923809Y-71609523D01*
G04 #@! TO.C,D17*
X183552380Y-73514285D02*
X182552380Y-73514285D01*
X182552380Y-73276190D01*
X182600000Y-73133333D01*
X182695238Y-73038095D01*
X182790476Y-72990476D01*
X182980952Y-72942857D01*
X183123809Y-72942857D01*
X183314285Y-72990476D01*
X183409523Y-73038095D01*
X183504761Y-73133333D01*
X183552380Y-73276190D01*
X183552380Y-73514285D01*
X183552380Y-71990476D02*
X183552380Y-72561904D01*
X183552380Y-72276190D02*
X182552380Y-72276190D01*
X182695238Y-72371428D01*
X182790476Y-72466666D01*
X182838095Y-72561904D01*
X182552380Y-71657142D02*
X182552380Y-70990476D01*
X183552380Y-71419047D01*
G04 #@! TO.C,D18*
X125585714Y-113152380D02*
X125585714Y-112152380D01*
X125823809Y-112152380D01*
X125966666Y-112200000D01*
X126061904Y-112295238D01*
X126109523Y-112390476D01*
X126157142Y-112580952D01*
X126157142Y-112723809D01*
X126109523Y-112914285D01*
X126061904Y-113009523D01*
X125966666Y-113104761D01*
X125823809Y-113152380D01*
X125585714Y-113152380D01*
X127109523Y-113152380D02*
X126538095Y-113152380D01*
X126823809Y-113152380D02*
X126823809Y-112152380D01*
X126728571Y-112295238D01*
X126633333Y-112390476D01*
X126538095Y-112438095D01*
X127680952Y-112580952D02*
X127585714Y-112533333D01*
X127538095Y-112485714D01*
X127490476Y-112390476D01*
X127490476Y-112342857D01*
X127538095Y-112247619D01*
X127585714Y-112200000D01*
X127680952Y-112152380D01*
X127871428Y-112152380D01*
X127966666Y-112200000D01*
X128014285Y-112247619D01*
X128061904Y-112342857D01*
X128061904Y-112390476D01*
X128014285Y-112485714D01*
X127966666Y-112533333D01*
X127871428Y-112580952D01*
X127680952Y-112580952D01*
X127585714Y-112628571D01*
X127538095Y-112676190D01*
X127490476Y-112771428D01*
X127490476Y-112961904D01*
X127538095Y-113057142D01*
X127585714Y-113104761D01*
X127680952Y-113152380D01*
X127871428Y-113152380D01*
X127966666Y-113104761D01*
X128014285Y-113057142D01*
X128061904Y-112961904D01*
X128061904Y-112771428D01*
X128014285Y-112676190D01*
X127966666Y-112628571D01*
X127871428Y-112580952D01*
G04 #@! TO.C,D19*
X125485714Y-108152380D02*
X125485714Y-107152380D01*
X125723809Y-107152380D01*
X125866666Y-107200000D01*
X125961904Y-107295238D01*
X126009523Y-107390476D01*
X126057142Y-107580952D01*
X126057142Y-107723809D01*
X126009523Y-107914285D01*
X125961904Y-108009523D01*
X125866666Y-108104761D01*
X125723809Y-108152380D01*
X125485714Y-108152380D01*
X127009523Y-108152380D02*
X126438095Y-108152380D01*
X126723809Y-108152380D02*
X126723809Y-107152380D01*
X126628571Y-107295238D01*
X126533333Y-107390476D01*
X126438095Y-107438095D01*
X127485714Y-108152380D02*
X127676190Y-108152380D01*
X127771428Y-108104761D01*
X127819047Y-108057142D01*
X127914285Y-107914285D01*
X127961904Y-107723809D01*
X127961904Y-107342857D01*
X127914285Y-107247619D01*
X127866666Y-107200000D01*
X127771428Y-107152380D01*
X127580952Y-107152380D01*
X127485714Y-107200000D01*
X127438095Y-107247619D01*
X127390476Y-107342857D01*
X127390476Y-107580952D01*
X127438095Y-107676190D01*
X127485714Y-107723809D01*
X127580952Y-107771428D01*
X127771428Y-107771428D01*
X127866666Y-107723809D01*
X127914285Y-107676190D01*
X127961904Y-107580952D01*
G04 #@! TO.C,D20*
X125485714Y-83152380D02*
X125485714Y-82152380D01*
X125723809Y-82152380D01*
X125866666Y-82200000D01*
X125961904Y-82295238D01*
X126009523Y-82390476D01*
X126057142Y-82580952D01*
X126057142Y-82723809D01*
X126009523Y-82914285D01*
X125961904Y-83009523D01*
X125866666Y-83104761D01*
X125723809Y-83152380D01*
X125485714Y-83152380D01*
X126438095Y-82247619D02*
X126485714Y-82200000D01*
X126580952Y-82152380D01*
X126819047Y-82152380D01*
X126914285Y-82200000D01*
X126961904Y-82247619D01*
X127009523Y-82342857D01*
X127009523Y-82438095D01*
X126961904Y-82580952D01*
X126390476Y-83152380D01*
X127009523Y-83152380D01*
X127628571Y-82152380D02*
X127723809Y-82152380D01*
X127819047Y-82200000D01*
X127866666Y-82247619D01*
X127914285Y-82342857D01*
X127961904Y-82533333D01*
X127961904Y-82771428D01*
X127914285Y-82961904D01*
X127866666Y-83057142D01*
X127819047Y-83104761D01*
X127723809Y-83152380D01*
X127628571Y-83152380D01*
X127533333Y-83104761D01*
X127485714Y-83057142D01*
X127438095Y-82961904D01*
X127390476Y-82771428D01*
X127390476Y-82533333D01*
X127438095Y-82342857D01*
X127485714Y-82247619D01*
X127533333Y-82200000D01*
X127628571Y-82152380D01*
G04 #@! TO.C,D21*
X125485714Y-78152380D02*
X125485714Y-77152380D01*
X125723809Y-77152380D01*
X125866666Y-77200000D01*
X125961904Y-77295238D01*
X126009523Y-77390476D01*
X126057142Y-77580952D01*
X126057142Y-77723809D01*
X126009523Y-77914285D01*
X125961904Y-78009523D01*
X125866666Y-78104761D01*
X125723809Y-78152380D01*
X125485714Y-78152380D01*
X126438095Y-77247619D02*
X126485714Y-77200000D01*
X126580952Y-77152380D01*
X126819047Y-77152380D01*
X126914285Y-77200000D01*
X126961904Y-77247619D01*
X127009523Y-77342857D01*
X127009523Y-77438095D01*
X126961904Y-77580952D01*
X126390476Y-78152380D01*
X127009523Y-78152380D01*
X127961904Y-78152380D02*
X127390476Y-78152380D01*
X127676190Y-78152380D02*
X127676190Y-77152380D01*
X127580952Y-77295238D01*
X127485714Y-77390476D01*
X127390476Y-77438095D01*
G04 #@! TO.C,D22*
X125485714Y-103152380D02*
X125485714Y-102152380D01*
X125723809Y-102152380D01*
X125866666Y-102200000D01*
X125961904Y-102295238D01*
X126009523Y-102390476D01*
X126057142Y-102580952D01*
X126057142Y-102723809D01*
X126009523Y-102914285D01*
X125961904Y-103009523D01*
X125866666Y-103104761D01*
X125723809Y-103152380D01*
X125485714Y-103152380D01*
X126438095Y-102247619D02*
X126485714Y-102200000D01*
X126580952Y-102152380D01*
X126819047Y-102152380D01*
X126914285Y-102200000D01*
X126961904Y-102247619D01*
X127009523Y-102342857D01*
X127009523Y-102438095D01*
X126961904Y-102580952D01*
X126390476Y-103152380D01*
X127009523Y-103152380D01*
X127390476Y-102247619D02*
X127438095Y-102200000D01*
X127533333Y-102152380D01*
X127771428Y-102152380D01*
X127866666Y-102200000D01*
X127914285Y-102247619D01*
X127961904Y-102342857D01*
X127961904Y-102438095D01*
X127914285Y-102580952D01*
X127342857Y-103152380D01*
X127961904Y-103152380D01*
G04 #@! TO.C,D23*
X125485714Y-98152380D02*
X125485714Y-97152380D01*
X125723809Y-97152380D01*
X125866666Y-97200000D01*
X125961904Y-97295238D01*
X126009523Y-97390476D01*
X126057142Y-97580952D01*
X126057142Y-97723809D01*
X126009523Y-97914285D01*
X125961904Y-98009523D01*
X125866666Y-98104761D01*
X125723809Y-98152380D01*
X125485714Y-98152380D01*
X126438095Y-97247619D02*
X126485714Y-97200000D01*
X126580952Y-97152380D01*
X126819047Y-97152380D01*
X126914285Y-97200000D01*
X126961904Y-97247619D01*
X127009523Y-97342857D01*
X127009523Y-97438095D01*
X126961904Y-97580952D01*
X126390476Y-98152380D01*
X127009523Y-98152380D01*
X127342857Y-97152380D02*
X127961904Y-97152380D01*
X127628571Y-97533333D01*
X127771428Y-97533333D01*
X127866666Y-97580952D01*
X127914285Y-97628571D01*
X127961904Y-97723809D01*
X127961904Y-97961904D01*
X127914285Y-98057142D01*
X127866666Y-98104761D01*
X127771428Y-98152380D01*
X127485714Y-98152380D01*
X127390476Y-98104761D01*
X127342857Y-98057142D01*
G04 #@! TO.C,D24*
X125485714Y-93152380D02*
X125485714Y-92152380D01*
X125723809Y-92152380D01*
X125866666Y-92200000D01*
X125961904Y-92295238D01*
X126009523Y-92390476D01*
X126057142Y-92580952D01*
X126057142Y-92723809D01*
X126009523Y-92914285D01*
X125961904Y-93009523D01*
X125866666Y-93104761D01*
X125723809Y-93152380D01*
X125485714Y-93152380D01*
X126438095Y-92247619D02*
X126485714Y-92200000D01*
X126580952Y-92152380D01*
X126819047Y-92152380D01*
X126914285Y-92200000D01*
X126961904Y-92247619D01*
X127009523Y-92342857D01*
X127009523Y-92438095D01*
X126961904Y-92580952D01*
X126390476Y-93152380D01*
X127009523Y-93152380D01*
X127866666Y-92485714D02*
X127866666Y-93152380D01*
X127628571Y-92104761D02*
X127390476Y-92819047D01*
X128009523Y-92819047D01*
G04 #@! TO.C,D25*
X125485714Y-88152380D02*
X125485714Y-87152380D01*
X125723809Y-87152380D01*
X125866666Y-87200000D01*
X125961904Y-87295238D01*
X126009523Y-87390476D01*
X126057142Y-87580952D01*
X126057142Y-87723809D01*
X126009523Y-87914285D01*
X125961904Y-88009523D01*
X125866666Y-88104761D01*
X125723809Y-88152380D01*
X125485714Y-88152380D01*
X126438095Y-87247619D02*
X126485714Y-87200000D01*
X126580952Y-87152380D01*
X126819047Y-87152380D01*
X126914285Y-87200000D01*
X126961904Y-87247619D01*
X127009523Y-87342857D01*
X127009523Y-87438095D01*
X126961904Y-87580952D01*
X126390476Y-88152380D01*
X127009523Y-88152380D01*
X127914285Y-87152380D02*
X127438095Y-87152380D01*
X127390476Y-87628571D01*
X127438095Y-87580952D01*
X127533333Y-87533333D01*
X127771428Y-87533333D01*
X127866666Y-87580952D01*
X127914285Y-87628571D01*
X127961904Y-87723809D01*
X127961904Y-87961904D01*
X127914285Y-88057142D01*
X127866666Y-88104761D01*
X127771428Y-88152380D01*
X127533333Y-88152380D01*
X127438095Y-88104761D01*
X127390476Y-88057142D01*
G04 #@! TO.C,C5*
X139033333Y-84757142D02*
X138985714Y-84804761D01*
X138842857Y-84852380D01*
X138747619Y-84852380D01*
X138604761Y-84804761D01*
X138509523Y-84709523D01*
X138461904Y-84614285D01*
X138414285Y-84423809D01*
X138414285Y-84280952D01*
X138461904Y-84090476D01*
X138509523Y-83995238D01*
X138604761Y-83900000D01*
X138747619Y-83852380D01*
X138842857Y-83852380D01*
X138985714Y-83900000D01*
X139033333Y-83947619D01*
X139938095Y-83852380D02*
X139461904Y-83852380D01*
X139414285Y-84328571D01*
X139461904Y-84280952D01*
X139557142Y-84233333D01*
X139795238Y-84233333D01*
X139890476Y-84280952D01*
X139938095Y-84328571D01*
X139985714Y-84423809D01*
X139985714Y-84661904D01*
X139938095Y-84757142D01*
X139890476Y-84804761D01*
X139795238Y-84852380D01*
X139557142Y-84852380D01*
X139461904Y-84804761D01*
X139414285Y-84757142D01*
G04 #@! TO.C,C2*
X150157142Y-74366666D02*
X150204761Y-74414285D01*
X150252380Y-74557142D01*
X150252380Y-74652380D01*
X150204761Y-74795238D01*
X150109523Y-74890476D01*
X150014285Y-74938095D01*
X149823809Y-74985714D01*
X149680952Y-74985714D01*
X149490476Y-74938095D01*
X149395238Y-74890476D01*
X149300000Y-74795238D01*
X149252380Y-74652380D01*
X149252380Y-74557142D01*
X149300000Y-74414285D01*
X149347619Y-74366666D01*
X149347619Y-73985714D02*
X149300000Y-73938095D01*
X149252380Y-73842857D01*
X149252380Y-73604761D01*
X149300000Y-73509523D01*
X149347619Y-73461904D01*
X149442857Y-73414285D01*
X149538095Y-73414285D01*
X149680952Y-73461904D01*
X150252380Y-74033333D01*
X150252380Y-73414285D01*
G04 #@! TO.C,C8*
X160233333Y-78607142D02*
X160185714Y-78654761D01*
X160042857Y-78702380D01*
X159947619Y-78702380D01*
X159804761Y-78654761D01*
X159709523Y-78559523D01*
X159661904Y-78464285D01*
X159614285Y-78273809D01*
X159614285Y-78130952D01*
X159661904Y-77940476D01*
X159709523Y-77845238D01*
X159804761Y-77750000D01*
X159947619Y-77702380D01*
X160042857Y-77702380D01*
X160185714Y-77750000D01*
X160233333Y-77797619D01*
X160804761Y-78130952D02*
X160709523Y-78083333D01*
X160661904Y-78035714D01*
X160614285Y-77940476D01*
X160614285Y-77892857D01*
X160661904Y-77797619D01*
X160709523Y-77750000D01*
X160804761Y-77702380D01*
X160995238Y-77702380D01*
X161090476Y-77750000D01*
X161138095Y-77797619D01*
X161185714Y-77892857D01*
X161185714Y-77940476D01*
X161138095Y-78035714D01*
X161090476Y-78083333D01*
X160995238Y-78130952D01*
X160804761Y-78130952D01*
X160709523Y-78178571D01*
X160661904Y-78226190D01*
X160614285Y-78321428D01*
X160614285Y-78511904D01*
X160661904Y-78607142D01*
X160709523Y-78654761D01*
X160804761Y-78702380D01*
X160995238Y-78702380D01*
X161090476Y-78654761D01*
X161138095Y-78607142D01*
X161185714Y-78511904D01*
X161185714Y-78321428D01*
X161138095Y-78226190D01*
X161090476Y-78178571D01*
X160995238Y-78130952D01*
G04 #@! TO.C,C7*
X160233333Y-82207142D02*
X160185714Y-82254761D01*
X160042857Y-82302380D01*
X159947619Y-82302380D01*
X159804761Y-82254761D01*
X159709523Y-82159523D01*
X159661904Y-82064285D01*
X159614285Y-81873809D01*
X159614285Y-81730952D01*
X159661904Y-81540476D01*
X159709523Y-81445238D01*
X159804761Y-81350000D01*
X159947619Y-81302380D01*
X160042857Y-81302380D01*
X160185714Y-81350000D01*
X160233333Y-81397619D01*
X160566666Y-81302380D02*
X161233333Y-81302380D01*
X160804761Y-82302380D01*
G04 #@! TO.C,C6*
X160233333Y-85807142D02*
X160185714Y-85854761D01*
X160042857Y-85902380D01*
X159947619Y-85902380D01*
X159804761Y-85854761D01*
X159709523Y-85759523D01*
X159661904Y-85664285D01*
X159614285Y-85473809D01*
X159614285Y-85330952D01*
X159661904Y-85140476D01*
X159709523Y-85045238D01*
X159804761Y-84950000D01*
X159947619Y-84902380D01*
X160042857Y-84902380D01*
X160185714Y-84950000D01*
X160233333Y-84997619D01*
X161090476Y-84902380D02*
X160900000Y-84902380D01*
X160804761Y-84950000D01*
X160757142Y-84997619D01*
X160661904Y-85140476D01*
X160614285Y-85330952D01*
X160614285Y-85711904D01*
X160661904Y-85807142D01*
X160709523Y-85854761D01*
X160804761Y-85902380D01*
X160995238Y-85902380D01*
X161090476Y-85854761D01*
X161138095Y-85807142D01*
X161185714Y-85711904D01*
X161185714Y-85473809D01*
X161138095Y-85378571D01*
X161090476Y-85330952D01*
X160995238Y-85283333D01*
X160804761Y-85283333D01*
X160709523Y-85330952D01*
X160661904Y-85378571D01*
X160614285Y-85473809D01*
G04 #@! TO.C,C10*
X146707142Y-89842857D02*
X146754761Y-89890476D01*
X146802380Y-90033333D01*
X146802380Y-90128571D01*
X146754761Y-90271428D01*
X146659523Y-90366666D01*
X146564285Y-90414285D01*
X146373809Y-90461904D01*
X146230952Y-90461904D01*
X146040476Y-90414285D01*
X145945238Y-90366666D01*
X145850000Y-90271428D01*
X145802380Y-90128571D01*
X145802380Y-90033333D01*
X145850000Y-89890476D01*
X145897619Y-89842857D01*
X146802380Y-88890476D02*
X146802380Y-89461904D01*
X146802380Y-89176190D02*
X145802380Y-89176190D01*
X145945238Y-89271428D01*
X146040476Y-89366666D01*
X146088095Y-89461904D01*
X145802380Y-88271428D02*
X145802380Y-88176190D01*
X145850000Y-88080952D01*
X145897619Y-88033333D01*
X145992857Y-87985714D01*
X146183333Y-87938095D01*
X146421428Y-87938095D01*
X146611904Y-87985714D01*
X146707142Y-88033333D01*
X146754761Y-88080952D01*
X146802380Y-88176190D01*
X146802380Y-88271428D01*
X146754761Y-88366666D01*
X146707142Y-88414285D01*
X146611904Y-88461904D01*
X146421428Y-88509523D01*
X146183333Y-88509523D01*
X145992857Y-88461904D01*
X145897619Y-88414285D01*
X145850000Y-88366666D01*
X145802380Y-88271428D01*
G04 #@! TO.C,C16*
X144607142Y-84342857D02*
X144654761Y-84390476D01*
X144702380Y-84533333D01*
X144702380Y-84628571D01*
X144654761Y-84771428D01*
X144559523Y-84866666D01*
X144464285Y-84914285D01*
X144273809Y-84961904D01*
X144130952Y-84961904D01*
X143940476Y-84914285D01*
X143845238Y-84866666D01*
X143750000Y-84771428D01*
X143702380Y-84628571D01*
X143702380Y-84533333D01*
X143750000Y-84390476D01*
X143797619Y-84342857D01*
X144702380Y-83390476D02*
X144702380Y-83961904D01*
X144702380Y-83676190D02*
X143702380Y-83676190D01*
X143845238Y-83771428D01*
X143940476Y-83866666D01*
X143988095Y-83961904D01*
X143702380Y-82533333D02*
X143702380Y-82723809D01*
X143750000Y-82819047D01*
X143797619Y-82866666D01*
X143940476Y-82961904D01*
X144130952Y-83009523D01*
X144511904Y-83009523D01*
X144607142Y-82961904D01*
X144654761Y-82914285D01*
X144702380Y-82819047D01*
X144702380Y-82628571D01*
X144654761Y-82533333D01*
X144607142Y-82485714D01*
X144511904Y-82438095D01*
X144273809Y-82438095D01*
X144178571Y-82485714D01*
X144130952Y-82533333D01*
X144083333Y-82628571D01*
X144083333Y-82819047D01*
X144130952Y-82914285D01*
X144178571Y-82961904D01*
X144273809Y-83009523D01*
G04 #@! TO.C,C14*
X169907142Y-95142857D02*
X169954761Y-95190476D01*
X170002380Y-95333333D01*
X170002380Y-95428571D01*
X169954761Y-95571428D01*
X169859523Y-95666666D01*
X169764285Y-95714285D01*
X169573809Y-95761904D01*
X169430952Y-95761904D01*
X169240476Y-95714285D01*
X169145238Y-95666666D01*
X169050000Y-95571428D01*
X169002380Y-95428571D01*
X169002380Y-95333333D01*
X169050000Y-95190476D01*
X169097619Y-95142857D01*
X170002380Y-94190476D02*
X170002380Y-94761904D01*
X170002380Y-94476190D02*
X169002380Y-94476190D01*
X169145238Y-94571428D01*
X169240476Y-94666666D01*
X169288095Y-94761904D01*
X169335714Y-93333333D02*
X170002380Y-93333333D01*
X168954761Y-93571428D02*
X169669047Y-93809523D01*
X169669047Y-93190476D01*
G04 #@! TO.C,C1*
X169907142Y-99466666D02*
X169954761Y-99514285D01*
X170002380Y-99657142D01*
X170002380Y-99752380D01*
X169954761Y-99895238D01*
X169859523Y-99990476D01*
X169764285Y-100038095D01*
X169573809Y-100085714D01*
X169430952Y-100085714D01*
X169240476Y-100038095D01*
X169145238Y-99990476D01*
X169050000Y-99895238D01*
X169002380Y-99752380D01*
X169002380Y-99657142D01*
X169050000Y-99514285D01*
X169097619Y-99466666D01*
X170002380Y-98514285D02*
X170002380Y-99085714D01*
X170002380Y-98800000D02*
X169002380Y-98800000D01*
X169145238Y-98895238D01*
X169240476Y-98990476D01*
X169288095Y-99085714D01*
G04 #@! TO.C,C4*
X177233333Y-100707142D02*
X177185714Y-100754761D01*
X177042857Y-100802380D01*
X176947619Y-100802380D01*
X176804761Y-100754761D01*
X176709523Y-100659523D01*
X176661904Y-100564285D01*
X176614285Y-100373809D01*
X176614285Y-100230952D01*
X176661904Y-100040476D01*
X176709523Y-99945238D01*
X176804761Y-99850000D01*
X176947619Y-99802380D01*
X177042857Y-99802380D01*
X177185714Y-99850000D01*
X177233333Y-99897619D01*
X178090476Y-100135714D02*
X178090476Y-100802380D01*
X177852380Y-99754761D02*
X177614285Y-100469047D01*
X178233333Y-100469047D01*
G04 #@! TO.C,C3*
X165307142Y-105766666D02*
X165354761Y-105814285D01*
X165402380Y-105957142D01*
X165402380Y-106052380D01*
X165354761Y-106195238D01*
X165259523Y-106290476D01*
X165164285Y-106338095D01*
X164973809Y-106385714D01*
X164830952Y-106385714D01*
X164640476Y-106338095D01*
X164545238Y-106290476D01*
X164450000Y-106195238D01*
X164402380Y-106052380D01*
X164402380Y-105957142D01*
X164450000Y-105814285D01*
X164497619Y-105766666D01*
X164402380Y-105433333D02*
X164402380Y-104814285D01*
X164783333Y-105147619D01*
X164783333Y-105004761D01*
X164830952Y-104909523D01*
X164878571Y-104861904D01*
X164973809Y-104814285D01*
X165211904Y-104814285D01*
X165307142Y-104861904D01*
X165354761Y-104909523D01*
X165402380Y-105004761D01*
X165402380Y-105290476D01*
X165354761Y-105385714D01*
X165307142Y-105433333D01*
G04 #@! TO.C,C11*
X144457142Y-93442857D02*
X144504761Y-93490476D01*
X144552380Y-93633333D01*
X144552380Y-93728571D01*
X144504761Y-93871428D01*
X144409523Y-93966666D01*
X144314285Y-94014285D01*
X144123809Y-94061904D01*
X143980952Y-94061904D01*
X143790476Y-94014285D01*
X143695238Y-93966666D01*
X143600000Y-93871428D01*
X143552380Y-93728571D01*
X143552380Y-93633333D01*
X143600000Y-93490476D01*
X143647619Y-93442857D01*
X144552380Y-92490476D02*
X144552380Y-93061904D01*
X144552380Y-92776190D02*
X143552380Y-92776190D01*
X143695238Y-92871428D01*
X143790476Y-92966666D01*
X143838095Y-93061904D01*
X144552380Y-91538095D02*
X144552380Y-92109523D01*
X144552380Y-91823809D02*
X143552380Y-91823809D01*
X143695238Y-91919047D01*
X143790476Y-92014285D01*
X143838095Y-92109523D01*
G04 #@! TO.C,C17*
X144457142Y-87442857D02*
X144504761Y-87490476D01*
X144552380Y-87633333D01*
X144552380Y-87728571D01*
X144504761Y-87871428D01*
X144409523Y-87966666D01*
X144314285Y-88014285D01*
X144123809Y-88061904D01*
X143980952Y-88061904D01*
X143790476Y-88014285D01*
X143695238Y-87966666D01*
X143600000Y-87871428D01*
X143552380Y-87728571D01*
X143552380Y-87633333D01*
X143600000Y-87490476D01*
X143647619Y-87442857D01*
X144552380Y-86490476D02*
X144552380Y-87061904D01*
X144552380Y-86776190D02*
X143552380Y-86776190D01*
X143695238Y-86871428D01*
X143790476Y-86966666D01*
X143838095Y-87061904D01*
X143552380Y-86157142D02*
X143552380Y-85490476D01*
X144552380Y-85919047D01*
G04 #@! TO.C,C15*
X172457142Y-91557142D02*
X172409523Y-91604761D01*
X172266666Y-91652380D01*
X172171428Y-91652380D01*
X172028571Y-91604761D01*
X171933333Y-91509523D01*
X171885714Y-91414285D01*
X171838095Y-91223809D01*
X171838095Y-91080952D01*
X171885714Y-90890476D01*
X171933333Y-90795238D01*
X172028571Y-90700000D01*
X172171428Y-90652380D01*
X172266666Y-90652380D01*
X172409523Y-90700000D01*
X172457142Y-90747619D01*
X173409523Y-91652380D02*
X172838095Y-91652380D01*
X173123809Y-91652380D02*
X173123809Y-90652380D01*
X173028571Y-90795238D01*
X172933333Y-90890476D01*
X172838095Y-90938095D01*
X174314285Y-90652380D02*
X173838095Y-90652380D01*
X173790476Y-91128571D01*
X173838095Y-91080952D01*
X173933333Y-91033333D01*
X174171428Y-91033333D01*
X174266666Y-91080952D01*
X174314285Y-91128571D01*
X174361904Y-91223809D01*
X174361904Y-91461904D01*
X174314285Y-91557142D01*
X174266666Y-91604761D01*
X174171428Y-91652380D01*
X173933333Y-91652380D01*
X173838095Y-91604761D01*
X173790476Y-91557142D01*
G04 #@! TO.C,C9*
X160233333Y-75057142D02*
X160185714Y-75104761D01*
X160042857Y-75152380D01*
X159947619Y-75152380D01*
X159804761Y-75104761D01*
X159709523Y-75009523D01*
X159661904Y-74914285D01*
X159614285Y-74723809D01*
X159614285Y-74580952D01*
X159661904Y-74390476D01*
X159709523Y-74295238D01*
X159804761Y-74200000D01*
X159947619Y-74152380D01*
X160042857Y-74152380D01*
X160185714Y-74200000D01*
X160233333Y-74247619D01*
X160709523Y-75152380D02*
X160900000Y-75152380D01*
X160995238Y-75104761D01*
X161042857Y-75057142D01*
X161138095Y-74914285D01*
X161185714Y-74723809D01*
X161185714Y-74342857D01*
X161138095Y-74247619D01*
X161090476Y-74200000D01*
X160995238Y-74152380D01*
X160804761Y-74152380D01*
X160709523Y-74200000D01*
X160661904Y-74247619D01*
X160614285Y-74342857D01*
X160614285Y-74580952D01*
X160661904Y-74676190D01*
X160709523Y-74723809D01*
X160804761Y-74771428D01*
X160995238Y-74771428D01*
X161090476Y-74723809D01*
X161138095Y-74676190D01*
X161185714Y-74580952D01*
G04 #@! TO.C,F12*
X111690476Y-86358571D02*
X111357142Y-86358571D01*
X111357142Y-86882380D02*
X111357142Y-85882380D01*
X111833333Y-85882380D01*
X112738095Y-86882380D02*
X112166666Y-86882380D01*
X112452380Y-86882380D02*
X112452380Y-85882380D01*
X112357142Y-86025238D01*
X112261904Y-86120476D01*
X112166666Y-86168095D01*
X113119047Y-85977619D02*
X113166666Y-85930000D01*
X113261904Y-85882380D01*
X113500000Y-85882380D01*
X113595238Y-85930000D01*
X113642857Y-85977619D01*
X113690476Y-86072857D01*
X113690476Y-86168095D01*
X113642857Y-86310952D01*
X113071428Y-86882380D01*
X113690476Y-86882380D01*
G04 #@! TO.C,F11*
X111690476Y-91358571D02*
X111357142Y-91358571D01*
X111357142Y-91882380D02*
X111357142Y-90882380D01*
X111833333Y-90882380D01*
X112738095Y-91882380D02*
X112166666Y-91882380D01*
X112452380Y-91882380D02*
X112452380Y-90882380D01*
X112357142Y-91025238D01*
X112261904Y-91120476D01*
X112166666Y-91168095D01*
X113690476Y-91882380D02*
X113119047Y-91882380D01*
X113404761Y-91882380D02*
X113404761Y-90882380D01*
X113309523Y-91025238D01*
X113214285Y-91120476D01*
X113119047Y-91168095D01*
G04 #@! TO.C,F10*
X111690476Y-96358571D02*
X111357142Y-96358571D01*
X111357142Y-96882380D02*
X111357142Y-95882380D01*
X111833333Y-95882380D01*
X112738095Y-96882380D02*
X112166666Y-96882380D01*
X112452380Y-96882380D02*
X112452380Y-95882380D01*
X112357142Y-96025238D01*
X112261904Y-96120476D01*
X112166666Y-96168095D01*
X113357142Y-95882380D02*
X113452380Y-95882380D01*
X113547619Y-95930000D01*
X113595238Y-95977619D01*
X113642857Y-96072857D01*
X113690476Y-96263333D01*
X113690476Y-96501428D01*
X113642857Y-96691904D01*
X113595238Y-96787142D01*
X113547619Y-96834761D01*
X113452380Y-96882380D01*
X113357142Y-96882380D01*
X113261904Y-96834761D01*
X113214285Y-96787142D01*
X113166666Y-96691904D01*
X113119047Y-96501428D01*
X113119047Y-96263333D01*
X113166666Y-96072857D01*
X113214285Y-95977619D01*
X113261904Y-95930000D01*
X113357142Y-95882380D01*
G04 #@! TO.C,F9*
X112166666Y-101358571D02*
X111833333Y-101358571D01*
X111833333Y-101882380D02*
X111833333Y-100882380D01*
X112309523Y-100882380D01*
X112738095Y-101882380D02*
X112928571Y-101882380D01*
X113023809Y-101834761D01*
X113071428Y-101787142D01*
X113166666Y-101644285D01*
X113214285Y-101453809D01*
X113214285Y-101072857D01*
X113166666Y-100977619D01*
X113119047Y-100930000D01*
X113023809Y-100882380D01*
X112833333Y-100882380D01*
X112738095Y-100930000D01*
X112690476Y-100977619D01*
X112642857Y-101072857D01*
X112642857Y-101310952D01*
X112690476Y-101406190D01*
X112738095Y-101453809D01*
X112833333Y-101501428D01*
X113023809Y-101501428D01*
X113119047Y-101453809D01*
X113166666Y-101406190D01*
X113214285Y-101310952D01*
G04 #@! TO.C,F6*
X112166666Y-106358571D02*
X111833333Y-106358571D01*
X111833333Y-106882380D02*
X111833333Y-105882380D01*
X112309523Y-105882380D01*
X113119047Y-105882380D02*
X112928571Y-105882380D01*
X112833333Y-105930000D01*
X112785714Y-105977619D01*
X112690476Y-106120476D01*
X112642857Y-106310952D01*
X112642857Y-106691904D01*
X112690476Y-106787142D01*
X112738095Y-106834761D01*
X112833333Y-106882380D01*
X113023809Y-106882380D01*
X113119047Y-106834761D01*
X113166666Y-106787142D01*
X113214285Y-106691904D01*
X113214285Y-106453809D01*
X113166666Y-106358571D01*
X113119047Y-106310952D01*
X113023809Y-106263333D01*
X112833333Y-106263333D01*
X112738095Y-106310952D01*
X112690476Y-106358571D01*
X112642857Y-106453809D01*
G04 #@! TO.C,F5*
X112166666Y-111358571D02*
X111833333Y-111358571D01*
X111833333Y-111882380D02*
X111833333Y-110882380D01*
X112309523Y-110882380D01*
X113166666Y-110882380D02*
X112690476Y-110882380D01*
X112642857Y-111358571D01*
X112690476Y-111310952D01*
X112785714Y-111263333D01*
X113023809Y-111263333D01*
X113119047Y-111310952D01*
X113166666Y-111358571D01*
X113214285Y-111453809D01*
X113214285Y-111691904D01*
X113166666Y-111787142D01*
X113119047Y-111834761D01*
X113023809Y-111882380D01*
X112785714Y-111882380D01*
X112690476Y-111834761D01*
X112642857Y-111787142D01*
G04 #@! TO.C,R16*
X163832380Y-135242857D02*
X163356190Y-135576190D01*
X163832380Y-135814285D02*
X162832380Y-135814285D01*
X162832380Y-135433333D01*
X162880000Y-135338095D01*
X162927619Y-135290476D01*
X163022857Y-135242857D01*
X163165714Y-135242857D01*
X163260952Y-135290476D01*
X163308571Y-135338095D01*
X163356190Y-135433333D01*
X163356190Y-135814285D01*
X163832380Y-134290476D02*
X163832380Y-134861904D01*
X163832380Y-134576190D02*
X162832380Y-134576190D01*
X162975238Y-134671428D01*
X163070476Y-134766666D01*
X163118095Y-134861904D01*
X162832380Y-133433333D02*
X162832380Y-133623809D01*
X162880000Y-133719047D01*
X162927619Y-133766666D01*
X163070476Y-133861904D01*
X163260952Y-133909523D01*
X163641904Y-133909523D01*
X163737142Y-133861904D01*
X163784761Y-133814285D01*
X163832380Y-133719047D01*
X163832380Y-133528571D01*
X163784761Y-133433333D01*
X163737142Y-133385714D01*
X163641904Y-133338095D01*
X163403809Y-133338095D01*
X163308571Y-133385714D01*
X163260952Y-133433333D01*
X163213333Y-133528571D01*
X163213333Y-133719047D01*
X163260952Y-133814285D01*
X163308571Y-133861904D01*
X163403809Y-133909523D01*
G04 #@! TO.C,R15*
X168832380Y-135242857D02*
X168356190Y-135576190D01*
X168832380Y-135814285D02*
X167832380Y-135814285D01*
X167832380Y-135433333D01*
X167880000Y-135338095D01*
X167927619Y-135290476D01*
X168022857Y-135242857D01*
X168165714Y-135242857D01*
X168260952Y-135290476D01*
X168308571Y-135338095D01*
X168356190Y-135433333D01*
X168356190Y-135814285D01*
X168832380Y-134290476D02*
X168832380Y-134861904D01*
X168832380Y-134576190D02*
X167832380Y-134576190D01*
X167975238Y-134671428D01*
X168070476Y-134766666D01*
X168118095Y-134861904D01*
X167832380Y-133385714D02*
X167832380Y-133861904D01*
X168308571Y-133909523D01*
X168260952Y-133861904D01*
X168213333Y-133766666D01*
X168213333Y-133528571D01*
X168260952Y-133433333D01*
X168308571Y-133385714D01*
X168403809Y-133338095D01*
X168641904Y-133338095D01*
X168737142Y-133385714D01*
X168784761Y-133433333D01*
X168832380Y-133528571D01*
X168832380Y-133766666D01*
X168784761Y-133861904D01*
X168737142Y-133909523D01*
G04 #@! TO.C,R14*
X173832380Y-135242857D02*
X173356190Y-135576190D01*
X173832380Y-135814285D02*
X172832380Y-135814285D01*
X172832380Y-135433333D01*
X172880000Y-135338095D01*
X172927619Y-135290476D01*
X173022857Y-135242857D01*
X173165714Y-135242857D01*
X173260952Y-135290476D01*
X173308571Y-135338095D01*
X173356190Y-135433333D01*
X173356190Y-135814285D01*
X173832380Y-134290476D02*
X173832380Y-134861904D01*
X173832380Y-134576190D02*
X172832380Y-134576190D01*
X172975238Y-134671428D01*
X173070476Y-134766666D01*
X173118095Y-134861904D01*
X173165714Y-133433333D02*
X173832380Y-133433333D01*
X172784761Y-133671428D02*
X173499047Y-133909523D01*
X173499047Y-133290476D01*
G04 #@! TO.C,R13*
X178832380Y-135242857D02*
X178356190Y-135576190D01*
X178832380Y-135814285D02*
X177832380Y-135814285D01*
X177832380Y-135433333D01*
X177880000Y-135338095D01*
X177927619Y-135290476D01*
X178022857Y-135242857D01*
X178165714Y-135242857D01*
X178260952Y-135290476D01*
X178308571Y-135338095D01*
X178356190Y-135433333D01*
X178356190Y-135814285D01*
X178832380Y-134290476D02*
X178832380Y-134861904D01*
X178832380Y-134576190D02*
X177832380Y-134576190D01*
X177975238Y-134671428D01*
X178070476Y-134766666D01*
X178118095Y-134861904D01*
X177832380Y-133957142D02*
X177832380Y-133338095D01*
X178213333Y-133671428D01*
X178213333Y-133528571D01*
X178260952Y-133433333D01*
X178308571Y-133385714D01*
X178403809Y-133338095D01*
X178641904Y-133338095D01*
X178737142Y-133385714D01*
X178784761Y-133433333D01*
X178832380Y-133528571D01*
X178832380Y-133814285D01*
X178784761Y-133909523D01*
X178737142Y-133957142D01*
G04 #@! TO.C,R12*
X183832380Y-135242857D02*
X183356190Y-135576190D01*
X183832380Y-135814285D02*
X182832380Y-135814285D01*
X182832380Y-135433333D01*
X182880000Y-135338095D01*
X182927619Y-135290476D01*
X183022857Y-135242857D01*
X183165714Y-135242857D01*
X183260952Y-135290476D01*
X183308571Y-135338095D01*
X183356190Y-135433333D01*
X183356190Y-135814285D01*
X183832380Y-134290476D02*
X183832380Y-134861904D01*
X183832380Y-134576190D02*
X182832380Y-134576190D01*
X182975238Y-134671428D01*
X183070476Y-134766666D01*
X183118095Y-134861904D01*
X182927619Y-133909523D02*
X182880000Y-133861904D01*
X182832380Y-133766666D01*
X182832380Y-133528571D01*
X182880000Y-133433333D01*
X182927619Y-133385714D01*
X183022857Y-133338095D01*
X183118095Y-133338095D01*
X183260952Y-133385714D01*
X183832380Y-133957142D01*
X183832380Y-133338095D01*
G04 #@! TO.C,R11*
X188832380Y-135242857D02*
X188356190Y-135576190D01*
X188832380Y-135814285D02*
X187832380Y-135814285D01*
X187832380Y-135433333D01*
X187880000Y-135338095D01*
X187927619Y-135290476D01*
X188022857Y-135242857D01*
X188165714Y-135242857D01*
X188260952Y-135290476D01*
X188308571Y-135338095D01*
X188356190Y-135433333D01*
X188356190Y-135814285D01*
X188832380Y-134290476D02*
X188832380Y-134861904D01*
X188832380Y-134576190D02*
X187832380Y-134576190D01*
X187975238Y-134671428D01*
X188070476Y-134766666D01*
X188118095Y-134861904D01*
X188832380Y-133338095D02*
X188832380Y-133909523D01*
X188832380Y-133623809D02*
X187832380Y-133623809D01*
X187975238Y-133719047D01*
X188070476Y-133814285D01*
X188118095Y-133909523D01*
G04 #@! TO.C,R33*
X138372380Y-118842857D02*
X137896190Y-119176190D01*
X138372380Y-119414285D02*
X137372380Y-119414285D01*
X137372380Y-119033333D01*
X137420000Y-118938095D01*
X137467619Y-118890476D01*
X137562857Y-118842857D01*
X137705714Y-118842857D01*
X137800952Y-118890476D01*
X137848571Y-118938095D01*
X137896190Y-119033333D01*
X137896190Y-119414285D01*
X137372380Y-118509523D02*
X137372380Y-117890476D01*
X137753333Y-118223809D01*
X137753333Y-118080952D01*
X137800952Y-117985714D01*
X137848571Y-117938095D01*
X137943809Y-117890476D01*
X138181904Y-117890476D01*
X138277142Y-117938095D01*
X138324761Y-117985714D01*
X138372380Y-118080952D01*
X138372380Y-118366666D01*
X138324761Y-118461904D01*
X138277142Y-118509523D01*
X137372380Y-117557142D02*
X137372380Y-116938095D01*
X137753333Y-117271428D01*
X137753333Y-117128571D01*
X137800952Y-117033333D01*
X137848571Y-116985714D01*
X137943809Y-116938095D01*
X138181904Y-116938095D01*
X138277142Y-116985714D01*
X138324761Y-117033333D01*
X138372380Y-117128571D01*
X138372380Y-117414285D01*
X138324761Y-117509523D01*
X138277142Y-117557142D01*
G04 #@! TO.C,R34*
X141972380Y-118842857D02*
X141496190Y-119176190D01*
X141972380Y-119414285D02*
X140972380Y-119414285D01*
X140972380Y-119033333D01*
X141020000Y-118938095D01*
X141067619Y-118890476D01*
X141162857Y-118842857D01*
X141305714Y-118842857D01*
X141400952Y-118890476D01*
X141448571Y-118938095D01*
X141496190Y-119033333D01*
X141496190Y-119414285D01*
X140972380Y-118509523D02*
X140972380Y-117890476D01*
X141353333Y-118223809D01*
X141353333Y-118080952D01*
X141400952Y-117985714D01*
X141448571Y-117938095D01*
X141543809Y-117890476D01*
X141781904Y-117890476D01*
X141877142Y-117938095D01*
X141924761Y-117985714D01*
X141972380Y-118080952D01*
X141972380Y-118366666D01*
X141924761Y-118461904D01*
X141877142Y-118509523D01*
X141305714Y-117033333D02*
X141972380Y-117033333D01*
X140924761Y-117271428D02*
X141639047Y-117509523D01*
X141639047Y-116890476D01*
G04 #@! TO.C,R35*
X145672380Y-118842857D02*
X145196190Y-119176190D01*
X145672380Y-119414285D02*
X144672380Y-119414285D01*
X144672380Y-119033333D01*
X144720000Y-118938095D01*
X144767619Y-118890476D01*
X144862857Y-118842857D01*
X145005714Y-118842857D01*
X145100952Y-118890476D01*
X145148571Y-118938095D01*
X145196190Y-119033333D01*
X145196190Y-119414285D01*
X144672380Y-118509523D02*
X144672380Y-117890476D01*
X145053333Y-118223809D01*
X145053333Y-118080952D01*
X145100952Y-117985714D01*
X145148571Y-117938095D01*
X145243809Y-117890476D01*
X145481904Y-117890476D01*
X145577142Y-117938095D01*
X145624761Y-117985714D01*
X145672380Y-118080952D01*
X145672380Y-118366666D01*
X145624761Y-118461904D01*
X145577142Y-118509523D01*
X144672380Y-116985714D02*
X144672380Y-117461904D01*
X145148571Y-117509523D01*
X145100952Y-117461904D01*
X145053333Y-117366666D01*
X145053333Y-117128571D01*
X145100952Y-117033333D01*
X145148571Y-116985714D01*
X145243809Y-116938095D01*
X145481904Y-116938095D01*
X145577142Y-116985714D01*
X145624761Y-117033333D01*
X145672380Y-117128571D01*
X145672380Y-117366666D01*
X145624761Y-117461904D01*
X145577142Y-117509523D01*
G04 #@! TO.C,R36*
X149272380Y-118842857D02*
X148796190Y-119176190D01*
X149272380Y-119414285D02*
X148272380Y-119414285D01*
X148272380Y-119033333D01*
X148320000Y-118938095D01*
X148367619Y-118890476D01*
X148462857Y-118842857D01*
X148605714Y-118842857D01*
X148700952Y-118890476D01*
X148748571Y-118938095D01*
X148796190Y-119033333D01*
X148796190Y-119414285D01*
X148272380Y-118509523D02*
X148272380Y-117890476D01*
X148653333Y-118223809D01*
X148653333Y-118080952D01*
X148700952Y-117985714D01*
X148748571Y-117938095D01*
X148843809Y-117890476D01*
X149081904Y-117890476D01*
X149177142Y-117938095D01*
X149224761Y-117985714D01*
X149272380Y-118080952D01*
X149272380Y-118366666D01*
X149224761Y-118461904D01*
X149177142Y-118509523D01*
X148272380Y-117033333D02*
X148272380Y-117223809D01*
X148320000Y-117319047D01*
X148367619Y-117366666D01*
X148510476Y-117461904D01*
X148700952Y-117509523D01*
X149081904Y-117509523D01*
X149177142Y-117461904D01*
X149224761Y-117414285D01*
X149272380Y-117319047D01*
X149272380Y-117128571D01*
X149224761Y-117033333D01*
X149177142Y-116985714D01*
X149081904Y-116938095D01*
X148843809Y-116938095D01*
X148748571Y-116985714D01*
X148700952Y-117033333D01*
X148653333Y-117128571D01*
X148653333Y-117319047D01*
X148700952Y-117414285D01*
X148748571Y-117461904D01*
X148843809Y-117509523D01*
G04 #@! TO.C,R37*
X152772380Y-118842857D02*
X152296190Y-119176190D01*
X152772380Y-119414285D02*
X151772380Y-119414285D01*
X151772380Y-119033333D01*
X151820000Y-118938095D01*
X151867619Y-118890476D01*
X151962857Y-118842857D01*
X152105714Y-118842857D01*
X152200952Y-118890476D01*
X152248571Y-118938095D01*
X152296190Y-119033333D01*
X152296190Y-119414285D01*
X151772380Y-118509523D02*
X151772380Y-117890476D01*
X152153333Y-118223809D01*
X152153333Y-118080952D01*
X152200952Y-117985714D01*
X152248571Y-117938095D01*
X152343809Y-117890476D01*
X152581904Y-117890476D01*
X152677142Y-117938095D01*
X152724761Y-117985714D01*
X152772380Y-118080952D01*
X152772380Y-118366666D01*
X152724761Y-118461904D01*
X152677142Y-118509523D01*
X151772380Y-117557142D02*
X151772380Y-116890476D01*
X152772380Y-117319047D01*
G04 #@! TO.C,R38*
X156472380Y-118842857D02*
X155996190Y-119176190D01*
X156472380Y-119414285D02*
X155472380Y-119414285D01*
X155472380Y-119033333D01*
X155520000Y-118938095D01*
X155567619Y-118890476D01*
X155662857Y-118842857D01*
X155805714Y-118842857D01*
X155900952Y-118890476D01*
X155948571Y-118938095D01*
X155996190Y-119033333D01*
X155996190Y-119414285D01*
X155472380Y-118509523D02*
X155472380Y-117890476D01*
X155853333Y-118223809D01*
X155853333Y-118080952D01*
X155900952Y-117985714D01*
X155948571Y-117938095D01*
X156043809Y-117890476D01*
X156281904Y-117890476D01*
X156377142Y-117938095D01*
X156424761Y-117985714D01*
X156472380Y-118080952D01*
X156472380Y-118366666D01*
X156424761Y-118461904D01*
X156377142Y-118509523D01*
X155900952Y-117319047D02*
X155853333Y-117414285D01*
X155805714Y-117461904D01*
X155710476Y-117509523D01*
X155662857Y-117509523D01*
X155567619Y-117461904D01*
X155520000Y-117414285D01*
X155472380Y-117319047D01*
X155472380Y-117128571D01*
X155520000Y-117033333D01*
X155567619Y-116985714D01*
X155662857Y-116938095D01*
X155710476Y-116938095D01*
X155805714Y-116985714D01*
X155853333Y-117033333D01*
X155900952Y-117128571D01*
X155900952Y-117319047D01*
X155948571Y-117414285D01*
X155996190Y-117461904D01*
X156091428Y-117509523D01*
X156281904Y-117509523D01*
X156377142Y-117461904D01*
X156424761Y-117414285D01*
X156472380Y-117319047D01*
X156472380Y-117128571D01*
X156424761Y-117033333D01*
X156377142Y-116985714D01*
X156281904Y-116938095D01*
X156091428Y-116938095D01*
X155996190Y-116985714D01*
X155948571Y-117033333D01*
X155900952Y-117128571D01*
G04 #@! TO.C,R39*
X160272380Y-118842857D02*
X159796190Y-119176190D01*
X160272380Y-119414285D02*
X159272380Y-119414285D01*
X159272380Y-119033333D01*
X159320000Y-118938095D01*
X159367619Y-118890476D01*
X159462857Y-118842857D01*
X159605714Y-118842857D01*
X159700952Y-118890476D01*
X159748571Y-118938095D01*
X159796190Y-119033333D01*
X159796190Y-119414285D01*
X159272380Y-118509523D02*
X159272380Y-117890476D01*
X159653333Y-118223809D01*
X159653333Y-118080952D01*
X159700952Y-117985714D01*
X159748571Y-117938095D01*
X159843809Y-117890476D01*
X160081904Y-117890476D01*
X160177142Y-117938095D01*
X160224761Y-117985714D01*
X160272380Y-118080952D01*
X160272380Y-118366666D01*
X160224761Y-118461904D01*
X160177142Y-118509523D01*
X160272380Y-117414285D02*
X160272380Y-117223809D01*
X160224761Y-117128571D01*
X160177142Y-117080952D01*
X160034285Y-116985714D01*
X159843809Y-116938095D01*
X159462857Y-116938095D01*
X159367619Y-116985714D01*
X159320000Y-117033333D01*
X159272380Y-117128571D01*
X159272380Y-117319047D01*
X159320000Y-117414285D01*
X159367619Y-117461904D01*
X159462857Y-117509523D01*
X159700952Y-117509523D01*
X159796190Y-117461904D01*
X159843809Y-117414285D01*
X159891428Y-117319047D01*
X159891428Y-117128571D01*
X159843809Y-117033333D01*
X159796190Y-116985714D01*
X159700952Y-116938095D01*
G04 #@! TO.C,R40*
X163972380Y-118842857D02*
X163496190Y-119176190D01*
X163972380Y-119414285D02*
X162972380Y-119414285D01*
X162972380Y-119033333D01*
X163020000Y-118938095D01*
X163067619Y-118890476D01*
X163162857Y-118842857D01*
X163305714Y-118842857D01*
X163400952Y-118890476D01*
X163448571Y-118938095D01*
X163496190Y-119033333D01*
X163496190Y-119414285D01*
X163305714Y-117985714D02*
X163972380Y-117985714D01*
X162924761Y-118223809D02*
X163639047Y-118461904D01*
X163639047Y-117842857D01*
X162972380Y-117271428D02*
X162972380Y-117176190D01*
X163020000Y-117080952D01*
X163067619Y-117033333D01*
X163162857Y-116985714D01*
X163353333Y-116938095D01*
X163591428Y-116938095D01*
X163781904Y-116985714D01*
X163877142Y-117033333D01*
X163924761Y-117080952D01*
X163972380Y-117176190D01*
X163972380Y-117271428D01*
X163924761Y-117366666D01*
X163877142Y-117414285D01*
X163781904Y-117461904D01*
X163591428Y-117509523D01*
X163353333Y-117509523D01*
X163162857Y-117461904D01*
X163067619Y-117414285D01*
X163020000Y-117366666D01*
X162972380Y-117271428D01*
G04 #@! TO.C,R41*
X167572380Y-118842857D02*
X167096190Y-119176190D01*
X167572380Y-119414285D02*
X166572380Y-119414285D01*
X166572380Y-119033333D01*
X166620000Y-118938095D01*
X166667619Y-118890476D01*
X166762857Y-118842857D01*
X166905714Y-118842857D01*
X167000952Y-118890476D01*
X167048571Y-118938095D01*
X167096190Y-119033333D01*
X167096190Y-119414285D01*
X166905714Y-117985714D02*
X167572380Y-117985714D01*
X166524761Y-118223809D02*
X167239047Y-118461904D01*
X167239047Y-117842857D01*
X167572380Y-116938095D02*
X167572380Y-117509523D01*
X167572380Y-117223809D02*
X166572380Y-117223809D01*
X166715238Y-117319047D01*
X166810476Y-117414285D01*
X166858095Y-117509523D01*
G04 #@! TO.C,R2*
X160672380Y-104866666D02*
X160196190Y-105200000D01*
X160672380Y-105438095D02*
X159672380Y-105438095D01*
X159672380Y-105057142D01*
X159720000Y-104961904D01*
X159767619Y-104914285D01*
X159862857Y-104866666D01*
X160005714Y-104866666D01*
X160100952Y-104914285D01*
X160148571Y-104961904D01*
X160196190Y-105057142D01*
X160196190Y-105438095D01*
X159767619Y-104485714D02*
X159720000Y-104438095D01*
X159672380Y-104342857D01*
X159672380Y-104104761D01*
X159720000Y-104009523D01*
X159767619Y-103961904D01*
X159862857Y-103914285D01*
X159958095Y-103914285D01*
X160100952Y-103961904D01*
X160672380Y-104533333D01*
X160672380Y-103914285D01*
G04 #@! TO.C,R1*
X172333333Y-100772380D02*
X172000000Y-100296190D01*
X171761904Y-100772380D02*
X171761904Y-99772380D01*
X172142857Y-99772380D01*
X172238095Y-99820000D01*
X172285714Y-99867619D01*
X172333333Y-99962857D01*
X172333333Y-100105714D01*
X172285714Y-100200952D01*
X172238095Y-100248571D01*
X172142857Y-100296190D01*
X171761904Y-100296190D01*
X173285714Y-100772380D02*
X172714285Y-100772380D01*
X173000000Y-100772380D02*
X173000000Y-99772380D01*
X172904761Y-99915238D01*
X172809523Y-100010476D01*
X172714285Y-100058095D01*
G04 #@! TO.C,R4*
X186733333Y-92172380D02*
X186400000Y-91696190D01*
X186161904Y-92172380D02*
X186161904Y-91172380D01*
X186542857Y-91172380D01*
X186638095Y-91220000D01*
X186685714Y-91267619D01*
X186733333Y-91362857D01*
X186733333Y-91505714D01*
X186685714Y-91600952D01*
X186638095Y-91648571D01*
X186542857Y-91696190D01*
X186161904Y-91696190D01*
X187590476Y-91505714D02*
X187590476Y-92172380D01*
X187352380Y-91124761D02*
X187114285Y-91839047D01*
X187733333Y-91839047D01*
G04 #@! TO.C,F2*
X189858571Y-94033333D02*
X189858571Y-94366666D01*
X190382380Y-94366666D02*
X189382380Y-94366666D01*
X189382380Y-93890476D01*
X189477619Y-93557142D02*
X189430000Y-93509523D01*
X189382380Y-93414285D01*
X189382380Y-93176190D01*
X189430000Y-93080952D01*
X189477619Y-93033333D01*
X189572857Y-92985714D01*
X189668095Y-92985714D01*
X189810952Y-93033333D01*
X190382380Y-93604761D01*
X190382380Y-92985714D01*
G04 #@! TO.C,R6*
X186732380Y-85866666D02*
X186256190Y-86200000D01*
X186732380Y-86438095D02*
X185732380Y-86438095D01*
X185732380Y-86057142D01*
X185780000Y-85961904D01*
X185827619Y-85914285D01*
X185922857Y-85866666D01*
X186065714Y-85866666D01*
X186160952Y-85914285D01*
X186208571Y-85961904D01*
X186256190Y-86057142D01*
X186256190Y-86438095D01*
X185732380Y-85009523D02*
X185732380Y-85200000D01*
X185780000Y-85295238D01*
X185827619Y-85342857D01*
X185970476Y-85438095D01*
X186160952Y-85485714D01*
X186541904Y-85485714D01*
X186637142Y-85438095D01*
X186684761Y-85390476D01*
X186732380Y-85295238D01*
X186732380Y-85104761D01*
X186684761Y-85009523D01*
X186637142Y-84961904D01*
X186541904Y-84914285D01*
X186303809Y-84914285D01*
X186208571Y-84961904D01*
X186160952Y-85009523D01*
X186113333Y-85104761D01*
X186113333Y-85295238D01*
X186160952Y-85390476D01*
X186208571Y-85438095D01*
X186303809Y-85485714D01*
G04 #@! TO.C,F4*
X193758571Y-76533333D02*
X193758571Y-76866666D01*
X194282380Y-76866666D02*
X193282380Y-76866666D01*
X193282380Y-76390476D01*
X193615714Y-75580952D02*
X194282380Y-75580952D01*
X193234761Y-75819047D02*
X193949047Y-76057142D01*
X193949047Y-75438095D01*
G04 #@! TO.C,R8*
X190633333Y-74872380D02*
X190300000Y-74396190D01*
X190061904Y-74872380D02*
X190061904Y-73872380D01*
X190442857Y-73872380D01*
X190538095Y-73920000D01*
X190585714Y-73967619D01*
X190633333Y-74062857D01*
X190633333Y-74205714D01*
X190585714Y-74300952D01*
X190538095Y-74348571D01*
X190442857Y-74396190D01*
X190061904Y-74396190D01*
X191204761Y-74300952D02*
X191109523Y-74253333D01*
X191061904Y-74205714D01*
X191014285Y-74110476D01*
X191014285Y-74062857D01*
X191061904Y-73967619D01*
X191109523Y-73920000D01*
X191204761Y-73872380D01*
X191395238Y-73872380D01*
X191490476Y-73920000D01*
X191538095Y-73967619D01*
X191585714Y-74062857D01*
X191585714Y-74110476D01*
X191538095Y-74205714D01*
X191490476Y-74253333D01*
X191395238Y-74300952D01*
X191204761Y-74300952D01*
X191109523Y-74348571D01*
X191061904Y-74396190D01*
X191014285Y-74491428D01*
X191014285Y-74681904D01*
X191061904Y-74777142D01*
X191109523Y-74824761D01*
X191204761Y-74872380D01*
X191395238Y-74872380D01*
X191490476Y-74824761D01*
X191538095Y-74777142D01*
X191585714Y-74681904D01*
X191585714Y-74491428D01*
X191538095Y-74396190D01*
X191490476Y-74348571D01*
X191395238Y-74300952D01*
G04 #@! TO.C,R10*
X190632380Y-68842857D02*
X190156190Y-69176190D01*
X190632380Y-69414285D02*
X189632380Y-69414285D01*
X189632380Y-69033333D01*
X189680000Y-68938095D01*
X189727619Y-68890476D01*
X189822857Y-68842857D01*
X189965714Y-68842857D01*
X190060952Y-68890476D01*
X190108571Y-68938095D01*
X190156190Y-69033333D01*
X190156190Y-69414285D01*
X190632380Y-67890476D02*
X190632380Y-68461904D01*
X190632380Y-68176190D02*
X189632380Y-68176190D01*
X189775238Y-68271428D01*
X189870476Y-68366666D01*
X189918095Y-68461904D01*
X189632380Y-67271428D02*
X189632380Y-67176190D01*
X189680000Y-67080952D01*
X189727619Y-67033333D01*
X189822857Y-66985714D01*
X190013333Y-66938095D01*
X190251428Y-66938095D01*
X190441904Y-66985714D01*
X190537142Y-67033333D01*
X190584761Y-67080952D01*
X190632380Y-67176190D01*
X190632380Y-67271428D01*
X190584761Y-67366666D01*
X190537142Y-67414285D01*
X190441904Y-67461904D01*
X190251428Y-67509523D01*
X190013333Y-67509523D01*
X189822857Y-67461904D01*
X189727619Y-67414285D01*
X189680000Y-67366666D01*
X189632380Y-67271428D01*
G04 #@! TO.C,R9*
X173133333Y-83872380D02*
X172800000Y-83396190D01*
X172561904Y-83872380D02*
X172561904Y-82872380D01*
X172942857Y-82872380D01*
X173038095Y-82920000D01*
X173085714Y-82967619D01*
X173133333Y-83062857D01*
X173133333Y-83205714D01*
X173085714Y-83300952D01*
X173038095Y-83348571D01*
X172942857Y-83396190D01*
X172561904Y-83396190D01*
X173609523Y-83872380D02*
X173800000Y-83872380D01*
X173895238Y-83824761D01*
X173942857Y-83777142D01*
X174038095Y-83634285D01*
X174085714Y-83443809D01*
X174085714Y-83062857D01*
X174038095Y-82967619D01*
X173990476Y-82920000D01*
X173895238Y-82872380D01*
X173704761Y-82872380D01*
X173609523Y-82920000D01*
X173561904Y-82967619D01*
X173514285Y-83062857D01*
X173514285Y-83300952D01*
X173561904Y-83396190D01*
X173609523Y-83443809D01*
X173704761Y-83491428D01*
X173895238Y-83491428D01*
X173990476Y-83443809D01*
X174038095Y-83396190D01*
X174085714Y-83300952D01*
G04 #@! TO.C,R7*
X180372380Y-82866666D02*
X179896190Y-83200000D01*
X180372380Y-83438095D02*
X179372380Y-83438095D01*
X179372380Y-83057142D01*
X179420000Y-82961904D01*
X179467619Y-82914285D01*
X179562857Y-82866666D01*
X179705714Y-82866666D01*
X179800952Y-82914285D01*
X179848571Y-82961904D01*
X179896190Y-83057142D01*
X179896190Y-83438095D01*
X179372380Y-82533333D02*
X179372380Y-81866666D01*
X180372380Y-82295238D01*
G04 #@! TO.C,R5*
X173133333Y-78972380D02*
X172800000Y-78496190D01*
X172561904Y-78972380D02*
X172561904Y-77972380D01*
X172942857Y-77972380D01*
X173038095Y-78020000D01*
X173085714Y-78067619D01*
X173133333Y-78162857D01*
X173133333Y-78305714D01*
X173085714Y-78400952D01*
X173038095Y-78448571D01*
X172942857Y-78496190D01*
X172561904Y-78496190D01*
X174038095Y-77972380D02*
X173561904Y-77972380D01*
X173514285Y-78448571D01*
X173561904Y-78400952D01*
X173657142Y-78353333D01*
X173895238Y-78353333D01*
X173990476Y-78400952D01*
X174038095Y-78448571D01*
X174085714Y-78543809D01*
X174085714Y-78781904D01*
X174038095Y-78877142D01*
X173990476Y-78924761D01*
X173895238Y-78972380D01*
X173657142Y-78972380D01*
X173561904Y-78924761D01*
X173514285Y-78877142D01*
G04 #@! TO.C,R3*
X180372380Y-77966666D02*
X179896190Y-78300000D01*
X180372380Y-78538095D02*
X179372380Y-78538095D01*
X179372380Y-78157142D01*
X179420000Y-78061904D01*
X179467619Y-78014285D01*
X179562857Y-77966666D01*
X179705714Y-77966666D01*
X179800952Y-78014285D01*
X179848571Y-78061904D01*
X179896190Y-78157142D01*
X179896190Y-78538095D01*
X179372380Y-77633333D02*
X179372380Y-77014285D01*
X179753333Y-77347619D01*
X179753333Y-77204761D01*
X179800952Y-77109523D01*
X179848571Y-77061904D01*
X179943809Y-77014285D01*
X180181904Y-77014285D01*
X180277142Y-77061904D01*
X180324761Y-77109523D01*
X180372380Y-77204761D01*
X180372380Y-77490476D01*
X180324761Y-77585714D01*
X180277142Y-77633333D01*
G04 #@! TO.C,F1*
X181166666Y-74798571D02*
X180833333Y-74798571D01*
X180833333Y-75322380D02*
X180833333Y-74322380D01*
X181309523Y-74322380D01*
X182214285Y-75322380D02*
X181642857Y-75322380D01*
X181928571Y-75322380D02*
X181928571Y-74322380D01*
X181833333Y-74465238D01*
X181738095Y-74560476D01*
X181642857Y-74608095D01*
G04 #@! TO.C,F3*
X181166666Y-79698571D02*
X180833333Y-79698571D01*
X180833333Y-80222380D02*
X180833333Y-79222380D01*
X181309523Y-79222380D01*
X181595238Y-79222380D02*
X182214285Y-79222380D01*
X181880952Y-79603333D01*
X182023809Y-79603333D01*
X182119047Y-79650952D01*
X182166666Y-79698571D01*
X182214285Y-79793809D01*
X182214285Y-80031904D01*
X182166666Y-80127142D01*
X182119047Y-80174761D01*
X182023809Y-80222380D01*
X181738095Y-80222380D01*
X181642857Y-80174761D01*
X181595238Y-80127142D01*
G04 #@! TO.C,F8*
X112166666Y-76258571D02*
X111833333Y-76258571D01*
X111833333Y-76782380D02*
X111833333Y-75782380D01*
X112309523Y-75782380D01*
X112833333Y-76210952D02*
X112738095Y-76163333D01*
X112690476Y-76115714D01*
X112642857Y-76020476D01*
X112642857Y-75972857D01*
X112690476Y-75877619D01*
X112738095Y-75830000D01*
X112833333Y-75782380D01*
X113023809Y-75782380D01*
X113119047Y-75830000D01*
X113166666Y-75877619D01*
X113214285Y-75972857D01*
X113214285Y-76020476D01*
X113166666Y-76115714D01*
X113119047Y-76163333D01*
X113023809Y-76210952D01*
X112833333Y-76210952D01*
X112738095Y-76258571D01*
X112690476Y-76306190D01*
X112642857Y-76401428D01*
X112642857Y-76591904D01*
X112690476Y-76687142D01*
X112738095Y-76734761D01*
X112833333Y-76782380D01*
X113023809Y-76782380D01*
X113119047Y-76734761D01*
X113166666Y-76687142D01*
X113214285Y-76591904D01*
X113214285Y-76401428D01*
X113166666Y-76306190D01*
X113119047Y-76258571D01*
X113023809Y-76210952D01*
G04 #@! TO.C,F7*
X112166666Y-81358571D02*
X111833333Y-81358571D01*
X111833333Y-81882380D02*
X111833333Y-80882380D01*
X112309523Y-80882380D01*
X112595238Y-80882380D02*
X113261904Y-80882380D01*
X112833333Y-81882380D01*
G04 #@! TO.C,R17*
X118872380Y-112042857D02*
X118396190Y-112376190D01*
X118872380Y-112614285D02*
X117872380Y-112614285D01*
X117872380Y-112233333D01*
X117920000Y-112138095D01*
X117967619Y-112090476D01*
X118062857Y-112042857D01*
X118205714Y-112042857D01*
X118300952Y-112090476D01*
X118348571Y-112138095D01*
X118396190Y-112233333D01*
X118396190Y-112614285D01*
X118872380Y-111090476D02*
X118872380Y-111661904D01*
X118872380Y-111376190D02*
X117872380Y-111376190D01*
X118015238Y-111471428D01*
X118110476Y-111566666D01*
X118158095Y-111661904D01*
X117872380Y-110757142D02*
X117872380Y-110090476D01*
X118872380Y-110519047D01*
G04 #@! TO.C,R21*
X120657142Y-108832380D02*
X120323809Y-108356190D01*
X120085714Y-108832380D02*
X120085714Y-107832380D01*
X120466666Y-107832380D01*
X120561904Y-107880000D01*
X120609523Y-107927619D01*
X120657142Y-108022857D01*
X120657142Y-108165714D01*
X120609523Y-108260952D01*
X120561904Y-108308571D01*
X120466666Y-108356190D01*
X120085714Y-108356190D01*
X121038095Y-107927619D02*
X121085714Y-107880000D01*
X121180952Y-107832380D01*
X121419047Y-107832380D01*
X121514285Y-107880000D01*
X121561904Y-107927619D01*
X121609523Y-108022857D01*
X121609523Y-108118095D01*
X121561904Y-108260952D01*
X120990476Y-108832380D01*
X121609523Y-108832380D01*
X122561904Y-108832380D02*
X121990476Y-108832380D01*
X122276190Y-108832380D02*
X122276190Y-107832380D01*
X122180952Y-107975238D01*
X122085714Y-108070476D01*
X121990476Y-108118095D01*
G04 #@! TO.C,R18*
X118872380Y-107042857D02*
X118396190Y-107376190D01*
X118872380Y-107614285D02*
X117872380Y-107614285D01*
X117872380Y-107233333D01*
X117920000Y-107138095D01*
X117967619Y-107090476D01*
X118062857Y-107042857D01*
X118205714Y-107042857D01*
X118300952Y-107090476D01*
X118348571Y-107138095D01*
X118396190Y-107233333D01*
X118396190Y-107614285D01*
X118872380Y-106090476D02*
X118872380Y-106661904D01*
X118872380Y-106376190D02*
X117872380Y-106376190D01*
X118015238Y-106471428D01*
X118110476Y-106566666D01*
X118158095Y-106661904D01*
X118300952Y-105519047D02*
X118253333Y-105614285D01*
X118205714Y-105661904D01*
X118110476Y-105709523D01*
X118062857Y-105709523D01*
X117967619Y-105661904D01*
X117920000Y-105614285D01*
X117872380Y-105519047D01*
X117872380Y-105328571D01*
X117920000Y-105233333D01*
X117967619Y-105185714D01*
X118062857Y-105138095D01*
X118110476Y-105138095D01*
X118205714Y-105185714D01*
X118253333Y-105233333D01*
X118300952Y-105328571D01*
X118300952Y-105519047D01*
X118348571Y-105614285D01*
X118396190Y-105661904D01*
X118491428Y-105709523D01*
X118681904Y-105709523D01*
X118777142Y-105661904D01*
X118824761Y-105614285D01*
X118872380Y-105519047D01*
X118872380Y-105328571D01*
X118824761Y-105233333D01*
X118777142Y-105185714D01*
X118681904Y-105138095D01*
X118491428Y-105138095D01*
X118396190Y-105185714D01*
X118348571Y-105233333D01*
X118300952Y-105328571D01*
G04 #@! TO.C,R22*
X120657142Y-103832380D02*
X120323809Y-103356190D01*
X120085714Y-103832380D02*
X120085714Y-102832380D01*
X120466666Y-102832380D01*
X120561904Y-102880000D01*
X120609523Y-102927619D01*
X120657142Y-103022857D01*
X120657142Y-103165714D01*
X120609523Y-103260952D01*
X120561904Y-103308571D01*
X120466666Y-103356190D01*
X120085714Y-103356190D01*
X121038095Y-102927619D02*
X121085714Y-102880000D01*
X121180952Y-102832380D01*
X121419047Y-102832380D01*
X121514285Y-102880000D01*
X121561904Y-102927619D01*
X121609523Y-103022857D01*
X121609523Y-103118095D01*
X121561904Y-103260952D01*
X120990476Y-103832380D01*
X121609523Y-103832380D01*
X121990476Y-102927619D02*
X122038095Y-102880000D01*
X122133333Y-102832380D01*
X122371428Y-102832380D01*
X122466666Y-102880000D01*
X122514285Y-102927619D01*
X122561904Y-103022857D01*
X122561904Y-103118095D01*
X122514285Y-103260952D01*
X121942857Y-103832380D01*
X122561904Y-103832380D01*
G04 #@! TO.C,R29*
X118872380Y-92042857D02*
X118396190Y-92376190D01*
X118872380Y-92614285D02*
X117872380Y-92614285D01*
X117872380Y-92233333D01*
X117920000Y-92138095D01*
X117967619Y-92090476D01*
X118062857Y-92042857D01*
X118205714Y-92042857D01*
X118300952Y-92090476D01*
X118348571Y-92138095D01*
X118396190Y-92233333D01*
X118396190Y-92614285D01*
X117967619Y-91661904D02*
X117920000Y-91614285D01*
X117872380Y-91519047D01*
X117872380Y-91280952D01*
X117920000Y-91185714D01*
X117967619Y-91138095D01*
X118062857Y-91090476D01*
X118158095Y-91090476D01*
X118300952Y-91138095D01*
X118872380Y-91709523D01*
X118872380Y-91090476D01*
X118872380Y-90614285D02*
X118872380Y-90423809D01*
X118824761Y-90328571D01*
X118777142Y-90280952D01*
X118634285Y-90185714D01*
X118443809Y-90138095D01*
X118062857Y-90138095D01*
X117967619Y-90185714D01*
X117920000Y-90233333D01*
X117872380Y-90328571D01*
X117872380Y-90519047D01*
X117920000Y-90614285D01*
X117967619Y-90661904D01*
X118062857Y-90709523D01*
X118300952Y-90709523D01*
X118396190Y-90661904D01*
X118443809Y-90614285D01*
X118491428Y-90519047D01*
X118491428Y-90328571D01*
X118443809Y-90233333D01*
X118396190Y-90185714D01*
X118300952Y-90138095D01*
G04 #@! TO.C,R31*
X120657142Y-88832380D02*
X120323809Y-88356190D01*
X120085714Y-88832380D02*
X120085714Y-87832380D01*
X120466666Y-87832380D01*
X120561904Y-87880000D01*
X120609523Y-87927619D01*
X120657142Y-88022857D01*
X120657142Y-88165714D01*
X120609523Y-88260952D01*
X120561904Y-88308571D01*
X120466666Y-88356190D01*
X120085714Y-88356190D01*
X120990476Y-87832380D02*
X121609523Y-87832380D01*
X121276190Y-88213333D01*
X121419047Y-88213333D01*
X121514285Y-88260952D01*
X121561904Y-88308571D01*
X121609523Y-88403809D01*
X121609523Y-88641904D01*
X121561904Y-88737142D01*
X121514285Y-88784761D01*
X121419047Y-88832380D01*
X121133333Y-88832380D01*
X121038095Y-88784761D01*
X120990476Y-88737142D01*
X122561904Y-88832380D02*
X121990476Y-88832380D01*
X122276190Y-88832380D02*
X122276190Y-87832380D01*
X122180952Y-87975238D01*
X122085714Y-88070476D01*
X121990476Y-88118095D01*
G04 #@! TO.C,R19*
X118872380Y-82042857D02*
X118396190Y-82376190D01*
X118872380Y-82614285D02*
X117872380Y-82614285D01*
X117872380Y-82233333D01*
X117920000Y-82138095D01*
X117967619Y-82090476D01*
X118062857Y-82042857D01*
X118205714Y-82042857D01*
X118300952Y-82090476D01*
X118348571Y-82138095D01*
X118396190Y-82233333D01*
X118396190Y-82614285D01*
X118872380Y-81090476D02*
X118872380Y-81661904D01*
X118872380Y-81376190D02*
X117872380Y-81376190D01*
X118015238Y-81471428D01*
X118110476Y-81566666D01*
X118158095Y-81661904D01*
X118872380Y-80614285D02*
X118872380Y-80423809D01*
X118824761Y-80328571D01*
X118777142Y-80280952D01*
X118634285Y-80185714D01*
X118443809Y-80138095D01*
X118062857Y-80138095D01*
X117967619Y-80185714D01*
X117920000Y-80233333D01*
X117872380Y-80328571D01*
X117872380Y-80519047D01*
X117920000Y-80614285D01*
X117967619Y-80661904D01*
X118062857Y-80709523D01*
X118300952Y-80709523D01*
X118396190Y-80661904D01*
X118443809Y-80614285D01*
X118491428Y-80519047D01*
X118491428Y-80328571D01*
X118443809Y-80233333D01*
X118396190Y-80185714D01*
X118300952Y-80138095D01*
G04 #@! TO.C,R23*
X120657142Y-78832380D02*
X120323809Y-78356190D01*
X120085714Y-78832380D02*
X120085714Y-77832380D01*
X120466666Y-77832380D01*
X120561904Y-77880000D01*
X120609523Y-77927619D01*
X120657142Y-78022857D01*
X120657142Y-78165714D01*
X120609523Y-78260952D01*
X120561904Y-78308571D01*
X120466666Y-78356190D01*
X120085714Y-78356190D01*
X121038095Y-77927619D02*
X121085714Y-77880000D01*
X121180952Y-77832380D01*
X121419047Y-77832380D01*
X121514285Y-77880000D01*
X121561904Y-77927619D01*
X121609523Y-78022857D01*
X121609523Y-78118095D01*
X121561904Y-78260952D01*
X120990476Y-78832380D01*
X121609523Y-78832380D01*
X121942857Y-77832380D02*
X122561904Y-77832380D01*
X122228571Y-78213333D01*
X122371428Y-78213333D01*
X122466666Y-78260952D01*
X122514285Y-78308571D01*
X122561904Y-78403809D01*
X122561904Y-78641904D01*
X122514285Y-78737142D01*
X122466666Y-78784761D01*
X122371428Y-78832380D01*
X122085714Y-78832380D01*
X121990476Y-78784761D01*
X121942857Y-78737142D01*
G04 #@! TO.C,R20*
X118872380Y-77042857D02*
X118396190Y-77376190D01*
X118872380Y-77614285D02*
X117872380Y-77614285D01*
X117872380Y-77233333D01*
X117920000Y-77138095D01*
X117967619Y-77090476D01*
X118062857Y-77042857D01*
X118205714Y-77042857D01*
X118300952Y-77090476D01*
X118348571Y-77138095D01*
X118396190Y-77233333D01*
X118396190Y-77614285D01*
X117967619Y-76661904D02*
X117920000Y-76614285D01*
X117872380Y-76519047D01*
X117872380Y-76280952D01*
X117920000Y-76185714D01*
X117967619Y-76138095D01*
X118062857Y-76090476D01*
X118158095Y-76090476D01*
X118300952Y-76138095D01*
X118872380Y-76709523D01*
X118872380Y-76090476D01*
X117872380Y-75471428D02*
X117872380Y-75376190D01*
X117920000Y-75280952D01*
X117967619Y-75233333D01*
X118062857Y-75185714D01*
X118253333Y-75138095D01*
X118491428Y-75138095D01*
X118681904Y-75185714D01*
X118777142Y-75233333D01*
X118824761Y-75280952D01*
X118872380Y-75376190D01*
X118872380Y-75471428D01*
X118824761Y-75566666D01*
X118777142Y-75614285D01*
X118681904Y-75661904D01*
X118491428Y-75709523D01*
X118253333Y-75709523D01*
X118062857Y-75661904D01*
X117967619Y-75614285D01*
X117920000Y-75566666D01*
X117872380Y-75471428D01*
G04 #@! TO.C,R24*
X120657142Y-73832380D02*
X120323809Y-73356190D01*
X120085714Y-73832380D02*
X120085714Y-72832380D01*
X120466666Y-72832380D01*
X120561904Y-72880000D01*
X120609523Y-72927619D01*
X120657142Y-73022857D01*
X120657142Y-73165714D01*
X120609523Y-73260952D01*
X120561904Y-73308571D01*
X120466666Y-73356190D01*
X120085714Y-73356190D01*
X121038095Y-72927619D02*
X121085714Y-72880000D01*
X121180952Y-72832380D01*
X121419047Y-72832380D01*
X121514285Y-72880000D01*
X121561904Y-72927619D01*
X121609523Y-73022857D01*
X121609523Y-73118095D01*
X121561904Y-73260952D01*
X120990476Y-73832380D01*
X121609523Y-73832380D01*
X122466666Y-73165714D02*
X122466666Y-73832380D01*
X122228571Y-72784761D02*
X121990476Y-73499047D01*
X122609523Y-73499047D01*
G04 #@! TO.C,R26*
X118872380Y-96942857D02*
X118396190Y-97276190D01*
X118872380Y-97514285D02*
X117872380Y-97514285D01*
X117872380Y-97133333D01*
X117920000Y-97038095D01*
X117967619Y-96990476D01*
X118062857Y-96942857D01*
X118205714Y-96942857D01*
X118300952Y-96990476D01*
X118348571Y-97038095D01*
X118396190Y-97133333D01*
X118396190Y-97514285D01*
X117967619Y-96561904D02*
X117920000Y-96514285D01*
X117872380Y-96419047D01*
X117872380Y-96180952D01*
X117920000Y-96085714D01*
X117967619Y-96038095D01*
X118062857Y-95990476D01*
X118158095Y-95990476D01*
X118300952Y-96038095D01*
X118872380Y-96609523D01*
X118872380Y-95990476D01*
X117872380Y-95133333D02*
X117872380Y-95323809D01*
X117920000Y-95419047D01*
X117967619Y-95466666D01*
X118110476Y-95561904D01*
X118300952Y-95609523D01*
X118681904Y-95609523D01*
X118777142Y-95561904D01*
X118824761Y-95514285D01*
X118872380Y-95419047D01*
X118872380Y-95228571D01*
X118824761Y-95133333D01*
X118777142Y-95085714D01*
X118681904Y-95038095D01*
X118443809Y-95038095D01*
X118348571Y-95085714D01*
X118300952Y-95133333D01*
X118253333Y-95228571D01*
X118253333Y-95419047D01*
X118300952Y-95514285D01*
X118348571Y-95561904D01*
X118443809Y-95609523D01*
G04 #@! TO.C,R25*
X118872380Y-101942857D02*
X118396190Y-102276190D01*
X118872380Y-102514285D02*
X117872380Y-102514285D01*
X117872380Y-102133333D01*
X117920000Y-102038095D01*
X117967619Y-101990476D01*
X118062857Y-101942857D01*
X118205714Y-101942857D01*
X118300952Y-101990476D01*
X118348571Y-102038095D01*
X118396190Y-102133333D01*
X118396190Y-102514285D01*
X117967619Y-101561904D02*
X117920000Y-101514285D01*
X117872380Y-101419047D01*
X117872380Y-101180952D01*
X117920000Y-101085714D01*
X117967619Y-101038095D01*
X118062857Y-100990476D01*
X118158095Y-100990476D01*
X118300952Y-101038095D01*
X118872380Y-101609523D01*
X118872380Y-100990476D01*
X117872380Y-100085714D02*
X117872380Y-100561904D01*
X118348571Y-100609523D01*
X118300952Y-100561904D01*
X118253333Y-100466666D01*
X118253333Y-100228571D01*
X118300952Y-100133333D01*
X118348571Y-100085714D01*
X118443809Y-100038095D01*
X118681904Y-100038095D01*
X118777142Y-100085714D01*
X118824761Y-100133333D01*
X118872380Y-100228571D01*
X118872380Y-100466666D01*
X118824761Y-100561904D01*
X118777142Y-100609523D01*
G04 #@! TO.C,R28*
X120657142Y-93832380D02*
X120323809Y-93356190D01*
X120085714Y-93832380D02*
X120085714Y-92832380D01*
X120466666Y-92832380D01*
X120561904Y-92880000D01*
X120609523Y-92927619D01*
X120657142Y-93022857D01*
X120657142Y-93165714D01*
X120609523Y-93260952D01*
X120561904Y-93308571D01*
X120466666Y-93356190D01*
X120085714Y-93356190D01*
X121038095Y-92927619D02*
X121085714Y-92880000D01*
X121180952Y-92832380D01*
X121419047Y-92832380D01*
X121514285Y-92880000D01*
X121561904Y-92927619D01*
X121609523Y-93022857D01*
X121609523Y-93118095D01*
X121561904Y-93260952D01*
X120990476Y-93832380D01*
X121609523Y-93832380D01*
X122180952Y-93260952D02*
X122085714Y-93213333D01*
X122038095Y-93165714D01*
X121990476Y-93070476D01*
X121990476Y-93022857D01*
X122038095Y-92927619D01*
X122085714Y-92880000D01*
X122180952Y-92832380D01*
X122371428Y-92832380D01*
X122466666Y-92880000D01*
X122514285Y-92927619D01*
X122561904Y-93022857D01*
X122561904Y-93070476D01*
X122514285Y-93165714D01*
X122466666Y-93213333D01*
X122371428Y-93260952D01*
X122180952Y-93260952D01*
X122085714Y-93308571D01*
X122038095Y-93356190D01*
X121990476Y-93451428D01*
X121990476Y-93641904D01*
X122038095Y-93737142D01*
X122085714Y-93784761D01*
X122180952Y-93832380D01*
X122371428Y-93832380D01*
X122466666Y-93784761D01*
X122514285Y-93737142D01*
X122561904Y-93641904D01*
X122561904Y-93451428D01*
X122514285Y-93356190D01*
X122466666Y-93308571D01*
X122371428Y-93260952D01*
G04 #@! TO.C,R27*
X120662143Y-98932380D02*
X120328810Y-98456190D01*
X120090715Y-98932380D02*
X120090715Y-97932380D01*
X120471667Y-97932380D01*
X120566905Y-97980000D01*
X120614524Y-98027619D01*
X120662143Y-98122857D01*
X120662143Y-98265714D01*
X120614524Y-98360952D01*
X120566905Y-98408571D01*
X120471667Y-98456190D01*
X120090715Y-98456190D01*
X121043096Y-98027619D02*
X121090715Y-97980000D01*
X121185953Y-97932380D01*
X121424048Y-97932380D01*
X121519286Y-97980000D01*
X121566905Y-98027619D01*
X121614524Y-98122857D01*
X121614524Y-98218095D01*
X121566905Y-98360952D01*
X120995477Y-98932380D01*
X121614524Y-98932380D01*
X121947858Y-97932380D02*
X122614524Y-97932380D01*
X122185953Y-98932380D01*
G04 #@! TO.C,R32*
X120657142Y-83832380D02*
X120323809Y-83356190D01*
X120085714Y-83832380D02*
X120085714Y-82832380D01*
X120466666Y-82832380D01*
X120561904Y-82880000D01*
X120609523Y-82927619D01*
X120657142Y-83022857D01*
X120657142Y-83165714D01*
X120609523Y-83260952D01*
X120561904Y-83308571D01*
X120466666Y-83356190D01*
X120085714Y-83356190D01*
X120990476Y-82832380D02*
X121609523Y-82832380D01*
X121276190Y-83213333D01*
X121419047Y-83213333D01*
X121514285Y-83260952D01*
X121561904Y-83308571D01*
X121609523Y-83403809D01*
X121609523Y-83641904D01*
X121561904Y-83737142D01*
X121514285Y-83784761D01*
X121419047Y-83832380D01*
X121133333Y-83832380D01*
X121038095Y-83784761D01*
X120990476Y-83737142D01*
X121990476Y-82927619D02*
X122038095Y-82880000D01*
X122133333Y-82832380D01*
X122371428Y-82832380D01*
X122466666Y-82880000D01*
X122514285Y-82927619D01*
X122561904Y-83022857D01*
X122561904Y-83118095D01*
X122514285Y-83260952D01*
X121942857Y-83832380D01*
X122561904Y-83832380D01*
G04 #@! TO.C,R30*
X118872380Y-87042857D02*
X118396190Y-87376190D01*
X118872380Y-87614285D02*
X117872380Y-87614285D01*
X117872380Y-87233333D01*
X117920000Y-87138095D01*
X117967619Y-87090476D01*
X118062857Y-87042857D01*
X118205714Y-87042857D01*
X118300952Y-87090476D01*
X118348571Y-87138095D01*
X118396190Y-87233333D01*
X118396190Y-87614285D01*
X117872380Y-86709523D02*
X117872380Y-86090476D01*
X118253333Y-86423809D01*
X118253333Y-86280952D01*
X118300952Y-86185714D01*
X118348571Y-86138095D01*
X118443809Y-86090476D01*
X118681904Y-86090476D01*
X118777142Y-86138095D01*
X118824761Y-86185714D01*
X118872380Y-86280952D01*
X118872380Y-86566666D01*
X118824761Y-86661904D01*
X118777142Y-86709523D01*
X117872380Y-85471428D02*
X117872380Y-85376190D01*
X117920000Y-85280952D01*
X117967619Y-85233333D01*
X118062857Y-85185714D01*
X118253333Y-85138095D01*
X118491428Y-85138095D01*
X118681904Y-85185714D01*
X118777142Y-85233333D01*
X118824761Y-85280952D01*
X118872380Y-85376190D01*
X118872380Y-85471428D01*
X118824761Y-85566666D01*
X118777142Y-85614285D01*
X118681904Y-85661904D01*
X118491428Y-85709523D01*
X118253333Y-85709523D01*
X118062857Y-85661904D01*
X117967619Y-85614285D01*
X117920000Y-85566666D01*
X117872380Y-85471428D01*
G04 #@! TO.C,J9*
X155066666Y-63312380D02*
X155066666Y-64026666D01*
X155019047Y-64169523D01*
X154923809Y-64264761D01*
X154780952Y-64312380D01*
X154685714Y-64312380D01*
X155590476Y-64312380D02*
X155780952Y-64312380D01*
X155876190Y-64264761D01*
X155923809Y-64217142D01*
X156019047Y-64074285D01*
X156066666Y-63883809D01*
X156066666Y-63502857D01*
X156019047Y-63407619D01*
X155971428Y-63360000D01*
X155876190Y-63312380D01*
X155685714Y-63312380D01*
X155590476Y-63360000D01*
X155542857Y-63407619D01*
X155495238Y-63502857D01*
X155495238Y-63740952D01*
X155542857Y-63836190D01*
X155590476Y-63883809D01*
X155685714Y-63931428D01*
X155876190Y-63931428D01*
X155971428Y-63883809D01*
X156019047Y-63836190D01*
X156066666Y-63740952D01*
G04 #@! TD*
M02*
